<?xml version="1.0" encoding="UTF-8" standalone="no"?>
<!DOCTYPE svg PUBLIC "-//W3C//DTD SVG 1.1//EN" "http://www.w3.org/Graphics/SVG/1.1/DTD/svg11.dtd">
<svg width="100%" height="100%" viewBox="0 0 1853 1357" version="1.1" xmlns="http://www.w3.org/2000/svg" xmlns:xlink="http://www.w3.org/1999/xlink" xml:space="preserve" style="fill-rule:evenodd;clip-rule:evenodd;stroke-linejoin:round;stroke-miterlimit:1.41421;">
    <g transform="matrix(1.43534,0,0,1.43534,-524.833,345.422)">
        <path d="M538.194,-27.847C455.593,-27.847 410.834,21.795 385.606,76.32L399.847,82.83C425.482,32.782 464.951,8.774 510.524,8.774C554.877,8.774 582.953,31.154 582.953,83.644C582.953,125.962 563.828,169.5 519.069,203.68C508.083,202.866 499.131,200.425 489.772,200.425C477.972,200.425 468.207,206.121 468.207,216.294C468.207,222.804 472.276,226.873 481.634,226.873C491.4,226.873 504.014,221.177 520.697,214.666C574.815,218.735 608.994,266.343 608.994,331.04C608.994,454.331 493.841,521.063 379.909,523.504L379.909,538.56C522.324,538.56 688.34,457.993 688.34,331.04C688.34,245.184 611.436,206.121 534.125,204.494C597.194,182.114 658.229,132.065 658.229,66.961C658.229,7.961 607.367,-27.847 538.194,-27.847Z" style="fill:white;fill-rule:nonzero;"/>
        <path d="M945.941,-27.847C818.174,-27.847 734.759,72.658 734.759,204.494C734.759,338.771 820.615,424.627 936.582,424.627C1062.32,424.627 1147.36,324.53 1147.36,191.066C1147.36,58.823 1063.13,-27.847 945.941,-27.847ZM938.21,-13.198C1007.38,-13.198 1066.79,44.582 1066.79,193.508C1066.79,329.412 1015.93,409.572 944.313,409.572C875.14,409.572 815.733,351.792 815.733,202.052C815.733,66.147 866.595,-13.198 938.21,-13.198Z" style="fill:white;fill-rule:nonzero;"/>
        <path d="M1412.69,-27.847C1284.92,-27.847 1201.51,72.658 1201.51,204.494C1201.51,338.771 1287.36,424.627 1403.33,424.627C1529.06,424.627 1614.11,324.53 1614.11,191.066C1614.11,58.823 1529.88,-27.847 1412.69,-27.847ZM1404.96,-13.198C1474.13,-13.198 1533.54,44.582 1533.54,193.508C1533.54,329.412 1482.68,409.572 1411.06,409.572C1341.89,409.572 1282.48,351.792 1282.48,202.052C1282.48,66.147 1333.34,-13.198 1404.96,-13.198Z" style="fill:white;fill-rule:nonzero;"/>
    </g>
    <g transform="matrix(1.15051,0,0,1.15051,8.23461,804.102)">
        <path d="M580.895,224.806C571.52,224.806 560.323,224.546 550.166,224.025L550.166,229.364C565.01,229.754 573.734,233.009 573.734,243.556C573.734,249.025 571.39,256.447 566.442,266.473L532.458,334.181L488.057,249.155C486.104,245.379 485.323,242.384 485.323,239.91C485.323,231.968 493.916,229.624 504.073,229.624L504.073,224.025C492.614,224.806 478.421,224.806 466.703,224.806C457.588,224.806 450.166,224.546 443.265,224.025L443.265,229.624C447.041,229.624 451.468,231.447 458.76,244.598L512.796,344.338L512.796,384.572C512.796,403.973 509.411,406.707 491.182,407.489L491.182,412.827C498.734,412.306 511.494,412.046 525.427,412.046C537.666,412.046 550.948,412.306 559.281,412.827L559.281,407.489C541.052,406.707 537.666,403.973 537.666,384.572L537.666,336.004L579.463,253.062C587.536,237.306 593.916,230.926 600.817,229.364L600.817,224.025C595.479,224.546 589.88,224.806 580.895,224.806Z" style="fill:white;fill-rule:nonzero;"/>
        <path d="M829.385,378.713C829.385,371.291 829.645,364.259 830.166,359.442L824.046,359.442C820.27,394.728 813.63,406.707 780.296,406.707L760.765,406.707C742.666,406.707 739.151,403.973 739.151,384.572L739.151,320.509L756.859,320.509C780.036,320.509 780.296,338.739 782.38,355.796L788.5,355.796C787.198,335.483 786.937,326.629 786.937,317.905C786.937,313.999 786.807,310.093 786.807,305.145C786.807,299.025 786.937,291.343 787.718,280.015L781.599,280.015C779.515,292.775 780.036,315.171 756.859,315.171L739.151,315.171L739.151,252.28C739.151,232.879 742.666,230.145 760.765,230.145L782.901,230.145C811.156,230.145 815.192,240.562 818.708,272.072L824.828,272.072C824.307,268.035 824.046,261.916 824.046,255.535C824.046,249.416 824.567,236.525 825.869,224.025C809.333,224.806 786.416,224.806 770.14,224.806C754.125,224.806 718.968,224.806 692.796,224.025L692.796,229.364C710.895,230.145 714.411,232.879 714.411,252.28L714.411,384.572C714.411,403.973 710.895,406.707 692.796,407.489L692.796,412.827C718.968,412.046 754.125,412.046 770.14,412.046C787.979,412.046 813.109,412.046 831.208,412.827C829.906,399.285 829.385,385.353 829.385,378.713Z" style="fill:white;fill-rule:nonzero;"/>
        <path d="M1010.17,222.723L1005.87,222.723L943.109,384.312C936.989,400.327 929.046,405.926 922.145,407.489L922.145,412.827C927.484,412.306 933.083,412.046 942.067,412.046C951.442,412.046 962.64,412.306 972.796,412.827L972.796,407.489C957.562,407.098 949.619,403.062 949.619,391.473C949.619,386.004 951.312,378.843 954.958,369.598L965.895,341.343L1030.22,341.343L1046.62,385.093C1048.71,390.431 1049.75,394.468 1049.75,397.593C1049.75,405.015 1043.76,406.968 1030.87,407.489L1030.87,412.827C1038.42,412.306 1051.18,412.046 1064.98,412.046C1075.14,412.046 1086.34,412.306 1093.63,412.827L1093.63,407.489C1088.03,407.228 1080.48,403.973 1075.14,390.431L1010.17,222.723ZM1028.27,336.004L967.849,336.004L998.448,256.447L1028.27,336.004Z" style="fill:white;fill-rule:nonzero;"/>
        <path d="M1338.6,396.551C1333.66,402.801 1330.53,406.707 1324.02,406.707C1316.6,406.707 1313.6,400.327 1310.35,384.832L1303.71,357.619C1298.63,335.483 1290.04,326.369 1266.34,322.463L1263.08,321.942C1303.32,315.692 1314.91,289.129 1314.91,270.64C1314.91,244.598 1293.55,224.285 1250.58,224.285C1244.2,224.285 1227.14,224.806 1210.35,224.806C1198.63,224.806 1185.22,224.546 1177.8,224.025L1177.8,229.364C1195.89,230.145 1199.41,232.879 1199.41,252.28L1199.41,384.572C1199.41,403.973 1195.89,406.707 1177.8,407.489L1177.8,412.827C1185.22,412.306 1198.11,412.046 1211.91,412.046C1224.15,412.046 1237.56,412.306 1245.77,412.827L1245.77,407.489C1227.67,406.707 1224.15,403.973 1224.15,384.572L1224.15,323.244L1249.54,323.244C1270.63,323.244 1274.54,338.478 1279.62,361.134L1285.48,387.697C1290.56,410.483 1300.71,416.603 1314.12,416.603C1328.45,416.603 1335.09,410.483 1342.64,399.546L1338.6,396.551ZM1243.94,229.364C1276.23,229.364 1288.21,245.64 1288.21,273.634C1288.21,298.114 1279.88,317.905 1242.12,317.905L1224.15,317.905L1224.15,252.28C1224.15,233.921 1227.67,229.364 1243.94,229.364Z" style="fill:white;fill-rule:nonzero;"/>
        <path d="M1487.61,221.03C1461.31,221.03 1437.48,235.744 1437.48,267.254C1437.48,297.332 1459.62,311.785 1485.01,327.02C1509.75,341.864 1526.55,354.103 1526.55,375.718C1526.55,400.848 1509.23,411.265 1491.91,411.265C1457.8,411.265 1445.56,383.009 1443.34,350.718L1437.22,350.718C1437.22,388.348 1436.96,403.713 1436.18,414.65L1442.3,414.65C1443.34,406.968 1444.78,402.931 1448.16,402.931C1450.38,402.931 1452.98,403.973 1457.28,406.707C1464.96,411.525 1474.85,416.603 1493.73,416.603C1524.72,416.603 1550.38,399.806 1550.38,365.952C1550.38,337.306 1530.06,323.244 1502.33,305.926C1478.37,290.952 1457.54,281.317 1457.54,257.098C1457.54,238.739 1471.08,226.108 1490.09,226.108C1519.64,226.108 1531.88,252.02 1533.84,277.41L1539.96,277.41C1539.96,243.817 1540.48,232.358 1541.26,222.983L1535.14,222.983C1534.1,230.666 1532.67,234.702 1529.28,234.702C1526.81,234.702 1524.46,233.66 1520.17,230.926C1513.01,226.108 1505.19,221.03 1487.61,221.03Z" style="fill:white;fill-rule:nonzero;"/>
    </g>
    <g transform="matrix(1.15051,0,0,1.15051,-249.77,-297.705)">
        <path d="M547.724,335.904C546.027,340.466 544.7,342.376 543.427,342.376C542.897,342.376 542.366,342.005 541.783,341.421C538.387,337.867 534.939,334.365 525.549,334.365C498.175,334.365 478.175,364.127 478.175,388.795C478.175,405.665 487.565,414.366 503.533,414.366C513.082,414.366 518.069,411.183 524.064,407.31C525.019,406.673 525.761,406.355 526.345,406.355C527.194,406.355 527.618,407.151 527.618,409.114C527.618,410.122 527.512,411.289 527.3,412.827L529.687,412.827C530.695,407.31 532.499,399.883 536.106,386.726L533.719,386.726C530.217,395.214 527.83,399.989 523.958,403.915C518.493,409.485 510.695,412.403 504.594,412.403C495.045,412.403 489.05,405.347 489.05,391.076C489.05,366.885 506.557,336.328 525.337,336.328C531.332,336.328 536.849,339.405 539.607,344.816C540.722,347.15 541.305,349.909 541.305,353.464C541.305,355.639 541.093,358.079 540.668,360.891L543.056,360.891C545.549,349.273 547.83,341.58 550.005,335.904L547.724,335.904Z" style="fill:white;fill-rule:nonzero;"/>
        <path d="M626.154,336.222C619.629,336.222 605.305,336.222 594.642,335.904L594.112,338.079C599.311,338.291 601.38,338.928 601.38,342.111C601.38,343.437 601.061,345.135 600.425,347.416L585.995,401.315C583.82,409.22 582.175,410.334 574.801,410.652L574.218,412.827C584.775,412.509 599.098,412.509 605.624,412.509C612.892,412.509 623.13,412.509 630.504,412.827C631.406,407.31 632.679,401.633 633.422,398.928C634.218,395.904 635.067,393.039 635.863,391.076L633.316,391.076C628.011,405.453 623.979,410.334 610.398,410.334L602.494,410.334C597.242,410.334 595.12,409.75 595.12,406.567C595.12,405.294 595.438,403.596 596.075,401.315L603.077,375.214L610.186,375.214C616.181,375.214 617.666,378.238 617.666,382.217C617.666,384.498 617.189,387.045 616.817,389.591L619.311,389.591C620.955,381.315 621.804,377.708 622.812,374.153C623.767,370.546 624.563,366.991 627.268,358.716L624.775,358.716C622.494,363.914 620.319,373.039 610.823,373.039L603.661,373.039L610.504,347.416C612.679,339.511 614.324,338.397 621.698,338.397L629.656,338.397C637.985,338.397 640.584,340.625 640.584,346.726C640.584,349.06 640.213,351.925 639.629,355.479L642.123,355.479C642.335,353.835 642.918,351.341 643.661,348.742C644.298,346.249 645.942,340.997 647.799,335.904C641.38,336.222 632.467,336.222 626.154,336.222Z" style="fill:white;fill-rule:nonzero;"/>
        <path d="M732.542,390.015C726.972,405.135 722.834,410.334 709.253,410.334L701.348,410.334C696.096,410.334 693.974,409.75 693.974,406.567C693.974,405.294 694.293,403.596 694.929,401.315L709.359,347.416C711.534,339.511 713.179,338.397 720.659,338.079L721.242,335.904C717.847,336.116 712.436,336.222 707.396,336.222C701.773,336.222 696.574,336.116 693.497,335.904L692.966,338.079C698.165,338.291 700.234,338.928 700.234,342.111C700.234,343.437 699.916,345.135 699.279,347.416L684.849,401.315C682.674,409.22 681.03,410.334 673.656,410.652L673.072,412.827C683.629,412.509 697.953,412.509 704.478,412.509C711.746,412.509 721.985,412.509 729.359,412.827C730.261,407.31 731.534,401.633 732.277,398.928C733.285,395.427 734.134,392.297 735.035,390.015L732.542,390.015Z" style="fill:white;fill-rule:nonzero;"/>
        <path d="M821.264,336.222C814.739,336.222 800.415,336.222 789.752,335.904L789.221,338.079C794.42,338.291 796.489,338.928 796.489,342.111C796.489,343.437 796.171,345.135 795.534,347.416L781.105,401.315C778.929,409.22 777.285,410.334 769.911,410.652L769.327,412.827C779.884,412.509 794.208,412.509 800.733,412.509C808.001,412.509 818.24,412.509 825.614,412.827C826.516,407.31 827.789,401.633 828.532,398.928C829.328,395.904 830.176,393.039 830.972,391.076L828.426,391.076C823.121,405.453 819.089,410.334 805.508,410.334L797.603,410.334C792.351,410.334 790.229,409.75 790.229,406.567C790.229,405.294 790.548,403.596 791.184,401.315L798.187,375.214L805.296,375.214C811.29,375.214 812.776,378.238 812.776,382.217C812.776,384.498 812.298,387.045 811.927,389.591L814.42,389.591C816.065,381.315 816.914,377.708 817.922,374.153C818.877,370.546 819.672,366.991 822.378,358.716L819.885,358.716C817.603,363.914 815.428,373.039 805.932,373.039L798.77,373.039L805.614,347.416C807.789,339.511 809.434,338.397 816.808,338.397L824.765,338.397C833.094,338.397 835.694,340.625 835.694,346.726C835.694,349.06 835.322,351.925 834.739,355.479L837.232,355.479C837.444,353.835 838.028,351.341 838.771,348.742C839.407,346.249 841.052,340.997 842.909,335.904C836.489,336.222 827.577,336.222 821.264,336.222Z" style="fill:white;fill-rule:nonzero;"/>
        <path d="M914.919,372.19C926.007,368.742 937.201,361.103 937.201,349.909C937.201,341.58 930.569,336.01 916.776,336.01C911.312,336.01 906.431,336.222 901.445,336.222C896.67,336.222 891.471,336.116 888.5,335.904L887.97,338.079C893.646,338.132 895.291,339.458 895.291,342.217C895.291,343.596 894.919,345.294 894.389,347.416L880.065,401.315C877.996,409.22 876.246,410.334 868.872,410.652L868.394,412.827C871.471,412.615 876.564,412.509 881.657,412.509C889.19,412.509 894.813,412.827 900.384,412.827C915.981,412.827 932.745,405.453 932.745,389.909C932.745,381.421 928.182,374.365 914.919,372.19ZM897.89,371.978L904.787,345.771C906.431,339.511 908.288,338.079 914.707,338.079C922.983,338.079 926.431,342.217 926.431,350.705C926.431,361.846 918.156,371.978 905.052,371.978L897.89,371.978ZM895.662,410.334C890.728,410.334 889.137,409.273 889.137,406.62C889.137,405.294 889.561,403.543 890.145,401.315L897.413,373.835L906.325,373.835C917.201,373.835 921.869,379.14 921.869,388.265C921.869,402.27 914.707,410.334 895.662,410.334Z" style="fill:white;fill-rule:nonzero;"/>
        <path d="M1037.54,399.671L1037.01,401.209C1034.94,406.992 1033.14,410.334 1030.49,410.334C1027.78,410.334 1027.04,407.204 1027.04,403.649C1027.04,402.907 1027.09,402.164 1027.14,401.421L1027.99,390.334C1028.05,389.538 1028.1,388.795 1028.1,388.053C1028.1,380.095 1024.01,377.495 1016.06,376.01C1014.84,375.798 1013.67,375.586 1012.24,375.426C1029.53,372.562 1040.62,363.278 1040.62,351.341C1040.62,342.111 1033.56,336.01 1018.97,336.01C1013.56,336.01 1008.36,336.222 1003.11,336.222C998.336,336.222 992.713,336.116 989.742,335.904L989.212,338.079C994.729,338.132 996.586,339.299 996.586,342.323C996.586,343.649 996.214,345.294 995.631,347.416L981.307,401.315C979.238,409.22 977.487,410.334 970.113,410.652L969.636,412.827C972.713,412.615 978.124,412.509 983.8,412.509C988.787,412.509 993.88,412.615 997.275,412.827L997.7,410.652C992.023,410.599 990.273,409.432 990.273,406.62C990.273,405.241 990.697,403.49 991.281,401.315L997.912,376.328C1014.25,376.434 1017.97,379.564 1017.97,388.371C1017.97,389.432 1017.91,390.546 1017.81,391.766L1016.9,403.915C1016.9,404.233 1016.85,404.551 1016.85,404.87C1016.85,409.803 1019.93,414.366 1026.72,414.366C1033.56,414.366 1037.12,409.909 1039.61,401.103L1040.09,399.671L1037.54,399.671ZM998.495,374.153L1005.6,347.416C1007.57,340.042 1009.42,338.079 1015.84,338.079C1025.6,338.079 1029.64,342.217 1029.64,350.705C1029.64,363.702 1022.58,374.153 1001.84,374.153L998.495,374.153Z" style="fill:white;fill-rule:nonzero;"/>
        <path d="M1128.38,335.373L1126.79,335.373L1079.95,401.209C1075.49,407.522 1071.99,410.015 1069.07,410.652L1068.54,412.827C1070.83,412.615 1073,412.509 1076.66,412.509C1080.48,412.509 1085.04,412.615 1089.07,412.827L1089.61,410.652C1084.46,410.546 1081.59,409.22 1081.59,406.037C1081.59,403.596 1083.24,400.095 1086.69,395.214L1094.86,383.702L1121.54,383.702L1122.55,401.527C1122.87,408.901 1120.16,410.334 1113.21,410.652L1112.74,412.827C1115.6,412.615 1120.59,412.509 1125.79,412.509C1129.92,412.509 1134.7,412.615 1137.62,412.827L1138.09,410.652C1135.92,410.546 1133.16,408.901 1132.74,403.702L1128.38,335.373ZM1121.43,381.527L1096.39,381.527L1119.63,348.689L1121.43,381.527Z" style="fill:white;fill-rule:nonzero;"/>
        <path d="M1252.6,324.073C1248.88,324.073 1247.29,327.097 1247.29,330.015C1247.29,332.615 1248.57,334.684 1249.94,336.116C1246.39,337.92 1242.25,338.503 1235.99,338.503C1223.37,338.503 1213.13,335.479 1200.24,335.479C1197.74,335.479 1190.53,335.585 1185.65,337.973C1181.19,340.148 1179.92,343.49 1179.92,346.461C1179.92,349.697 1181.51,351.872 1184.69,351.872C1188.51,351.872 1190.1,348.53 1190.1,345.559C1190.1,343.384 1189.26,340.784 1188.14,339.299C1190.42,337.761 1195.78,337.442 1200.34,337.442C1204.9,337.442 1209.57,337.973 1214.35,338.662L1197.95,400.201C1195.57,408.053 1193.29,410.334 1184.16,410.652L1183.68,412.827C1187.19,412.615 1193.39,412.509 1199.55,412.509C1205.75,412.509 1211.96,412.615 1215.78,412.827L1216.2,410.652C1209.57,410.493 1207.08,409.485 1207.08,405.718C1207.08,404.286 1207.4,402.482 1208.04,400.201L1224.06,339.936C1227.72,340.36 1231.43,340.678 1235.2,340.678C1243.05,340.678 1248.67,339.405 1252.38,337.124C1255.2,335.373 1257.48,332.668 1257.48,329.272C1257.48,326.461 1255.94,324.073 1252.6,324.073Z" style="fill:white;fill-rule:nonzero;"/>
        <path d="M1305.72,347.416C1307.79,339.511 1309.44,338.397 1316.92,338.079L1317.45,335.904C1314,336.116 1308.59,336.222 1303.55,336.222C1297.92,336.222 1292.73,336.116 1289.75,335.904L1289.22,338.079C1294.42,338.291 1296.55,338.928 1296.55,342.217C1296.55,343.49 1296.23,345.188 1295.64,347.416L1281.32,401.315C1279.25,409.22 1277.5,410.334 1270.34,410.652L1269.75,412.827C1272.94,412.615 1277.92,412.509 1283.6,412.509C1288.59,412.509 1294,412.615 1297.39,412.827L1297.82,410.652C1292.57,410.44 1290.5,409.803 1290.5,406.567C1290.5,405.294 1290.82,403.596 1291.4,401.315L1305.72,347.416Z" style="fill:white;fill-rule:nonzero;"/>
        <path d="M1431.21,330.917C1425.9,330.917 1422.19,333.941 1419.48,337.867C1412.64,347.787 1406.22,373.57 1401.24,395.957L1380.7,335.904C1378.21,336.116 1375.13,336.222 1371.9,336.222C1368.08,336.222 1364.52,336.116 1362.19,335.904L1361.66,338.079C1367.97,338.291 1370.04,338.981 1370.04,342.588C1370.04,343.278 1369.99,344.074 1369.83,345.028C1363.46,378.026 1357.52,403.649 1351.58,412.933C1349.4,416.435 1346.49,418.451 1342.56,418.61L1342.24,418.61C1344.05,416.859 1345.69,414.26 1345.69,411.766C1345.69,409.909 1344.84,407.522 1341.55,407.522C1337.36,407.522 1335.19,411.607 1335.19,415.214C1335.19,418.238 1336.57,420.891 1341.66,420.891C1347.44,420.891 1350.68,417.496 1353.33,414.047C1359.7,405.506 1366.81,372.35 1372.43,343.384L1397.2,413.358L1399.59,413.358C1408.08,373.304 1414.82,348.636 1421.45,338.715C1423.62,335.479 1426.33,333.304 1430.36,333.198L1430.68,333.198C1428.82,334.949 1427.18,337.548 1427.18,340.042C1427.18,341.898 1428.08,344.286 1431.31,344.286C1435.56,344.286 1437.73,340.042 1437.73,336.434C1437.73,333.516 1436.19,330.917 1431.21,330.917Z" style="fill:white;fill-rule:nonzero;"/>
        <path d="M1492.5,412.191C1479.82,412.191 1473.72,406.09 1473.72,393.039C1473.72,372.721 1486.4,336.328 1510.54,336.328C1517.81,336.328 1524.23,339.511 1527.3,344.816C1528.47,347.097 1528.79,349.697 1528.79,352.721C1528.79,355.373 1528.58,358.079 1528.26,360.891L1530.65,360.891C1533.14,349.273 1535.42,341.58 1537.6,335.904L1535.21,335.904C1533.62,340.519 1532.29,342.429 1530.91,342.429C1530.28,342.429 1529.64,342.058 1529,341.421C1525.02,337.548 1520.67,334.365 1511.18,334.365C1482.85,334.365 1463.59,364.922 1463.59,389.485C1463.59,405.347 1473.19,414.366 1490.96,414.366C1498.07,414.366 1503.8,412.084 1509.48,408.477C1512.08,406.832 1512.71,406.62 1513.56,406.62C1514.78,406.62 1515.21,408.212 1515.21,409.962C1515.21,410.917 1515.05,411.978 1514.89,412.827L1517.07,412.827L1522.85,391.289C1525.02,383.278 1525.98,382.323 1530.86,381.952L1531.39,379.777C1528.79,380.042 1524.76,380.148 1519.98,380.148C1515.1,380.148 1508.58,380.042 1504.81,379.777L1504.23,381.952C1510.81,382.217 1513.35,382.96 1513.35,386.779C1513.35,388.212 1513.03,390.015 1512.4,392.403L1509.9,401.952C1509.16,404.657 1508.05,406.939 1504.92,408.795C1502.26,410.334 1497.7,412.191 1492.5,412.191Z" style="fill:white;fill-rule:nonzero;"/>
    </g>
</svg>
