<?xml version="1.0" encoding="UTF-8" standalone="no"?><!DOCTYPE svg PUBLIC "-//W3C//DTD SVG 1.1//EN" "http://www.w3.org/Graphics/SVG/1.1/DTD/svg11.dtd"><svg width="100%" height="100%" viewBox="0 0 204 84" version="1.1" xmlns="http://www.w3.org/2000/svg" xmlns:xlink="http://www.w3.org/1999/xlink" xml:space="preserve" xmlns:serif="http://www.serif.com/" style="fill-rule:evenodd;clip-rule:evenodd;stroke-linejoin:round;stroke-miterlimit:1.5;"><g><g><path d="M14.505,21.817c-0.608,0 -1.334,-0.017 -1.992,-0.051l0,0.346c1.004,0.025 1.477,0.279 1.477,1.064c0,0.354 -0.093,0.81 -0.278,1.393l-2.136,6.687l-2.483,-7.692c-0.118,-0.363 -0.177,-0.633 -0.177,-0.836c0,-0.532 0.414,-0.582 1.182,-0.616l0,-0.346c-0.49,0.034 -1.317,0.051 -2.212,0.051c-0.591,0 -1.267,-0.017 -1.68,-0.051l0,0.346c0.312,0.017 0.726,0.211 1.021,1.106l0.456,1.359l-2.094,6.696l-2.532,-7.709c-0.119,-0.363 -0.186,-0.641 -0.186,-0.853c0,-0.396 0.245,-0.557 0.844,-0.599l0,-0.346c-0.414,0.034 -1.106,0.051 -1.866,0.051c-0.658,0 -1.384,-0.017 -1.849,-0.051l0,0.346c0.363,0.017 0.878,0.211 1.191,1.106l3.664,10.875l0.279,0l2.752,-8.908l3.006,8.908l0.278,0l3.268,-10.478c0.329,-1.055 0.912,-1.402 1.367,-1.503l0,-0.346c-0.346,0.034 -0.709,0.051 -1.3,0.051Z" style="fill:#fff;fill-rule:nonzero;"/><path d="M23.823,21.681l-0.279,0l-4.069,10.478c-0.397,1.039 -0.912,1.402 -1.36,1.503l0,0.346c0.347,-0.034 0.71,-0.05 1.292,-0.05c0.608,0 1.334,0.016 1.993,0.05l0,-0.346c-0.988,-0.025 -1.503,-0.287 -1.503,-1.038c0,-0.355 0.11,-0.819 0.346,-1.419l0.709,-1.832l4.171,0l1.064,2.837c0.135,0.346 0.203,0.608 0.203,0.81c0,0.482 -0.389,0.608 -1.225,0.642l0,0.346c0.49,-0.034 1.317,-0.05 2.212,-0.05c0.659,0 1.385,0.016 1.858,0.05l0,-0.346c-0.363,-0.017 -0.853,-0.228 -1.199,-1.106l-4.213,-10.875Zm1.173,7.346l-3.917,0l1.984,-5.159l1.933,5.159Z" style="fill:#fff;fill-rule:nonzero;"/><path d="M43.39,32.953c-0.32,0.405 -0.523,0.658 -0.945,0.658c-0.482,0 -0.676,-0.413 -0.887,-1.418l-0.43,-1.765c-0.33,-1.435 -0.887,-2.026 -2.424,-2.279l-0.211,-0.034c2.609,-0.405 3.361,-2.128 3.361,-3.327c0,-1.688 -1.385,-3.005 -4.171,-3.005c-0.414,0 -1.52,0.034 -2.609,0.034c-0.76,0 -1.629,-0.017 -2.111,-0.051l0,0.346c1.174,0.051 1.402,0.228 1.402,1.486l0,8.578c0,1.258 -0.228,1.435 -1.402,1.486l0,0.346c0.482,-0.034 1.317,-0.05 2.212,-0.05c0.794,0 1.664,0.016 2.196,0.05l0,-0.346c-1.174,-0.051 -1.402,-0.228 -1.402,-1.486l0,-3.977l1.646,0c1.368,0 1.621,0.988 1.951,2.457l0.38,1.723c0.329,1.477 0.987,1.874 1.857,1.874c0.929,0 1.359,-0.397 1.849,-1.106l-0.262,-0.194Zm-6.138,-10.841c2.094,0 2.871,1.055 2.871,2.871c0,1.587 -0.54,2.87 -2.989,2.87l-1.165,0l0,-4.255c0,-1.19 0.228,-1.486 1.283,-1.486Z" style="fill:#fff;fill-rule:nonzero;"/><path d="M64.035,31.796c0,-0.481 0.017,-0.937 0.051,-1.249l-0.397,0c-0.245,2.288 -0.675,3.064 -2.837,3.064l-1.266,0c-1.174,0 -1.402,-0.177 -1.402,-1.435l0,-4.154l1.148,0c1.503,0 1.52,1.182 1.655,2.288l0.397,0c-0.084,-1.317 -0.101,-1.891 -0.101,-2.457c0,-0.253 -0.009,-0.506 -0.009,-0.827c0,-0.397 0.009,-0.895 0.059,-1.63l-0.396,0c-0.135,0.828 -0.102,2.28 -1.605,2.28l-1.148,0l0,-4.078c0,-1.258 0.228,-1.435 1.402,-1.435l1.435,0c1.832,0 2.094,0.675 2.322,2.718l0.397,0c-0.034,-0.261 -0.051,-0.658 -0.051,-1.072c0,-0.397 0.034,-1.233 0.118,-2.043c-1.072,0.051 -2.558,0.051 -3.613,0.051c-1.039,0 -3.318,0 -5.016,-0.051l0,0.346c1.174,0.051 1.402,0.228 1.402,1.486l0,8.578c0,1.258 -0.228,1.435 -1.402,1.486l0,0.346c1.698,-0.05 3.977,-0.05 5.016,-0.05c1.156,0 2.786,0 3.959,0.05c-0.084,-0.878 -0.118,-1.781 -0.118,-2.212Z" style="fill:#fff;fill-rule:nonzero;"/><path d="M80.023,21.766c-0.38,0.034 -1.022,0.051 -1.604,0.051c-0.591,0 -1.351,-0.017 -1.765,-0.051l0,0.346c1.351,0.051 1.57,0.397 1.57,1.663l0,7.396l-6.104,-9.405c-0.38,0.034 -0.844,0.051 -1.351,0.051c-0.582,0 -1.224,-0.017 -1.604,-0.051l0,0.346c1.174,0.051 1.402,0.228 1.402,1.486l0,8.401c0,1.266 -0.228,1.612 -1.402,1.663l0,0.346c0.38,-0.034 1.022,-0.05 1.604,-0.05c0.591,0 1.351,0.016 1.765,0.05l0,-0.346c-1.343,-0.051 -1.571,-0.397 -1.571,-1.663l0,-9.127l7.261,11.221l0.397,0l0,-10.318c0,-1.266 0.228,-1.612 1.402,-1.663l0,-0.346Z" style="fill:#fff;fill-rule:nonzero;"/><path d="M90.404,21.521c-3.217,0 -5.496,2.6 -5.496,6.467c0,3.96 2.195,6.265 5.479,6.265c1.486,0 2.348,-0.523 3.2,-1.123c0.144,-0.093 0.262,-0.143 0.355,-0.143c0.245,0 0.363,0.312 0.422,1.021l0.397,0c-0.051,-0.878 -0.068,-2.06 -0.068,-4.154l-0.397,0c-0.177,1.402 -0.295,2.06 -0.802,2.736c-0.65,0.937 -1.916,1.317 -2.955,1.317c-2.229,0 -3.909,-2.128 -3.909,-5.986c0,-3.749 1.486,-6.088 3.74,-6.088c1.191,0 2.331,0.414 3.057,1.351c0.49,0.625 0.625,1.089 0.869,2.559l0.397,0c0,-2.01 0.017,-3.133 0.068,-3.977l-0.397,0c-0.059,0.709 -0.203,1.03 -0.439,1.03c-0.101,0 -0.211,-0.051 -0.338,-0.152c-0.76,-0.583 -1.663,-1.123 -3.183,-1.123Z" style="fill:#fff;fill-rule:nonzero;"/><path d="M104.931,21.681l-0.279,0l-4.069,10.478c-0.397,1.039 -0.912,1.402 -1.359,1.503l0,0.346c0.346,-0.034 0.709,-0.05 1.292,-0.05c0.608,0 1.334,0.016 1.992,0.05l0,-0.346c-0.988,-0.025 -1.503,-0.287 -1.503,-1.038c0,-0.355 0.11,-0.819 0.346,-1.419l0.709,-1.832l4.171,0l1.065,2.837c0.134,0.346 0.202,0.608 0.202,0.81c0,0.482 -0.389,0.608 -1.224,0.642l0,0.346c0.489,-0.034 1.317,-0.05 2.211,-0.05c0.659,0 1.386,0.016 1.858,0.05l0,-0.346c-0.363,-0.017 -0.852,-0.228 -1.199,-1.106l-4.213,-10.875Zm1.174,7.346l-3.917,0l1.983,-5.159l1.934,5.159Z" style="fill:#fff;fill-rule:nonzero;"/><path d="M127.682,21.766c-0.54,0.034 -1.402,0.051 -2.195,0.051l-0.819,0l-3.715,9.979l-3.8,-10.03c-0.38,0.034 -0.97,0.051 -1.477,0.051c-0.583,0 -1.224,-0.017 -1.604,-0.051l0,0.346c1.173,0.051 1.401,0.228 1.401,1.486l0,8.401c0,1.266 -0.228,1.612 -1.401,1.663l0,0.346c0.38,-0.034 1.021,-0.05 1.604,-0.05c0.591,0 1.351,0.016 1.765,0.05l0,-0.346c-1.343,-0.051 -1.571,-0.397 -1.571,-1.663l0,-9.127l4.356,11.221l0.279,0l4.163,-11.17l0,9.253c0,1.258 -0.22,1.435 -1.393,1.486l0,0.346c0.481,-0.034 1.308,-0.05 2.212,-0.05c0.793,0 1.655,0.016 2.195,0.05l0,-0.346c-1.174,-0.051 -1.402,-0.228 -1.402,-1.486l0,-8.578c0,-1.258 0.228,-1.435 1.402,-1.486l0,-0.346Z" style="fill:#fff;fill-rule:nonzero;"/><path d="M135.598,29.061l1.334,0c3.58,0 4.551,-2.196 4.551,-3.867c0,-2.01 -1.385,-3.411 -4.171,-3.411c-0.414,0 -1.52,0.034 -2.609,0.034c-0.76,0 -1.63,-0.017 -2.111,-0.051l0,0.346c1.174,0.051 1.402,0.228 1.402,1.486l0,8.578c0,1.258 -0.228,1.435 -1.402,1.486l0,0.346c0.481,-0.034 1.317,-0.05 2.212,-0.05c0.937,0 1.942,0.016 2.542,0.05l0,-0.346c-1.452,-0.051 -1.748,-0.228 -1.748,-1.486l0,-3.115Zm1.283,-6.949c2.094,0 2.871,1.089 2.871,3.267c0,1.765 -0.541,3.335 -2.989,3.335l-1.165,0l0,-5.116c0,-1.19 0.228,-1.486 1.283,-1.486Z" style="fill:#fff;fill-rule:nonzero;"/><path d="M159.775,21.766c-0.54,0.034 -1.401,0.051 -2.195,0.051l-0.819,0l-3.715,9.979l-3.799,-10.03c-0.38,0.034 -0.971,0.051 -1.478,0.051c-0.582,0 -1.224,-0.017 -1.604,-0.051l0,0.346c1.174,0.051 1.402,0.228 1.402,1.486l0,8.401c0,1.266 -0.228,1.612 -1.402,1.663l0,0.346c0.38,-0.034 1.022,-0.05 1.604,-0.05c0.591,0 1.351,0.016 1.765,0.05l0,-0.346c-1.342,-0.051 -1.571,-0.397 -1.571,-1.663l0,-9.127l4.357,11.221l0.278,0l4.163,-11.17l0,9.253c0,1.258 -0.219,1.435 -1.393,1.486l0,0.346c0.481,-0.034 1.309,-0.05 2.212,-0.05c0.794,0 1.655,0.016 2.195,0.05l0,-0.346c-1.174,-0.051 -1.401,-0.228 -1.401,-1.486l0,-8.578c0,-1.258 0.227,-1.435 1.401,-1.486l0,-0.346Z" style="fill:#fff;fill-rule:nonzero;"/><path d="M173.542,31.796c0,-0.481 0.017,-0.937 0.051,-1.249l-0.397,0c-0.244,2.288 -0.675,3.064 -2.836,3.064l-1.267,0c-1.173,0 -1.402,-0.177 -1.402,-1.435l0,-4.154l1.149,0c1.503,0 1.52,1.182 1.655,2.288l0.396,0c-0.084,-1.317 -0.101,-1.891 -0.101,-2.457c0,-0.253 -0.008,-0.506 -0.008,-0.827c0,-0.397 0.008,-0.895 0.059,-1.63l-0.397,0c-0.136,0.828 -0.101,2.28 -1.604,2.28l-1.149,0l0,-4.078c0,-1.258 0.229,-1.435 1.402,-1.435l1.435,0c1.832,0 2.094,0.675 2.322,2.718l0.397,0c-0.034,-0.261 -0.051,-0.658 -0.051,-1.072c0,-0.397 0.034,-1.233 0.118,-2.043c-1.072,0.051 -2.557,0.051 -3.613,0.051c-1.039,0 -3.318,0 -5.015,-0.051l0,0.346c1.173,0.051 1.401,0.228 1.401,1.486l0,8.578c0,1.258 -0.228,1.435 -1.401,1.486l0,0.346c1.697,-0.05 3.976,-0.05 5.015,-0.05c1.157,0 2.786,0 3.959,0.05c-0.084,-0.878 -0.118,-1.781 -0.118,-2.212Z" style="fill:#fff;fill-rule:nonzero;"/><path d="M189.53,21.766c-0.38,0.034 -1.021,0.051 -1.604,0.051c-0.591,0 -1.351,-0.017 -1.765,-0.051l0,0.346c1.351,0.051 1.571,0.397 1.571,1.663l0,7.396l-6.105,-9.405c-0.379,0.034 -0.844,0.051 -1.351,0.051c-0.582,0 -1.224,-0.017 -1.604,-0.051l0,0.346c1.174,0.051 1.402,0.228 1.402,1.486l0,8.401c0,1.266 -0.228,1.612 -1.402,1.663l0,0.346c0.38,-0.034 1.022,-0.05 1.604,-0.05c0.592,0 1.351,0.016 1.765,0.05l0,-0.346c-1.342,-0.051 -1.57,-0.397 -1.57,-1.663l0,-9.127l7.261,11.221l0.397,0l0,-10.318c0,-1.266 0.227,-1.612 1.401,-1.663l0,-0.346Z" style="fill:#fff;fill-rule:nonzero;"/><path d="M203.846,21.766c-1.435,0.051 -3.436,0.051 -4.854,0.051c-1.419,0 -3.445,0 -4.881,-0.051c0.093,0.878 0.127,1.781 0.127,2.212c0,0.557 -0.017,1.055 -0.051,1.418l0.397,0c0.237,-2.406 0.498,-3.233 2.66,-3.233l0.937,0l0,9.836c0,1.401 -0.296,1.612 -1.748,1.663l0,0.346c0.549,-0.034 1.52,-0.05 2.559,-0.05c0.937,0 1.933,0.016 2.541,0.05l0,-0.346c-1.453,-0.051 -1.748,-0.262 -1.748,-1.663l0,-9.836l0.937,0c2.162,0 2.414,0.827 2.66,3.233l0.396,0c-0.033,-0.363 -0.05,-0.861 -0.05,-1.418c0,-0.431 0.034,-1.334 0.118,-2.212Z" style="fill:#fff;fill-rule:nonzero;"/></g><g><path d="M8.905,0.199c-0.871,0.041 -2.078,0.041 -2.936,0.041c-0.843,0 -2.695,0 -4.074,-0.041l0,0.281c0.953,0.041 1.139,0.185 1.139,1.207l0,6.97c0,1.022 -0.186,1.166 -1.139,1.207l0,0.281c0.391,-0.027 1.07,-0.041 1.797,-0.041c0.761,0 1.578,0.014 2.065,0.041l0,-0.281c-1.18,-0.041 -1.42,-0.185 -1.42,-1.207l0,-3.231l1.029,0c1.221,0 1.235,0.953 1.344,1.852l0.33,0c-0.076,-1.063 -0.09,-1.53 -0.09,-1.996c0,-0.206 -0.007,-0.412 -0.007,-0.666c0,-0.329 0.007,-0.733 0.048,-1.323l-0.322,0c-0.11,0.672 -0.082,1.852 -1.303,1.852l-1.029,0l0,-3.458c0,-1.022 0.185,-1.166 1.139,-1.166l0.884,0c1.756,0 1.969,0.673 2.168,2.628l0.322,0c-0.027,-0.295 -0.041,-0.7 -0.041,-1.153c0,-0.35 0.028,-1.084 0.096,-1.797Z" style="fill:#fff;fill-rule:nonzero;"/><path d="M23.977,9.288c-0.261,0.329 -0.425,0.535 -0.768,0.535c-0.391,0 -0.549,-0.336 -0.721,-1.153l-0.349,-1.433c-0.268,-1.166 -0.721,-1.647 -1.969,-1.852l-0.171,-0.028c2.119,-0.329 2.73,-1.728 2.73,-2.702c0,-1.372 -1.125,-2.442 -3.389,-2.442c-0.336,0 -1.235,0.027 -2.12,0.027c-0.617,0 -1.324,-0.014 -1.714,-0.041l0,0.281c0.953,0.041 1.138,0.185 1.138,1.207l0,6.97c0,1.022 -0.185,1.166 -1.138,1.207l0,0.281c0.39,-0.027 1.07,-0.041 1.797,-0.041c0.645,0 1.351,0.014 1.783,0.041l0,-0.281c-0.953,-0.041 -1.138,-0.185 -1.138,-1.207l0,-3.231l1.337,0c1.111,0 1.317,0.802 1.585,1.996l0.308,1.399c0.268,1.201 0.803,1.523 1.509,1.523c0.755,0 1.105,-0.322 1.503,-0.898l-0.213,-0.158Zm-4.987,-8.808c1.701,0 2.332,0.858 2.332,2.332c0,1.29 -0.439,2.333 -2.428,2.333l-0.946,0l0,-3.458c0,-0.967 0.185,-1.207 1.042,-1.207Z" style="fill:#fff;fill-rule:nonzero;"/><path d="M37.423,8.348c0,-0.391 0.014,-0.761 0.041,-1.015l-0.322,0c-0.199,1.859 -0.549,2.49 -2.305,2.49l-1.029,0c-0.953,0 -1.139,-0.144 -1.139,-1.166l0,-3.375l0.933,0c1.221,0 1.235,0.96 1.345,1.859l0.322,0c-0.068,-1.07 -0.082,-1.537 -0.082,-1.996c0,-0.206 -0.007,-0.412 -0.007,-0.673c0,-0.322 0.007,-0.727 0.048,-1.323l-0.322,0c-0.11,0.672 -0.083,1.852 -1.304,1.852l-0.933,0l0,-3.314c0,-1.022 0.186,-1.166 1.139,-1.166l1.166,0c1.489,0 1.701,0.549 1.887,2.209l0.322,0c-0.027,-0.213 -0.041,-0.535 -0.041,-0.871c0,-0.322 0.027,-1.002 0.096,-1.66c-0.871,0.041 -2.079,0.041 -2.936,0.041c-0.844,0 -2.696,0 -4.075,-0.041l0,0.281c0.954,0.041 1.139,0.185 1.139,1.207l0,6.97c0,1.022 -0.185,1.166 -1.139,1.207l0,0.281c1.379,-0.041 3.231,-0.041 4.075,-0.041c0.94,0 2.264,0 3.217,0.041c-0.069,-0.713 -0.096,-1.447 -0.096,-1.797Z" style="fill:#fff;fill-rule:nonzero;"/><path d="M53.222,0.199c-0.309,0.027 -0.83,0.041 -1.303,0.041c-0.481,0 -1.098,-0.014 -1.434,-0.041l0,0.281c1.097,0.041 1.276,0.323 1.276,1.352l0,6.008l-4.96,-7.641c-0.308,0.027 -0.686,0.041 -1.097,0.041c-0.473,0 -0.995,-0.014 -1.303,-0.041l0,0.281c0.953,0.041 1.138,0.185 1.138,1.207l0,6.826c0,1.029 -0.185,1.31 -1.138,1.351l0,0.281c0.308,-0.027 0.83,-0.041 1.303,-0.041c0.48,0 1.097,0.014 1.433,0.041l0,-0.281c-1.09,-0.041 -1.275,-0.322 -1.275,-1.351l0,-7.415l5.899,9.116l0.322,0l0,-8.382c0,-1.029 0.185,-1.311 1.139,-1.352l0,-0.281Z" style="fill:#fff;fill-rule:nonzero;"/><path d="M64.466,0c-2.614,0 -4.466,2.113 -4.466,5.254c0,3.218 1.784,5.09 4.452,5.09c1.207,0 1.907,-0.425 2.6,-0.912c0.117,-0.076 0.213,-0.117 0.288,-0.117c0.199,0 0.295,0.254 0.343,0.83l0.322,0c-0.041,-0.713 -0.054,-1.673 -0.054,-3.375l-0.323,0c-0.144,1.139 -0.24,1.674 -0.651,2.223c-0.529,0.761 -1.558,1.07 -2.401,1.07c-1.811,0 -3.176,-1.729 -3.176,-4.863c0,-3.046 1.207,-4.946 3.039,-4.946c0.967,0 1.893,0.336 2.483,1.097c0.398,0.508 0.507,0.885 0.706,2.079l0.323,0c0,-1.633 0.013,-2.545 0.054,-3.231l-0.322,0c-0.048,0.576 -0.165,0.837 -0.357,0.837c-0.082,0 -0.171,-0.041 -0.274,-0.124c-0.617,-0.473 -1.351,-0.912 -2.586,-0.912Z" style="fill:#fff;fill-rule:nonzero;"/><path d="M84.579,0.199c-0.391,0.027 -1.063,0.041 -1.797,0.041c-0.645,0 -1.344,-0.014 -1.783,-0.041l0,0.281c0.953,0.041 1.138,0.185 1.138,1.207l0,3.314l-4.568,0l0,-3.314c0,-1.022 0.185,-1.166 1.139,-1.207l0,-0.281c-0.432,0.027 -1.139,0.041 -1.784,0.041c-0.727,0 -1.406,-0.014 -1.797,-0.041l0,0.281c0.954,0.041 1.139,0.185 1.139,1.207l0,6.97c0,1.022 -0.185,1.166 -1.139,1.207l0,0.281c0.391,-0.027 1.07,-0.041 1.797,-0.041c0.645,0 1.352,0.014 1.784,0.041l0,-0.281c-0.954,-0.041 -1.139,-0.185 -1.139,-1.207l0,-3.375l4.568,0l0,3.375c0,1.022 -0.185,1.166 -1.138,1.207l0,0.281c0.439,-0.027 1.138,-0.041 1.783,-0.041c0.734,0 1.406,0.014 1.797,0.041l0,-0.281c-0.953,-0.041 -1.138,-0.185 -1.138,-1.207l0,-6.97c0,-1.022 0.185,-1.166 1.138,-1.207l0,-0.281Z" style="fill:#fff;fill-rule:nonzero;"/><path d="M109.332,0c-0.673,0 -1.544,0.24 -1.544,0.974c0,0.473 0.377,0.7 0.741,0.7c0.425,0 0.789,-0.295 0.789,-0.686c0,-0.24 -0.137,-0.522 -0.392,-0.652c0.042,-0.082 0.193,-0.123 0.419,-0.123c0.871,0 1.632,0.617 1.632,1.42c0,0.48 -0.267,0.912 -1.206,1.351c-1.043,0.473 -2.587,0.823 -3.43,1.104c-1.277,0.439 -1.942,1.084 -1.942,2.051c0,1.166 0.947,1.647 1.743,1.647c0.747,0 1.673,-0.405 1.673,-1.208c0,-0.452 -0.295,-0.761 -0.747,-0.761c-0.432,0 -0.769,0.281 -0.769,0.734c0,0.473 0.364,0.658 0.659,0.713c-0.055,0.213 -0.59,0.309 -0.844,0.309c-0.535,0 -1.289,-0.391 -1.289,-1.125c0,-0.604 0.534,-0.954 1.234,-1.221c0.378,-0.144 0.981,-0.336 1.619,-0.535c1.242,0.501 1.413,1.536 1.413,2.037c0,1.605 -1.708,2.572 -3.69,2.572c-2.106,0 -3.766,-1.097 -3.766,-3.031c0,-1.311 0.741,-1.983 1.824,-2.305c0.227,0.096 0.673,0.308 1.029,0.308c0.234,0 0.392,-0.096 0.392,-0.267c0,-0.213 -0.227,-0.322 -0.563,-0.322c-0.171,0 -0.549,0.027 -0.871,0.082c-0.563,-0.521 -0.714,-1.077 -0.714,-1.598c0,-1.084 0.673,-1.674 1.626,-1.674c0.576,0 0.988,0.213 1.07,0.453c-0.439,0.041 -0.747,0.363 -0.747,0.768c0,0.453 0.356,0.706 0.733,0.706c0.391,0 0.789,-0.281 0.789,-0.747c0,-0.295 -0.157,-0.673 -0.521,-0.967c-0.295,-0.241 -0.748,-0.426 -1.461,-0.426c-1.564,0 -2.374,0.844 -2.374,1.756c0,0.693 0.474,1.407 1.414,1.811c-0.714,0.185 -2.593,0.961 -2.593,2.998c0,2.161 2.119,3.498 4.547,3.498c2.71,0 4.288,-1.66 4.288,-3.361c0,-1.015 -0.439,-1.921 -1.537,-2.38c0.816,-0.254 1.64,-0.522 2.086,-0.734c0.741,-0.371 1.331,-1.015 1.331,-1.969c0,-1.193 -0.899,-1.9 -2.051,-1.9Z" style="fill:#fff;fill-rule:nonzero;"/><path d="M130.571,0.199c-0.432,0.027 -1.138,0.041 -1.783,0.041c-0.727,0 -1.406,-0.014 -1.798,-0.041l0,0.281c0.954,0.041 1.139,0.185 1.139,1.207l0,6.97c0,1.022 -0.185,1.166 -1.139,1.207l0,0.281c0.392,-0.027 1.071,-0.041 1.798,-0.041c0.645,0 1.351,0.014 1.783,0.041l0,-0.281c-0.954,-0.041 -1.138,-0.185 -1.138,-1.207l0,-6.97c0,-1.022 0.184,-1.166 1.138,-1.207l0,-0.281Z" style="fill:#fff;fill-rule:nonzero;"/><path d="M146.191,0.199c-0.308,0.027 -0.829,0.041 -1.303,0.041c-0.48,0 -1.097,-0.014 -1.433,-0.041l0,0.281c1.097,0.041 1.275,0.323 1.275,1.352l0,6.008l-4.959,-7.641c-0.309,0.027 -0.686,0.041 -1.097,0.041c-0.474,0 -0.995,-0.014 -1.304,-0.041l0,0.281c0.954,0.041 1.139,0.185 1.139,1.207l0,6.826c0,1.029 -0.185,1.31 -1.139,1.351l0,0.281c0.309,-0.027 0.83,-0.041 1.304,-0.041c0.48,0 1.097,0.014 1.433,0.041l0,-0.281c-1.091,-0.041 -1.275,-0.322 -1.275,-1.351l0,-7.415l5.898,9.116l0.323,0l0,-8.382c0,-1.029 0.185,-1.311 1.138,-1.352l0,-0.281Z" style="fill:#fff;fill-rule:nonzero;"/><path d="M156.743,0.199c-0.535,0 -1.475,0.027 -2.12,0.041c-0.116,0 -0.226,0.007 -0.343,0.007c-0.521,0 -1.049,-0.027 -1.371,-0.048l0,0.281c0.953,0.041 1.138,0.185 1.138,1.207l0,6.97c0,1.022 -0.185,1.166 -1.138,1.207l0,0.281c0.39,-0.027 1.083,-0.041 1.742,-0.041c0.604,0 1.543,0.041 1.969,0.041c3.23,0 5.082,-2.023 5.082,-5.083c0,-3.134 -1.612,-4.863 -4.959,-4.863Zm-0.35,0.254c2.908,0 3.903,1.516 3.903,4.664c0,3.06 -0.83,4.774 -3.889,4.774c-0.871,0 -1.057,-0.226 -1.057,-1.207l0,-7.024c0,-0.967 0.186,-1.207 1.043,-1.207Z" style="fill:#fff;fill-rule:nonzero;"/><path d="M172.144,0.199c-0.432,0.027 -1.139,0.041 -1.784,0.041c-0.727,0 -1.406,-0.014 -1.797,-0.041l0,0.281c0.954,0.041 1.139,0.185 1.139,1.207l0,6.97c0,1.022 -0.185,1.166 -1.139,1.207l0,0.281c0.391,-0.027 1.07,-0.041 1.797,-0.041c0.645,0 1.352,0.014 1.784,0.041l0,-0.281c-0.954,-0.041 -1.139,-0.185 -1.139,-1.207l0,-6.97c0,-1.022 0.185,-1.166 1.139,-1.207l0,-0.281Z" style="fill:#fff;fill-rule:nonzero;"/><path d="M182.894,0.13l-0.226,0l-3.306,8.513c-0.323,0.844 -0.741,1.139 -1.105,1.221l0,0.281c0.281,-0.027 0.576,-0.041 1.05,-0.041c0.494,0 1.084,0.014 1.618,0.041l0,-0.281c-0.802,-0.021 -1.221,-0.233 -1.221,-0.844c0,-0.288 0.09,-0.665 0.282,-1.152l0.576,-1.489l3.388,0l0.865,2.305c0.11,0.281 0.164,0.494 0.164,0.659c0,0.391 -0.315,0.494 -0.994,0.521l0,0.281c0.397,-0.027 1.07,-0.041 1.797,-0.041c0.535,0 1.125,0.014 1.509,0.041l0,-0.281c-0.295,-0.014 -0.692,-0.185 -0.974,-0.899l-3.423,-8.835Zm0.954,5.968l-3.183,0l1.612,-4.191l1.571,4.191Z" style="fill:#fff;fill-rule:nonzero;"/><path d="M201.951,0.199c-0.309,0.027 -0.83,0.041 -1.303,0.041c-0.48,0 -1.098,-0.014 -1.433,-0.041l0,0.281c1.097,0.041 1.275,0.323 1.275,1.352l0,6.008l-4.96,-7.641c-0.308,0.027 -0.685,0.041 -1.097,0.041c-0.473,0 -0.994,-0.014 -1.303,-0.041l0,0.281c0.953,0.041 1.138,0.185 1.138,1.207l0,6.826c0,1.029 -0.185,1.31 -1.138,1.351l0,0.281c0.309,-0.027 0.83,-0.041 1.303,-0.041c0.48,0 1.097,0.014 1.434,0.041l0,-0.281c-1.091,-0.041 -1.276,-0.322 -1.276,-1.351l0,-7.415l5.899,9.116l0.323,0l0,-8.382c0,-1.029 0.185,-1.311 1.138,-1.352l0,-0.281Z" style="fill:#fff;fill-rule:nonzero;"/></g><g><g><path d="M28.987,73.607c-0.352,0.016 -0.84,0.016 -1.187,0.016c-0.341,0 -1.089,0 -1.647,-0.016l0,0.113c0.386,0.017 0.46,0.075 0.46,0.488l0,2.818c0,0.413 -0.074,0.472 -0.46,0.488l0,0.114c0.158,-0.011 0.433,-0.017 0.727,-0.017c0.308,0 0.638,0.006 0.834,0.017l0,-0.114c-0.476,-0.016 -0.574,-0.075 -0.574,-0.488l0,-1.306l0.416,0c0.494,0 0.5,0.385 0.544,0.749l0.133,0c-0.03,-0.43 -0.036,-0.619 -0.036,-0.807c0,-0.084 -0.003,-0.167 -0.003,-0.269c0,-0.133 0.003,-0.297 0.02,-0.536l-0.131,0c-0.044,0.272 -0.033,0.749 -0.527,0.749l-0.416,0l0,-1.398c0,-0.413 0.075,-0.471 0.461,-0.471l0.358,0c0.709,0 0.795,0.272 0.876,1.062l0.13,0c-0.011,-0.119 -0.016,-0.283 -0.016,-0.466c0,-0.141 0.011,-0.438 0.038,-0.726Z" style="fill:#fff;fill-rule:nonzero;"/><path d="M33.47,73.526c-1.057,0 -1.806,0.854 -1.806,2.125c0,1.3 0.721,2.057 1.8,2.057c1.057,0 1.806,-0.854 1.806,-2.124c0,-1.301 -0.722,-2.058 -1.8,-2.058Zm-0.023,0.103c0.699,0 1.254,0.768 1.254,1.977c0,1.176 -0.477,2 -1.215,2c-0.699,0 -1.256,-0.769 -1.256,-1.978c0,-1.176 0.477,-1.999 1.217,-1.999Z" style="fill:#fff;fill-rule:nonzero;"/><path d="M41.463,77.281c-0.106,0.133 -0.172,0.217 -0.311,0.217c-0.158,0 -0.222,-0.136 -0.291,-0.466l-0.141,-0.58c-0.109,-0.471 -0.292,-0.666 -0.796,-0.749l-0.07,-0.011c0.857,-0.133 1.104,-0.699 1.104,-1.093c0,-0.554 -0.455,-0.987 -1.37,-0.987c-0.136,0 -0.499,0.011 -0.857,0.011c-0.25,0 -0.535,-0.005 -0.693,-0.016l0,0.113c0.385,0.017 0.46,0.075 0.46,0.488l0,2.818c0,0.413 -0.075,0.472 -0.46,0.488l0,0.114c0.158,-0.011 0.432,-0.017 0.726,-0.017c0.261,0 0.547,0.006 0.721,0.017l0,-0.114c-0.385,-0.016 -0.46,-0.075 -0.46,-0.488l0,-1.306l0.541,0c0.449,0 0.532,0.324 0.64,0.807l0.125,0.566c0.108,0.485 0.325,0.615 0.61,0.615c0.305,0 0.447,-0.13 0.608,-0.363l-0.086,-0.064Zm-2.016,-3.561c0.687,0 0.942,0.347 0.942,0.943c0,0.522 -0.177,0.943 -0.981,0.943l-0.383,0l0,-1.398c0,-0.391 0.075,-0.488 0.422,-0.488Z" style="fill:#fff;fill-rule:nonzero;"/><path d="M47.074,73.607c-0.472,0.016 -1.129,0.016 -1.595,0.016c-0.466,0 -1.131,0 -1.603,-0.016c0.031,0.288 0.042,0.585 0.042,0.726c0,0.183 -0.006,0.347 -0.017,0.466l0.13,0c0.078,-0.79 0.164,-1.062 0.874,-1.062l0.308,0l0,3.231c0,0.46 -0.097,0.53 -0.574,0.546l0,0.114c0.18,-0.011 0.499,-0.017 0.84,-0.017c0.308,0 0.635,0.006 0.835,0.017l0,-0.114c-0.477,-0.016 -0.574,-0.086 -0.574,-0.546l0,-3.231l0.308,0c0.71,0 0.793,0.272 0.873,1.062l0.131,0c-0.012,-0.119 -0.017,-0.283 -0.017,-0.466c0,-0.141 0.011,-0.438 0.039,-0.726Z" style="fill:#fff;fill-rule:nonzero;"/><path d="M56.288,73.607c-0.472,0.016 -1.129,0.016 -1.595,0.016c-0.466,0 -1.131,0 -1.603,-0.016c0.031,0.288 0.042,0.585 0.042,0.726c0,0.183 -0.006,0.347 -0.017,0.466l0.13,0c0.078,-0.79 0.164,-1.062 0.874,-1.062l0.308,0l0,3.231c0,0.46 -0.097,0.53 -0.574,0.546l0,0.114c0.18,-0.011 0.499,-0.017 0.84,-0.017c0.308,0 0.635,0.006 0.835,0.017l0,-0.114c-0.477,-0.016 -0.574,-0.086 -0.574,-0.546l0,-3.231l0.308,0c0.71,0 0.793,0.272 0.873,1.062l0.131,0c-0.012,-0.119 -0.017,-0.283 -0.017,-0.466c0,-0.141 0.011,-0.438 0.039,-0.726Z" style="fill:#fff;fill-rule:nonzero;"/><path d="M60.834,73.526c-1.057,0 -1.806,0.854 -1.806,2.125c0,1.3 0.721,2.057 1.8,2.057c1.057,0 1.806,-0.854 1.806,-2.124c0,-1.301 -0.722,-2.058 -1.8,-2.058Zm-0.022,0.103c0.698,0 1.253,0.768 1.253,1.977c0,1.176 -0.477,2 -1.215,2c-0.699,0 -1.256,-0.769 -1.256,-1.978c0,-1.176 0.477,-1.999 1.218,-1.999Z" style="fill:#fff;fill-rule:nonzero;"/><path d="M68.893,73.607c-0.124,0.011 -0.332,0.016 -0.526,0.016c-0.195,0 -0.444,-0.005 -0.58,-0.016l0,0.113c0.385,0.017 0.516,0.131 0.516,0.547l0,1.772c0,0.846 -0.233,1.47 -1.09,1.47c-0.807,0 -0.896,-0.641 -0.896,-1.42l0,-1.881c0,-0.413 0.072,-0.471 0.46,-0.488l0,-0.113c-0.177,0.011 -0.46,0.016 -0.723,0.016c-0.294,0 -0.566,-0.005 -0.727,-0.016l0,0.113c0.388,0.017 0.46,0.075 0.46,0.488l0,1.784c0,0.773 0.086,1.095 0.422,1.408c0.249,0.233 0.591,0.308 0.954,0.308c0.466,0 0.851,-0.21 1.04,-0.529c0.169,-0.289 0.233,-0.677 0.233,-1.204l0,-1.708c0,-0.416 0.072,-0.53 0.457,-0.547l0,-0.113Z" style="fill:#fff;fill-rule:nonzero;"/><path d="M73.007,73.607c-0.175,0.011 -0.461,0.016 -0.721,0.016c-0.294,0 -0.569,-0.005 -0.727,-0.016l0,0.113c0.386,0.017 0.46,0.075 0.46,0.488l0,2.818c0,0.413 -0.074,0.472 -0.46,0.488l0,0.114c0.558,-0.017 1.306,-0.017 1.647,-0.017c0.38,0 0.916,0 1.301,0.017c-0.028,-0.289 -0.039,-0.585 -0.039,-0.727c0,-0.183 0.006,-0.346 0.017,-0.466l-0.13,0c-0.081,0.791 -0.222,1.063 -0.932,1.063l-0.416,0c-0.386,0 -0.461,-0.059 -0.461,-0.472l0,-2.818c0,-0.413 0.075,-0.471 0.461,-0.488l0,-0.113Z" style="fill:#fff;fill-rule:nonzero;"/><path d="M79.039,73.526c-1.056,0 -1.805,0.854 -1.805,2.125c0,1.3 0.721,2.057 1.8,2.057c1.056,0 1.805,-0.854 1.805,-2.124c0,-1.301 -0.721,-2.058 -1.8,-2.058Zm-0.022,0.103c0.699,0 1.254,0.768 1.254,1.977c0,1.176 -0.477,2 -1.215,2c-0.699,0 -1.256,-0.769 -1.256,-1.978c0,-1.176 0.477,-1.999 1.217,-1.999Z" style="fill:#fff;fill-rule:nonzero;"/><path d="M87.099,73.607c-0.125,0.011 -0.333,0.016 -0.527,0.016c-0.194,0 -0.444,-0.005 -0.58,-0.016l0,0.113c0.386,0.017 0.516,0.131 0.516,0.547l0,1.772c0,0.846 -0.233,1.47 -1.09,1.47c-0.807,0 -0.895,-0.641 -0.895,-1.42l0,-1.881c0,-0.413 0.072,-0.471 0.46,-0.488l0,-0.113c-0.178,0.011 -0.46,0.016 -0.724,0.016c-0.294,0 -0.566,-0.005 -0.726,-0.016l0,0.113c0.388,0.017 0.46,0.075 0.46,0.488l0,1.784c0,0.773 0.086,1.095 0.421,1.408c0.25,0.233 0.591,0.308 0.954,0.308c0.466,0 0.852,-0.21 1.04,-0.529c0.17,-0.289 0.233,-0.677 0.233,-1.204l0,-1.708c0,-0.416 0.073,-0.53 0.458,-0.547l0,-0.113Z" style="fill:#fff;fill-rule:nonzero;"/><path d="M90.979,73.543c-0.56,0 -1.067,0.313 -1.067,0.984c0,0.641 0.471,0.949 1.012,1.273c0.527,0.316 0.885,0.577 0.885,1.037c0,0.536 -0.369,0.758 -0.738,0.758c-0.727,0 -0.987,-0.602 -1.035,-1.29l-0.13,0c0,0.801 -0.005,1.129 -0.022,1.362l0.13,0c0.022,-0.164 0.053,-0.25 0.125,-0.25c0.047,0 0.103,0.022 0.194,0.081c0.164,0.102 0.375,0.21 0.777,0.21c0.66,0 1.206,-0.357 1.206,-1.078c0,-0.611 -0.433,-0.91 -1.023,-1.279c-0.511,-0.319 -0.954,-0.524 -0.954,-1.04c0,-0.391 0.288,-0.66 0.693,-0.66c0.63,0 0.89,0.552 0.932,1.093l0.13,0c0,-0.716 0.011,-0.96 0.028,-1.16l-0.13,0c-0.023,0.164 -0.053,0.25 -0.125,0.25c-0.053,0 -0.103,-0.022 -0.194,-0.08c-0.153,-0.103 -0.319,-0.211 -0.694,-0.211Z" style="fill:#fff;fill-rule:nonzero;"/><path d="M98.013,76.901c0,-0.158 0.006,-0.308 0.017,-0.41l-0.131,0c-0.08,0.751 -0.222,1.007 -0.932,1.007l-0.416,0c-0.385,0 -0.46,-0.059 -0.46,-0.472l0,-1.364l0.377,0c0.494,0 0.499,0.388 0.544,0.751l0.13,0c-0.028,-0.432 -0.033,-0.621 -0.033,-0.807c0,-0.083 -0.003,-0.166 -0.003,-0.272c0,-0.13 0.003,-0.294 0.02,-0.535l-0.131,0c-0.044,0.272 -0.033,0.749 -0.527,0.749l-0.377,0l0,-1.34c0,-0.413 0.075,-0.471 0.46,-0.471l0.472,0c0.602,0 0.688,0.222 0.763,0.893l0.13,0c-0.011,-0.086 -0.017,-0.216 -0.017,-0.352c0,-0.131 0.011,-0.405 0.039,-0.671c-0.352,0.016 -0.84,0.016 -1.187,0.016c-0.341,0 -1.09,0 -1.647,-0.016l0,0.113c0.385,0.017 0.46,0.075 0.46,0.488l0,2.818c0,0.413 -0.075,0.472 -0.46,0.488l0,0.114c0.557,-0.017 1.306,-0.017 1.647,-0.017c0.38,0 0.915,0 1.301,0.017c-0.028,-0.289 -0.039,-0.585 -0.039,-0.727Z" style="fill:#fff;fill-rule:nonzero;"/><rect x="104.673" y="75.936" width="2.052" height="0.327" style="fill:#fff;"/><path d="M116.147,73.607c-0.352,0.016 -0.841,0.016 -1.187,0.016c-0.341,0 -1.09,0 -1.647,-0.016l0,0.113c0.385,0.017 0.46,0.075 0.46,0.488l0,2.818c0,0.413 -0.075,0.472 -0.46,0.488l0,0.114c0.158,-0.011 0.433,-0.017 0.726,-0.017c0.308,0 0.638,0.006 0.835,0.017l0,-0.114c-0.477,-0.016 -0.574,-0.075 -0.574,-0.488l0,-1.306l0.416,0c0.493,0 0.499,0.385 0.543,0.749l0.134,0c-0.031,-0.43 -0.037,-0.619 -0.037,-0.807c0,-0.084 -0.002,-0.167 -0.002,-0.269c0,-0.133 0.002,-0.297 0.019,-0.536l-0.13,0c-0.044,0.272 -0.034,0.749 -0.527,0.749l-0.416,0l0,-1.398c0,-0.413 0.075,-0.471 0.46,-0.471l0.358,0c0.71,0 0.796,0.272 0.877,1.062l0.13,0c-0.011,-0.119 -0.017,-0.283 -0.017,-0.466c0,-0.141 0.011,-0.438 0.039,-0.726Z" style="fill:#fff;fill-rule:nonzero;"/><path d="M120.629,73.526c-1.056,0 -1.805,0.854 -1.805,2.125c0,1.3 0.721,2.057 1.799,2.057c1.057,0 1.806,-0.854 1.806,-2.124c0,-1.301 -0.721,-2.058 -1.8,-2.058Zm-0.022,0.103c0.699,0 1.254,0.768 1.254,1.977c0,1.176 -0.477,2 -1.215,2c-0.699,0 -1.256,-0.769 -1.256,-1.978c0,-1.176 0.477,-1.999 1.217,-1.999Z" style="fill:#fff;fill-rule:nonzero;"/><path d="M128.623,77.281c-0.106,0.133 -0.172,0.217 -0.311,0.217c-0.158,0 -0.222,-0.136 -0.292,-0.466l-0.141,-0.58c-0.108,-0.471 -0.291,-0.666 -0.796,-0.749l-0.069,-0.011c0.857,-0.133 1.103,-0.699 1.103,-1.093c0,-0.554 -0.454,-0.987 -1.37,-0.987c-0.135,0 -0.499,0.011 -0.856,0.011c-0.25,0 -0.535,-0.005 -0.694,-0.016l0,0.113c0.386,0.017 0.461,0.075 0.461,0.488l0,2.818c0,0.413 -0.075,0.472 -0.461,0.488l0,0.114c0.159,-0.011 0.433,-0.017 0.727,-0.017c0.261,0 0.546,0.006 0.721,0.017l0,-0.114c-0.385,-0.016 -0.46,-0.075 -0.46,-0.488l0,-1.306l0.541,0c0.449,0 0.532,0.324 0.64,0.807l0.125,0.566c0.108,0.485 0.324,0.615 0.61,0.615c0.305,0 0.447,-0.13 0.607,-0.363l-0.085,-0.064Zm-2.017,-3.561c0.688,0 0.943,0.347 0.943,0.943c0,0.522 -0.178,0.943 -0.982,0.943l-0.382,0l0,-1.398c0,-0.391 0.075,-0.488 0.421,-0.488Z" style="fill:#fff;fill-rule:nonzero;"/><path d="M134.233,73.607c-0.471,0.016 -1.129,0.016 -1.595,0.016c-0.465,0 -1.131,0 -1.602,-0.016c0.03,0.288 0.041,0.585 0.041,0.726c0,0.183 -0.005,0.347 -0.017,0.466l0.131,0c0.078,-0.79 0.164,-1.062 0.873,-1.062l0.309,0l0,3.231c0,0.46 -0.097,0.53 -0.574,0.546l0,0.114c0.18,-0.011 0.499,-0.017 0.839,-0.017c0.309,0 0.636,0.006 0.836,0.017l0,-0.114c-0.477,-0.016 -0.574,-0.086 -0.574,-0.546l0,-3.231l0.307,0c0.71,0 0.793,0.272 0.874,1.062l0.13,0c-0.011,-0.119 -0.016,-0.283 -0.016,-0.466c0,-0.141 0.01,-0.438 0.038,-0.726Z" style="fill:#fff;fill-rule:nonzero;"/><path d="M141.875,73.607c-0.178,0.011 -0.46,0.016 -0.722,0.016c-0.296,0 -0.567,-0.005 -0.726,-0.016l0,0.113c0.386,0.017 0.461,0.075 0.461,0.488l0,2.596c0,0.785 -0.02,1.062 -0.097,1.301c-0.103,0.302 -0.352,0.482 -0.683,0.482c-0.097,0 -0.288,-0.016 -0.363,-0.091c0.142,-0.028 0.238,-0.125 0.238,-0.288c0,-0.195 -0.135,-0.308 -0.313,-0.308c-0.175,0 -0.299,0.124 -0.299,0.302c0,0.158 0.085,0.294 0.272,0.391c0.102,0.053 0.265,0.103 0.476,0.103c0.649,0 1.074,-0.403 1.198,-0.927c0.092,-0.38 0.098,-1.009 0.098,-1.481l0,-2.08c0,-0.413 0.074,-0.471 0.46,-0.488l0,-0.113Z" style="fill:#fff;fill-rule:nonzero;"/><path d="M146.133,73.579l-0.092,0l-1.337,3.442c-0.131,0.341 -0.299,0.46 -0.446,0.493l0,0.114c0.113,-0.011 0.233,-0.017 0.424,-0.017c0.2,0 0.438,0.006 0.655,0.017l0,-0.114c-0.325,-0.008 -0.494,-0.094 -0.494,-0.341c0,-0.116 0.036,-0.269 0.114,-0.466l0.233,-0.602l1.37,0l0.349,0.932c0.045,0.114 0.067,0.2 0.067,0.266c0,0.158 -0.128,0.2 -0.403,0.211l0,0.114c0.161,-0.011 0.433,-0.017 0.727,-0.017c0.216,0 0.455,0.006 0.61,0.017l0,-0.114c-0.119,-0.005 -0.28,-0.075 -0.394,-0.363l-1.383,-3.572Zm0.385,2.413l-1.287,0l0.652,-1.695l0.635,1.695Z" style="fill:#fff;fill-rule:nonzero;"/><path d="M152.198,73.526c-1.057,0 -1.806,0.854 -1.806,2.125c0,1.3 0.722,2.057 1.801,2.057c0.488,0 0.77,-0.172 1.051,-0.369c0.047,-0.03 0.086,-0.047 0.116,-0.047c0.081,0 0.119,0.103 0.139,0.336l0.13,0c-0.017,-0.289 -0.022,-0.677 -0.022,-1.365l-0.13,0c-0.058,0.461 -0.098,0.677 -0.264,0.899c-0.213,0.308 -0.63,0.433 -0.97,0.433c-0.733,0 -1.285,-0.699 -1.285,-1.967c0,-1.231 0.489,-1.999 1.229,-1.999c0.391,0 0.766,0.136 1.004,0.444c0.161,0.205 0.205,0.357 0.286,0.84l0.13,0c0,-0.66 0.005,-1.029 0.022,-1.306l-0.13,0c-0.02,0.233 -0.067,0.338 -0.144,0.338c-0.034,0 -0.07,-0.017 -0.111,-0.05c-0.25,-0.191 -0.546,-0.369 -1.046,-0.369Z" style="fill:#fff;fill-rule:nonzero;"/><path d="M158.167,75.32l0.926,-1.186c0.217,-0.278 0.438,-0.38 0.671,-0.414l0,-0.113c-0.114,0.011 -0.291,0.016 -0.485,0.016c-0.197,0 -0.435,-0.005 -0.652,-0.016l0,0.113c0.241,0.006 0.352,0.075 0.352,0.206c0,0.124 -0.105,0.307 -0.291,0.543l-0.543,0.693c-0.139,0.178 -0.342,0.308 -0.649,0.319l0,-1.273c0,-0.413 0.075,-0.471 0.46,-0.488l0,-0.113c-0.175,0.011 -0.46,0.016 -0.721,0.016c-0.294,0 -0.568,-0.005 -0.727,-0.016l0,0.113c0.386,0.017 0.461,0.075 0.461,0.488l0,2.818c0,0.413 -0.075,0.472 -0.461,0.488l0,0.114c0.159,-0.011 0.433,-0.017 0.727,-0.017c0.261,0 0.546,0.006 0.721,0.017l0,-0.114c-0.385,-0.016 -0.46,-0.075 -0.46,-0.488l0,-1.431c0.263,0.014 0.369,0.069 0.596,0.413l0.829,1.251c0.039,0.056 0.058,0.1 0.058,0.136c0,0.078 -0.086,0.111 -0.26,0.119l0,0.114c0.277,-0.017 0.454,-0.017 0.585,-0.017c0.186,0 0.499,0.006 0.68,0.017l0,-0.114c-0.234,-0.055 -0.375,-0.158 -0.499,-0.346l-1.318,-1.848Z" style="fill:#fff;fill-rule:nonzero;"/><path d="M163.714,73.543c-0.56,0 -1.068,0.313 -1.068,0.984c0,0.641 0.472,0.949 1.013,1.273c0.526,0.316 0.884,0.577 0.884,1.037c0,0.536 -0.369,0.758 -0.737,0.758c-0.727,0 -0.988,-0.602 -1.035,-1.29l-0.13,0c0,0.801 -0.006,1.129 -0.023,1.362l0.13,0c0.023,-0.164 0.053,-0.25 0.125,-0.25c0.048,0 0.103,0.022 0.195,0.081c0.164,0.102 0.374,0.21 0.776,0.21c0.661,0 1.207,-0.357 1.207,-1.078c0,-0.611 -0.433,-0.91 -1.023,-1.279c-0.511,-0.319 -0.955,-0.524 -0.955,-1.04c0,-0.391 0.289,-0.66 0.694,-0.66c0.629,0 0.89,0.552 0.931,1.093l0.131,0c0,-0.716 0.011,-0.96 0.028,-1.16l-0.13,0c-0.023,0.164 -0.054,0.25 -0.125,0.25c-0.053,0 -0.103,-0.022 -0.195,-0.08c-0.152,-0.103 -0.319,-0.211 -0.693,-0.211Z" style="fill:#fff;fill-rule:nonzero;"/><path d="M169.708,73.526c-1.057,0 -1.806,0.854 -1.806,2.125c0,1.3 0.722,2.057 1.8,2.057c1.056,0 1.805,-0.854 1.805,-2.124c0,-1.301 -0.721,-2.058 -1.799,-2.058Zm-0.023,0.103c0.699,0 1.254,0.768 1.254,1.977c0,1.176 -0.477,2 -1.215,2c-0.698,0 -1.256,-0.769 -1.256,-1.978c0,-1.176 0.477,-1.999 1.217,-1.999Z" style="fill:#fff;fill-rule:nonzero;"/><path d="M177.842,73.607c-0.125,0.011 -0.335,0.016 -0.527,0.016c-0.194,0 -0.444,-0.005 -0.579,-0.016l0,0.113c0.443,0.017 0.515,0.131 0.515,0.547l0,2.429l-2.005,-3.089c-0.124,0.011 -0.277,0.016 -0.443,0.016c-0.192,0 -0.402,-0.005 -0.527,-0.016l0,0.113c0.385,0.017 0.46,0.075 0.46,0.488l0,2.76c0,0.416 -0.075,0.53 -0.46,0.546l0,0.114c0.125,-0.011 0.335,-0.017 0.527,-0.017c0.194,0 0.443,0.006 0.579,0.017l0,-0.114c-0.44,-0.016 -0.515,-0.13 -0.515,-0.546l0,-2.998l2.384,3.686l0.131,0l0,-3.389c0,-0.416 0.075,-0.53 0.46,-0.547l0,-0.113Z" style="fill:#fff;fill-rule:nonzero;"/></g><rect x="14.867" y="67.493" width="174.113" height="0.649" style="fill:#fff;stroke:#fff;stroke-width:0.42px;"/><rect x="14.867" y="83.093" width="174.113" height="0.649" style="fill:#fff;stroke:#fff;stroke-width:0.42px;"/></g><text x="27.509px" y="55.54px" style="font-family:'PlayfairDisplay-Regular', 'Playfair Display';font-size:14px;fill:#fff;">A<tspan x="41.647px 55.437px 70.108px 80.452px 94.282px 103.369px 115.675px 126.798px 135.885px 148.471px 157.557px 169.863px " y="55.54px 55.54px 55.54px 55.54px 55.54px 55.54px 55.54px 55.54px 55.54px 55.54px 55.54px 55.54px ">PRIL 27 - 28</tspan></text></g></svg>