<?xml version="1.0" encoding="UTF-8" standalone="no"?>
<!DOCTYPE svg PUBLIC "-//W3C//DTD SVG 1.1//EN" "http://www.w3.org/Graphics/SVG/1.1/DTD/svg11.dtd">
<svg width="100%" height="100%" viewBox="0 0 2205 3206" version="1.1" xmlns="http://www.w3.org/2000/svg" xmlns:xlink="http://www.w3.org/1999/xlink" xml:space="preserve" style="fill-rule:evenodd;clip-rule:evenodd;stroke-linejoin:round;stroke-miterlimit:1.5;">
    <g transform="matrix(1.43534,0,0,1.43534,-335.663,345.422)">
        <path d="M538.194,-27.847C455.593,-27.847 410.834,21.795 385.606,76.32L399.847,82.83C425.482,32.782 464.951,8.774 510.524,8.774C554.877,8.774 582.953,31.154 582.953,83.644C582.953,125.962 563.828,169.5 519.069,203.68C508.083,202.866 499.131,200.425 489.772,200.425C477.972,200.425 468.207,206.121 468.207,216.294C468.207,222.804 472.276,226.873 481.634,226.873C491.4,226.873 504.014,221.177 520.697,214.666C574.815,218.735 608.994,266.343 608.994,331.04C608.994,454.331 493.841,521.063 379.909,523.504L379.909,538.56C522.324,538.56 688.34,457.993 688.34,331.04C688.34,245.184 611.436,206.121 534.125,204.494C597.194,182.114 658.229,132.065 658.229,66.961C658.229,7.961 607.367,-27.847 538.194,-27.847Z" style="fill:white;fill-rule:nonzero;"/>
        <path d="M945.941,-27.847C818.174,-27.847 734.759,72.658 734.759,204.494C734.759,338.771 820.615,424.627 936.582,424.627C1062.32,424.627 1147.36,324.53 1147.36,191.066C1147.36,58.823 1063.13,-27.847 945.941,-27.847ZM938.21,-13.198C1007.38,-13.198 1066.79,44.582 1066.79,193.508C1066.79,329.412 1015.93,409.572 944.313,409.572C875.14,409.572 815.733,351.792 815.733,202.052C815.733,66.147 866.595,-13.198 938.21,-13.198Z" style="fill:white;fill-rule:nonzero;"/>
        <path d="M1412.69,-27.847C1284.92,-27.847 1201.51,72.658 1201.51,204.494C1201.51,338.771 1287.36,424.627 1403.33,424.627C1529.06,424.627 1614.11,324.53 1614.11,191.066C1614.11,58.823 1529.88,-27.847 1412.69,-27.847ZM1404.96,-13.198C1474.13,-13.198 1533.54,44.582 1533.54,193.508C1533.54,329.412 1482.68,409.572 1411.06,409.572C1341.89,409.572 1282.48,351.792 1282.48,202.052C1282.48,66.147 1333.34,-13.198 1404.96,-13.198Z" style="fill:white;fill-rule:nonzero;"/>
    </g>
    <g transform="matrix(1.15051,0,0,1.15051,197.405,804.102)">
        <path d="M580.895,224.806C571.52,224.806 560.323,224.546 550.166,224.025L550.166,229.364C565.01,229.754 573.734,233.009 573.734,243.556C573.734,249.025 571.39,256.447 566.442,266.473L532.458,334.181L488.057,249.155C486.104,245.379 485.323,242.384 485.323,239.91C485.323,231.968 493.916,229.624 504.073,229.624L504.073,224.025C492.614,224.806 478.421,224.806 466.703,224.806C457.588,224.806 450.166,224.546 443.265,224.025L443.265,229.624C447.041,229.624 451.468,231.447 458.76,244.598L512.796,344.338L512.796,384.572C512.796,403.973 509.411,406.707 491.182,407.489L491.182,412.827C498.734,412.306 511.494,412.046 525.427,412.046C537.666,412.046 550.948,412.306 559.281,412.827L559.281,407.489C541.052,406.707 537.666,403.973 537.666,384.572L537.666,336.004L579.463,253.062C587.536,237.306 593.916,230.926 600.817,229.364L600.817,224.025C595.479,224.546 589.88,224.806 580.895,224.806Z" style="fill:white;fill-rule:nonzero;"/>
        <path d="M829.385,378.713C829.385,371.291 829.645,364.259 830.166,359.442L824.046,359.442C820.27,394.728 813.63,406.707 780.296,406.707L760.765,406.707C742.666,406.707 739.151,403.973 739.151,384.572L739.151,320.509L756.859,320.509C780.036,320.509 780.296,338.739 782.38,355.796L788.5,355.796C787.198,335.483 786.937,326.629 786.937,317.905C786.937,313.999 786.807,310.093 786.807,305.145C786.807,299.025 786.937,291.343 787.718,280.015L781.599,280.015C779.515,292.775 780.036,315.171 756.859,315.171L739.151,315.171L739.151,252.28C739.151,232.879 742.666,230.145 760.765,230.145L782.901,230.145C811.156,230.145 815.192,240.562 818.708,272.072L824.828,272.072C824.307,268.035 824.046,261.916 824.046,255.535C824.046,249.416 824.567,236.525 825.869,224.025C809.333,224.806 786.416,224.806 770.14,224.806C754.125,224.806 718.968,224.806 692.796,224.025L692.796,229.364C710.895,230.145 714.411,232.879 714.411,252.28L714.411,384.572C714.411,403.973 710.895,406.707 692.796,407.489L692.796,412.827C718.968,412.046 754.125,412.046 770.14,412.046C787.979,412.046 813.109,412.046 831.208,412.827C829.906,399.285 829.385,385.353 829.385,378.713Z" style="fill:white;fill-rule:nonzero;"/>
        <path d="M1010.17,222.723L1005.87,222.723L943.109,384.312C936.989,400.327 929.046,405.926 922.145,407.489L922.145,412.827C927.484,412.306 933.083,412.046 942.067,412.046C951.442,412.046 962.64,412.306 972.796,412.827L972.796,407.489C957.562,407.098 949.619,403.062 949.619,391.473C949.619,386.004 951.312,378.843 954.958,369.598L965.895,341.343L1030.22,341.343L1046.62,385.093C1048.71,390.431 1049.75,394.468 1049.75,397.593C1049.75,405.015 1043.76,406.968 1030.87,407.489L1030.87,412.827C1038.42,412.306 1051.18,412.046 1064.98,412.046C1075.14,412.046 1086.34,412.306 1093.63,412.827L1093.63,407.489C1088.03,407.228 1080.48,403.973 1075.14,390.431L1010.17,222.723ZM1028.27,336.004L967.849,336.004L998.448,256.447L1028.27,336.004Z" style="fill:white;fill-rule:nonzero;"/>
        <path d="M1338.6,396.551C1333.66,402.801 1330.53,406.707 1324.02,406.707C1316.6,406.707 1313.6,400.327 1310.35,384.832L1303.71,357.619C1298.63,335.483 1290.04,326.369 1266.34,322.463L1263.08,321.942C1303.32,315.692 1314.91,289.129 1314.91,270.64C1314.91,244.598 1293.55,224.285 1250.58,224.285C1244.2,224.285 1227.14,224.806 1210.35,224.806C1198.63,224.806 1185.22,224.546 1177.8,224.025L1177.8,229.364C1195.89,230.145 1199.41,232.879 1199.41,252.28L1199.41,384.572C1199.41,403.973 1195.89,406.707 1177.8,407.489L1177.8,412.827C1185.22,412.306 1198.11,412.046 1211.91,412.046C1224.15,412.046 1237.56,412.306 1245.77,412.827L1245.77,407.489C1227.67,406.707 1224.15,403.973 1224.15,384.572L1224.15,323.244L1249.54,323.244C1270.63,323.244 1274.54,338.478 1279.62,361.134L1285.48,387.697C1290.56,410.483 1300.71,416.603 1314.12,416.603C1328.45,416.603 1335.09,410.483 1342.64,399.546L1338.6,396.551ZM1243.94,229.364C1276.23,229.364 1288.21,245.64 1288.21,273.634C1288.21,298.114 1279.88,317.905 1242.12,317.905L1224.15,317.905L1224.15,252.28C1224.15,233.921 1227.67,229.364 1243.94,229.364Z" style="fill:white;fill-rule:nonzero;"/>
        <path d="M1487.61,221.03C1461.31,221.03 1437.48,235.744 1437.48,267.254C1437.48,297.332 1459.62,311.785 1485.01,327.02C1509.75,341.864 1526.55,354.103 1526.55,375.718C1526.55,400.848 1509.23,411.265 1491.91,411.265C1457.8,411.265 1445.56,383.009 1443.34,350.718L1437.22,350.718C1437.22,388.348 1436.96,403.713 1436.18,414.65L1442.3,414.65C1443.34,406.968 1444.78,402.931 1448.16,402.931C1450.38,402.931 1452.98,403.973 1457.28,406.707C1464.96,411.525 1474.85,416.603 1493.73,416.603C1524.72,416.603 1550.38,399.806 1550.38,365.952C1550.38,337.306 1530.06,323.244 1502.33,305.926C1478.37,290.952 1457.54,281.317 1457.54,257.098C1457.54,238.739 1471.08,226.108 1490.09,226.108C1519.64,226.108 1531.88,252.02 1533.84,277.41L1539.96,277.41C1539.96,243.817 1540.48,232.358 1541.26,222.983L1535.14,222.983C1534.1,230.666 1532.67,234.702 1529.28,234.702C1526.81,234.702 1524.46,233.66 1520.17,230.926C1513.01,226.108 1505.19,221.03 1487.61,221.03Z" style="fill:white;fill-rule:nonzero;"/>
    </g>
    <g transform="matrix(1.15051,0,0,1.15051,-60.6001,-297.705)">
        <path d="M547.724,335.904C546.027,340.466 544.7,342.376 543.427,342.376C542.897,342.376 542.366,342.005 541.783,341.421C538.387,337.867 534.939,334.365 525.549,334.365C498.175,334.365 478.175,364.127 478.175,388.795C478.175,405.665 487.565,414.366 503.533,414.366C513.082,414.366 518.069,411.183 524.064,407.31C525.019,406.673 525.761,406.355 526.345,406.355C527.194,406.355 527.618,407.151 527.618,409.114C527.618,410.122 527.512,411.289 527.3,412.827L529.687,412.827C530.695,407.31 532.499,399.883 536.106,386.726L533.719,386.726C530.217,395.214 527.83,399.989 523.958,403.915C518.493,409.485 510.695,412.403 504.594,412.403C495.045,412.403 489.05,405.347 489.05,391.076C489.05,366.885 506.557,336.328 525.337,336.328C531.332,336.328 536.849,339.405 539.607,344.816C540.722,347.15 541.305,349.909 541.305,353.464C541.305,355.639 541.093,358.079 540.668,360.891L543.056,360.891C545.549,349.273 547.83,341.58 550.005,335.904L547.724,335.904Z" style="fill:white;fill-rule:nonzero;"/>
        <path d="M626.154,336.222C619.629,336.222 605.305,336.222 594.642,335.904L594.112,338.079C599.311,338.291 601.38,338.928 601.38,342.111C601.38,343.437 601.061,345.135 600.425,347.416L585.995,401.315C583.82,409.22 582.175,410.334 574.801,410.652L574.218,412.827C584.775,412.509 599.098,412.509 605.624,412.509C612.892,412.509 623.13,412.509 630.504,412.827C631.406,407.31 632.679,401.633 633.422,398.928C634.218,395.904 635.067,393.039 635.863,391.076L633.316,391.076C628.011,405.453 623.979,410.334 610.398,410.334L602.494,410.334C597.242,410.334 595.12,409.75 595.12,406.567C595.12,405.294 595.438,403.596 596.075,401.315L603.077,375.214L610.186,375.214C616.181,375.214 617.666,378.238 617.666,382.217C617.666,384.498 617.189,387.045 616.817,389.591L619.311,389.591C620.955,381.315 621.804,377.708 622.812,374.153C623.767,370.546 624.563,366.991 627.268,358.716L624.775,358.716C622.494,363.914 620.319,373.039 610.823,373.039L603.661,373.039L610.504,347.416C612.679,339.511 614.324,338.397 621.698,338.397L629.656,338.397C637.985,338.397 640.584,340.625 640.584,346.726C640.584,349.06 640.213,351.925 639.629,355.479L642.123,355.479C642.335,353.835 642.918,351.341 643.661,348.742C644.298,346.249 645.942,340.997 647.799,335.904C641.38,336.222 632.467,336.222 626.154,336.222Z" style="fill:white;fill-rule:nonzero;"/>
        <path d="M732.542,390.015C726.972,405.135 722.834,410.334 709.253,410.334L701.348,410.334C696.096,410.334 693.974,409.75 693.974,406.567C693.974,405.294 694.293,403.596 694.929,401.315L709.359,347.416C711.534,339.511 713.179,338.397 720.659,338.079L721.242,335.904C717.847,336.116 712.436,336.222 707.396,336.222C701.773,336.222 696.574,336.116 693.497,335.904L692.966,338.079C698.165,338.291 700.234,338.928 700.234,342.111C700.234,343.437 699.916,345.135 699.279,347.416L684.849,401.315C682.674,409.22 681.03,410.334 673.656,410.652L673.072,412.827C683.629,412.509 697.953,412.509 704.478,412.509C711.746,412.509 721.985,412.509 729.359,412.827C730.261,407.31 731.534,401.633 732.277,398.928C733.285,395.427 734.134,392.297 735.035,390.015L732.542,390.015Z" style="fill:white;fill-rule:nonzero;"/>
        <path d="M821.264,336.222C814.739,336.222 800.415,336.222 789.752,335.904L789.221,338.079C794.42,338.291 796.489,338.928 796.489,342.111C796.489,343.437 796.171,345.135 795.534,347.416L781.105,401.315C778.929,409.22 777.285,410.334 769.911,410.652L769.327,412.827C779.884,412.509 794.208,412.509 800.733,412.509C808.001,412.509 818.24,412.509 825.614,412.827C826.516,407.31 827.789,401.633 828.532,398.928C829.328,395.904 830.176,393.039 830.972,391.076L828.426,391.076C823.121,405.453 819.089,410.334 805.508,410.334L797.603,410.334C792.351,410.334 790.229,409.75 790.229,406.567C790.229,405.294 790.548,403.596 791.184,401.315L798.187,375.214L805.296,375.214C811.29,375.214 812.776,378.238 812.776,382.217C812.776,384.498 812.298,387.045 811.927,389.591L814.42,389.591C816.065,381.315 816.914,377.708 817.922,374.153C818.877,370.546 819.672,366.991 822.378,358.716L819.885,358.716C817.603,363.914 815.428,373.039 805.932,373.039L798.77,373.039L805.614,347.416C807.789,339.511 809.434,338.397 816.808,338.397L824.765,338.397C833.094,338.397 835.694,340.625 835.694,346.726C835.694,349.06 835.322,351.925 834.739,355.479L837.232,355.479C837.444,353.835 838.028,351.341 838.771,348.742C839.407,346.249 841.052,340.997 842.909,335.904C836.489,336.222 827.577,336.222 821.264,336.222Z" style="fill:white;fill-rule:nonzero;"/>
        <path d="M914.919,372.19C926.007,368.742 937.201,361.103 937.201,349.909C937.201,341.58 930.569,336.01 916.776,336.01C911.312,336.01 906.431,336.222 901.445,336.222C896.67,336.222 891.471,336.116 888.5,335.904L887.97,338.079C893.646,338.132 895.291,339.458 895.291,342.217C895.291,343.596 894.919,345.294 894.389,347.416L880.065,401.315C877.996,409.22 876.246,410.334 868.872,410.652L868.394,412.827C871.471,412.615 876.564,412.509 881.657,412.509C889.19,412.509 894.813,412.827 900.384,412.827C915.981,412.827 932.745,405.453 932.745,389.909C932.745,381.421 928.182,374.365 914.919,372.19ZM897.89,371.978L904.787,345.771C906.431,339.511 908.288,338.079 914.707,338.079C922.983,338.079 926.431,342.217 926.431,350.705C926.431,361.846 918.156,371.978 905.052,371.978L897.89,371.978ZM895.662,410.334C890.728,410.334 889.137,409.273 889.137,406.62C889.137,405.294 889.561,403.543 890.145,401.315L897.413,373.835L906.325,373.835C917.201,373.835 921.869,379.14 921.869,388.265C921.869,402.27 914.707,410.334 895.662,410.334Z" style="fill:white;fill-rule:nonzero;"/>
        <path d="M1037.54,399.671L1037.01,401.209C1034.94,406.992 1033.14,410.334 1030.49,410.334C1027.78,410.334 1027.04,407.204 1027.04,403.649C1027.04,402.907 1027.09,402.164 1027.14,401.421L1027.99,390.334C1028.05,389.538 1028.1,388.795 1028.1,388.053C1028.1,380.095 1024.01,377.495 1016.06,376.01C1014.84,375.798 1013.67,375.586 1012.24,375.426C1029.53,372.562 1040.62,363.278 1040.62,351.341C1040.62,342.111 1033.56,336.01 1018.97,336.01C1013.56,336.01 1008.36,336.222 1003.11,336.222C998.336,336.222 992.713,336.116 989.742,335.904L989.212,338.079C994.729,338.132 996.586,339.299 996.586,342.323C996.586,343.649 996.214,345.294 995.631,347.416L981.307,401.315C979.238,409.22 977.487,410.334 970.113,410.652L969.636,412.827C972.713,412.615 978.124,412.509 983.8,412.509C988.787,412.509 993.88,412.615 997.275,412.827L997.7,410.652C992.023,410.599 990.273,409.432 990.273,406.62C990.273,405.241 990.697,403.49 991.281,401.315L997.912,376.328C1014.25,376.434 1017.97,379.564 1017.97,388.371C1017.97,389.432 1017.91,390.546 1017.81,391.766L1016.9,403.915C1016.9,404.233 1016.85,404.551 1016.85,404.87C1016.85,409.803 1019.93,414.366 1026.72,414.366C1033.56,414.366 1037.12,409.909 1039.61,401.103L1040.09,399.671L1037.54,399.671ZM998.495,374.153L1005.6,347.416C1007.57,340.042 1009.42,338.079 1015.84,338.079C1025.6,338.079 1029.64,342.217 1029.64,350.705C1029.64,363.702 1022.58,374.153 1001.84,374.153L998.495,374.153Z" style="fill:white;fill-rule:nonzero;"/>
        <path d="M1128.38,335.373L1126.79,335.373L1079.95,401.209C1075.49,407.522 1071.99,410.015 1069.07,410.652L1068.54,412.827C1070.83,412.615 1073,412.509 1076.66,412.509C1080.48,412.509 1085.04,412.615 1089.07,412.827L1089.61,410.652C1084.46,410.546 1081.59,409.22 1081.59,406.037C1081.59,403.596 1083.24,400.095 1086.69,395.214L1094.86,383.702L1121.54,383.702L1122.55,401.527C1122.87,408.901 1120.16,410.334 1113.21,410.652L1112.74,412.827C1115.6,412.615 1120.59,412.509 1125.79,412.509C1129.92,412.509 1134.7,412.615 1137.62,412.827L1138.09,410.652C1135.92,410.546 1133.16,408.901 1132.74,403.702L1128.38,335.373ZM1121.43,381.527L1096.39,381.527L1119.63,348.689L1121.43,381.527Z" style="fill:white;fill-rule:nonzero;"/>
        <path d="M1252.6,324.073C1248.88,324.073 1247.29,327.097 1247.29,330.015C1247.29,332.615 1248.57,334.684 1249.94,336.116C1246.39,337.92 1242.25,338.503 1235.99,338.503C1223.37,338.503 1213.13,335.479 1200.24,335.479C1197.74,335.479 1190.53,335.585 1185.65,337.973C1181.19,340.148 1179.92,343.49 1179.92,346.461C1179.92,349.697 1181.51,351.872 1184.69,351.872C1188.51,351.872 1190.1,348.53 1190.1,345.559C1190.1,343.384 1189.26,340.784 1188.14,339.299C1190.42,337.761 1195.78,337.442 1200.34,337.442C1204.9,337.442 1209.57,337.973 1214.35,338.662L1197.95,400.201C1195.57,408.053 1193.29,410.334 1184.16,410.652L1183.68,412.827C1187.19,412.615 1193.39,412.509 1199.55,412.509C1205.75,412.509 1211.96,412.615 1215.78,412.827L1216.2,410.652C1209.57,410.493 1207.08,409.485 1207.08,405.718C1207.08,404.286 1207.4,402.482 1208.04,400.201L1224.06,339.936C1227.72,340.36 1231.43,340.678 1235.2,340.678C1243.05,340.678 1248.67,339.405 1252.38,337.124C1255.2,335.373 1257.48,332.668 1257.48,329.272C1257.48,326.461 1255.94,324.073 1252.6,324.073Z" style="fill:white;fill-rule:nonzero;"/>
        <path d="M1305.72,347.416C1307.79,339.511 1309.44,338.397 1316.92,338.079L1317.45,335.904C1314,336.116 1308.59,336.222 1303.55,336.222C1297.92,336.222 1292.73,336.116 1289.75,335.904L1289.22,338.079C1294.42,338.291 1296.55,338.928 1296.55,342.217C1296.55,343.49 1296.23,345.188 1295.64,347.416L1281.32,401.315C1279.25,409.22 1277.5,410.334 1270.34,410.652L1269.75,412.827C1272.94,412.615 1277.92,412.509 1283.6,412.509C1288.59,412.509 1294,412.615 1297.39,412.827L1297.82,410.652C1292.57,410.44 1290.5,409.803 1290.5,406.567C1290.5,405.294 1290.82,403.596 1291.4,401.315L1305.72,347.416Z" style="fill:white;fill-rule:nonzero;"/>
        <path d="M1431.21,330.917C1425.9,330.917 1422.19,333.941 1419.48,337.867C1412.64,347.787 1406.22,373.57 1401.24,395.957L1380.7,335.904C1378.21,336.116 1375.13,336.222 1371.9,336.222C1368.08,336.222 1364.52,336.116 1362.19,335.904L1361.66,338.079C1367.97,338.291 1370.04,338.981 1370.04,342.588C1370.04,343.278 1369.99,344.074 1369.83,345.028C1363.46,378.026 1357.52,403.649 1351.58,412.933C1349.4,416.435 1346.49,418.451 1342.56,418.61L1342.24,418.61C1344.05,416.859 1345.69,414.26 1345.69,411.766C1345.69,409.909 1344.84,407.522 1341.55,407.522C1337.36,407.522 1335.19,411.607 1335.19,415.214C1335.19,418.238 1336.57,420.891 1341.66,420.891C1347.44,420.891 1350.68,417.496 1353.33,414.047C1359.7,405.506 1366.81,372.35 1372.43,343.384L1397.2,413.358L1399.59,413.358C1408.08,373.304 1414.82,348.636 1421.45,338.715C1423.62,335.479 1426.33,333.304 1430.36,333.198L1430.68,333.198C1428.82,334.949 1427.18,337.548 1427.18,340.042C1427.18,341.898 1428.08,344.286 1431.31,344.286C1435.56,344.286 1437.73,340.042 1437.73,336.434C1437.73,333.516 1436.19,330.917 1431.21,330.917Z" style="fill:white;fill-rule:nonzero;"/>
        <path d="M1492.5,412.191C1479.82,412.191 1473.72,406.09 1473.72,393.039C1473.72,372.721 1486.4,336.328 1510.54,336.328C1517.81,336.328 1524.23,339.511 1527.3,344.816C1528.47,347.097 1528.79,349.697 1528.79,352.721C1528.79,355.373 1528.58,358.079 1528.26,360.891L1530.65,360.891C1533.14,349.273 1535.42,341.58 1537.6,335.904L1535.21,335.904C1533.62,340.519 1532.29,342.429 1530.91,342.429C1530.28,342.429 1529.64,342.058 1529,341.421C1525.02,337.548 1520.67,334.365 1511.18,334.365C1482.85,334.365 1463.59,364.922 1463.59,389.485C1463.59,405.347 1473.19,414.366 1490.96,414.366C1498.07,414.366 1503.8,412.084 1509.48,408.477C1512.08,406.832 1512.71,406.62 1513.56,406.62C1514.78,406.62 1515.21,408.212 1515.21,409.962C1515.21,410.917 1515.05,411.978 1514.89,412.827L1517.07,412.827L1522.85,391.289C1525.02,383.278 1525.98,382.323 1530.86,381.952L1531.39,379.777C1528.79,380.042 1524.76,380.148 1519.98,380.148C1515.1,380.148 1508.58,380.042 1504.81,379.777L1504.23,381.952C1510.81,382.217 1513.35,382.96 1513.35,386.779C1513.35,388.212 1513.03,390.015 1512.4,392.403L1509.9,401.952C1509.16,404.657 1508.05,406.939 1504.92,408.795C1502.26,410.334 1497.7,412.191 1492.5,412.191Z" style="fill:white;fill-rule:nonzero;"/>
    </g>
    <g transform="matrix(0.866383,0,0,0.866383,232.688,2139.52)">
        <path d="M-13.916,127.671L-20.361,127.671L-114.502,370.054C-123.681,394.077 -135.595,402.476 -145.947,404.819L-145.947,412.827C-137.939,412.046 -129.541,411.655 -116.064,411.655C-102.002,411.655 -85.205,412.046 -69.97,412.827L-69.97,404.819C-92.822,404.233 -104.736,398.179 -104.736,380.796C-104.736,372.593 -102.197,361.851 -96.728,347.983L-80.322,305.601L16.162,305.601L40.772,371.226C43.897,379.233 45.459,385.288 45.459,389.976C45.459,401.108 36.475,404.038 17.139,404.819L17.139,412.827C28.467,412.046 47.608,411.655 68.311,411.655C83.545,411.655 100.342,412.046 111.28,412.827L111.28,404.819C102.881,404.429 91.553,399.546 83.545,379.233L-13.916,127.671ZM13.233,297.593L-77.392,297.593L-31.494,178.257L13.233,297.593Z" style="fill:white;fill-rule:nonzero;"/>
        <path d="M299.483,129.624C287.178,130.405 267.061,130.796 248.701,130.796C227.998,130.796 208.662,130.405 197.53,129.624L197.53,137.632C224.678,138.804 229.951,142.905 229.951,172.007L229.951,370.444C229.951,399.546 224.678,403.647 197.53,404.819L197.53,412.827C236.787,411.655 289.522,411.655 313.545,411.655C340.303,411.655 377.998,411.655 405.147,412.827C403.194,392.515 402.412,371.616 402.412,361.655C402.412,348.765 402.803,337.241 403.584,328.843L394.405,328.843C388.74,384.507 378.78,403.647 328.78,403.647L299.483,403.647C272.334,403.647 267.061,399.546 267.061,370.444L267.061,172.007C267.061,142.905 272.334,138.804 299.483,137.632L299.483,129.624Z" style="fill:white;fill-rule:nonzero;"/>
        <path d="M625.186,127.671L618.74,127.671L524.6,370.054C515.42,394.077 503.506,402.476 493.155,404.819L493.155,412.827C501.162,412.046 509.561,411.655 523.037,411.655C537.1,411.655 553.897,412.046 569.131,412.827L569.131,404.819C546.28,404.233 534.365,398.179 534.365,380.796C534.365,372.593 536.905,361.851 542.373,347.983L558.78,305.601L655.264,305.601L679.873,371.226C682.998,379.233 684.561,385.288 684.561,389.976C684.561,401.108 675.576,404.038 656.24,404.819L656.24,412.827C667.569,412.046 686.709,411.655 707.412,411.655C722.647,411.655 739.444,412.046 750.381,412.827L750.381,404.819C741.983,404.429 730.655,399.546 722.647,379.233L625.186,127.671ZM652.334,297.593L561.709,297.593L607.608,178.257L652.334,297.593Z" style="fill:white;fill-rule:nonzero;"/>
        <path d="M969.444,262.437C1014.17,248.765 1030.19,221.226 1030.19,192.905C1030.19,155.991 1001.87,130.015 945.811,130.015C936.24,130.015 910.655,130.796 885.459,130.796C867.881,130.796 847.764,130.405 836.631,129.624L836.631,137.632C863.78,138.804 869.053,142.905 869.053,172.007L869.053,370.444C869.053,399.546 863.78,403.647 836.631,404.819L836.631,412.827C847.764,412.046 867.49,411.655 886.24,411.655C919.053,411.655 943.076,412.827 954.99,412.827C1014.95,412.827 1051.08,380.796 1051.08,335.288C1051.08,302.866 1032.72,271.616 969.444,263.218L969.444,262.437ZM935.85,137.632C975.889,137.632 991.905,157.944 991.905,197.202C991.905,231.968 980.186,262.437 933.115,262.437L906.162,262.437L906.162,172.007C906.162,144.468 911.436,137.632 935.85,137.632ZM936.24,403.647C911.436,403.647 906.162,398.374 906.162,370.444L906.162,269.272L939.756,269.272C990.537,269.272 1011.05,292.905 1011.05,333.53C1011.05,378.452 988.584,403.647 936.24,403.647Z" style="fill:white;fill-rule:nonzero;"/>
        <path d="M1275.62,127.671L1269.17,127.671L1175.03,370.054C1165.85,394.077 1153.94,402.476 1143.58,404.819L1143.58,412.827C1151.59,412.046 1159.99,411.655 1173.47,411.655C1187.53,411.655 1204.33,412.046 1219.56,412.827L1219.56,404.819C1196.71,404.233 1184.8,398.179 1184.8,380.796C1184.8,372.593 1187.33,361.851 1192.8,347.983L1209.21,305.601L1305.69,305.601L1330.3,371.226C1333.43,379.233 1334.99,385.288 1334.99,389.976C1334.99,401.108 1326.01,404.038 1306.67,404.819L1306.67,412.827C1318,412.046 1337.14,411.655 1357.84,411.655C1373.08,411.655 1389.87,412.046 1400.81,412.827L1400.81,404.819C1392.41,404.429 1381.08,399.546 1373.08,379.233L1275.62,127.671ZM1302.76,297.593L1212.14,297.593L1258.04,178.257L1302.76,297.593Z" style="fill:white;fill-rule:nonzero;"/>
        <path d="M1801.9,129.624C1789.4,130.405 1769.48,130.796 1751.12,130.796L1732.18,130.796L1646.24,361.655L1558.35,129.624C1549.56,130.405 1535.89,130.796 1524.17,130.796C1510.69,130.796 1495.85,130.405 1487.06,129.624L1487.06,137.632C1514.21,138.804 1519.48,142.905 1519.48,172.007L1519.48,366.343C1519.48,395.64 1514.21,403.647 1487.06,404.819L1487.06,412.827C1495.85,412.046 1510.69,411.655 1524.17,411.655C1537.84,411.655 1555.42,412.046 1564.99,412.827L1564.99,404.819C1533.94,403.647 1528.66,395.64 1528.66,366.343L1528.66,155.21L1629.44,414.78L1635.89,414.78L1732.18,156.382L1732.18,370.444C1732.18,399.546 1727.1,403.647 1699.95,404.819L1699.95,412.827C1711.08,412.046 1730.23,411.655 1751.12,411.655C1769.48,411.655 1789.4,412.046 1801.9,412.827L1801.9,404.819C1774.76,403.647 1769.48,399.546 1769.48,370.444L1769.48,172.007C1769.48,142.905 1774.76,138.804 1801.9,137.632L1801.9,129.624Z" style="fill:white;fill-rule:nonzero;"/>
        <path d="M2028,127.671L2021.55,127.671L1927.41,370.054C1918.23,394.077 1906.32,402.476 1895.97,404.819L1895.97,412.827C1903.98,412.046 1912.37,411.655 1925.85,411.655C1939.91,411.655 1956.71,412.046 1971.94,412.827L1971.94,404.819C1949.09,404.233 1937.18,398.179 1937.18,380.796C1937.18,372.593 1939.72,361.851 1945.19,347.983L1961.59,305.601L2058.08,305.601L2082.69,371.226C2085.81,379.233 2087.37,385.288 2087.37,389.976C2087.37,401.108 2078.39,404.038 2059.05,404.819L2059.05,412.827C2070.38,412.046 2089.52,411.655 2110.22,411.655C2125.46,411.655 2142.26,412.046 2153.19,412.827L2153.19,404.819C2144.8,404.429 2133.47,399.546 2125.46,379.233L2028,127.671ZM2055.15,297.593L1964.52,297.593L2010.42,178.257L2055.15,297.593Z" style="fill:white;fill-rule:nonzero;"/>
    </g>
    <g transform="matrix(0.866383,0,0,0.866383,232.688,2477.13)">
        <path d="M-120.371,271.226C-132.773,271.812 -149.961,271.812 -162.168,271.812C-174.179,271.812 -200.547,271.812 -220.176,271.226L-220.176,275.23C-206.601,275.815 -203.965,277.866 -203.965,292.417L-203.965,391.636C-203.965,406.187 -206.601,408.237 -220.176,408.823L-220.176,412.827C-214.609,412.437 -204.941,412.241 -194.59,412.241C-183.75,412.241 -172.129,412.437 -165.195,412.827L-165.195,408.823C-181.992,408.237 -185.41,406.187 -185.41,391.636L-185.41,345.64L-170.761,345.64C-153.379,345.64 -153.183,359.214 -151.621,372.007L-146.933,372.007C-148.008,356.87 -148.203,350.23 -148.203,343.589C-148.203,340.659 -148.301,337.73 -148.301,334.116C-148.301,329.429 -148.203,323.667 -147.617,315.269L-152.207,315.269C-153.769,324.839 -153.379,341.636 -170.761,341.636L-185.41,341.636L-185.41,292.417C-185.41,277.866 -182.773,275.815 -169.199,275.815L-156.601,275.815C-131.601,275.815 -128.574,285.386 -125.742,313.218L-121.152,313.218C-121.543,309.019 -121.738,303.257 -121.738,296.812C-121.738,291.831 -121.347,281.382 -120.371,271.226Z" style="fill:white;fill-rule:nonzero;"/>
        <path d="M94.199,400.62C90.489,405.308 88.145,408.237 83.262,408.237C77.696,408.237 75.449,403.452 73.008,391.831L68.028,371.421C64.219,354.819 57.774,347.983 40,345.054L37.559,344.663C67.735,339.976 76.426,320.054 76.426,306.187C76.426,286.655 60.41,271.421 28.184,271.421C23.399,271.421 10.606,271.812 -1.992,271.812C-10.781,271.812 -20.84,271.616 -26.406,271.226L-26.406,275.23C-12.832,275.815 -10.195,277.866 -10.195,292.417L-10.195,391.636C-10.195,406.187 -12.832,408.237 -26.406,408.823L-26.406,412.827C-20.84,412.437 -11.172,412.241 -0.82,412.241C8.36,412.241 18.418,412.437 24.571,412.827L24.571,408.823C10.996,408.237 8.36,406.187 8.36,391.636L8.36,345.64L27.403,345.64C43.223,345.64 46.153,357.065 49.961,374.058L54.356,393.98C58.164,411.069 65.781,415.659 75.84,415.659C86.582,415.659 91.563,411.069 97.227,402.866L94.199,400.62ZM23.203,275.23C47.422,275.23 56.406,287.437 56.406,308.433C56.406,326.792 50.156,341.636 21.836,341.636L8.36,341.636L8.36,292.417C8.36,278.647 10.996,275.23 23.203,275.23Z" style="fill:white;fill-rule:nonzero;"/>
        <path d="M249.004,268.394C211.797,268.394 185.43,298.472 185.43,343.198C185.43,388.999 210.821,415.659 248.809,415.659C286.016,415.659 312.383,385.581 312.383,340.855C312.383,295.054 286.992,268.394 249.004,268.394ZM248.223,272.007C272.832,272.007 292.364,299.058 292.364,341.636C292.364,383.042 275.567,412.046 249.59,412.046C224.981,412.046 205.352,384.995 205.352,342.417C205.352,301.011 222.149,272.007 248.223,272.007Z" style="fill:white;fill-rule:nonzero;"/>
        <path d="M535.449,271.226C531.055,271.616 523.633,271.812 516.895,271.812C510.059,271.812 501.27,271.616 496.485,271.226L496.485,275.23C512.11,275.815 514.649,279.819 514.649,294.468L514.649,380.015L444.043,271.226C439.649,271.616 434.278,271.812 428.418,271.812C421.68,271.812 414.258,271.616 409.864,271.226L409.864,275.23C423.438,275.815 426.074,277.866 426.074,292.417L426.074,389.585C426.074,404.233 423.438,408.237 409.864,408.823L409.864,412.827C414.258,412.437 421.68,412.241 428.418,412.241C435.254,412.241 444.043,412.437 448.828,412.827L448.828,408.823C433.301,408.237 430.664,404.233 430.664,389.585L430.664,284.019L514.649,413.804L519.239,413.804L519.239,294.468C519.239,279.819 521.875,275.815 535.449,275.23L535.449,271.226Z" style="fill:white;fill-rule:nonzero;"/>
        <path d="M741.035,271.226C724.434,271.812 701.289,271.812 684.883,271.812C668.477,271.812 645.039,271.812 628.438,271.226C629.512,281.382 629.903,291.831 629.903,296.812C629.903,303.257 629.707,309.019 629.317,313.218L633.906,313.218C636.641,285.386 639.668,275.815 664.668,275.815L675.508,275.815L675.508,389.585C675.508,405.796 672.09,408.237 655.293,408.823L655.293,412.827C661.641,412.437 672.871,412.241 684.883,412.241C695.723,412.241 707.246,412.437 714.278,412.827L714.278,408.823C697.481,408.237 694.063,405.796 694.063,389.585L694.063,275.815L704.903,275.815C729.903,275.815 732.832,285.386 735.664,313.218L740.254,313.218C739.864,309.019 739.668,303.257 739.668,296.812C739.668,291.831 740.059,281.382 741.035,271.226Z" style="fill:white;fill-rule:nonzero;"/>
        <path d="M886.27,271.226C880.117,271.616 870.059,271.812 860.879,271.812C850.528,271.812 840.86,271.616 835.293,271.226L835.293,275.23C848.867,275.815 851.504,277.866 851.504,292.417L851.504,391.636C851.504,406.187 848.867,408.237 835.293,408.823L835.293,412.827C840.86,412.437 850.528,412.241 860.879,412.241C870.059,412.241 880.117,412.437 886.27,412.827L886.27,408.823C872.696,408.237 870.059,406.187 870.059,391.636L870.059,292.417C870.059,277.866 872.696,275.815 886.27,275.23L886.27,271.226Z" style="fill:white;fill-rule:nonzero;"/>
        <path d="M1085.51,387.241C1085.51,381.675 1085.7,376.401 1086.09,372.788L1081.5,372.788C1078.67,399.253 1073.69,408.237 1048.69,408.237L1034.04,408.237C1020.47,408.237 1017.83,406.187 1017.83,391.636L1017.83,343.589L1031.11,343.589C1048.5,343.589 1048.69,357.261 1050.25,370.054L1054.84,370.054C1053.87,354.819 1053.67,348.179 1053.67,341.636C1053.67,338.706 1053.57,335.776 1053.57,332.065C1053.57,327.476 1053.67,321.714 1054.26,313.218L1049.67,313.218C1048.11,322.788 1048.5,339.585 1031.11,339.585L1017.83,339.585L1017.83,292.417C1017.83,277.866 1020.47,275.815 1034.04,275.815L1050.64,275.815C1071.84,275.815 1074.86,283.628 1077.5,307.261L1082.09,307.261C1081.7,304.233 1081.5,299.644 1081.5,294.858C1081.5,290.269 1081.89,280.601 1082.87,271.226C1070.47,271.812 1053.28,271.812 1041.07,271.812C1029.06,271.812 1002.7,271.812 983.067,271.226L983.067,275.23C996.641,275.815 999.278,277.866 999.278,292.417L999.278,391.636C999.278,406.187 996.641,408.237 983.067,408.823L983.067,412.827C1002.7,412.241 1029.06,412.241 1041.07,412.241C1054.45,412.241 1073.3,412.241 1086.88,412.827C1085.9,402.671 1085.51,392.222 1085.51,387.241Z" style="fill:white;fill-rule:nonzero;"/>
        <path d="M1305.45,400.62C1301.74,405.308 1299.39,408.237 1294.51,408.237C1288.95,408.237 1286.7,403.452 1284.26,391.831L1279.28,371.421C1275.47,354.819 1269.02,347.983 1251.25,345.054L1248.81,344.663C1278.99,339.976 1287.68,320.054 1287.68,306.187C1287.68,286.655 1271.66,271.421 1239.43,271.421C1234.65,271.421 1221.86,271.812 1209.26,271.812C1200.47,271.812 1190.41,271.616 1184.84,271.226L1184.84,275.23C1198.42,275.815 1201.06,277.866 1201.06,292.417L1201.06,391.636C1201.06,406.187 1198.42,408.237 1184.84,408.823L1184.84,412.827C1190.41,412.437 1200.08,412.241 1210.43,412.241C1219.61,412.241 1229.67,412.437 1235.82,412.827L1235.82,408.823C1222.25,408.237 1219.61,406.187 1219.61,391.636L1219.61,345.64L1238.65,345.64C1254.47,345.64 1257.4,357.065 1261.21,374.058L1265.61,393.98C1269.41,411.069 1277.03,415.659 1287.09,415.659C1297.83,415.659 1302.81,411.069 1308.48,402.866L1305.45,400.62ZM1234.45,275.23C1258.67,275.23 1267.66,287.437 1267.66,308.433C1267.66,326.792 1261.41,341.636 1233.09,341.636L1219.61,341.636L1219.61,292.417C1219.61,278.647 1222.25,275.23 1234.45,275.23Z" style="fill:white;fill-rule:nonzero;"/>
        <path d="M1576.39,271.226C1568.77,271.226 1555.39,271.616 1546.21,271.812C1544.55,271.812 1542.99,271.909 1541.33,271.909C1533.91,271.909 1526.39,271.519 1521.8,271.226L1521.8,275.23C1535.37,275.815 1538.01,277.866 1538.01,292.417L1538.01,391.636C1538.01,406.187 1535.37,408.237 1521.8,408.823L1521.8,412.827C1527.36,412.437 1537.23,412.241 1546.6,412.241C1555.2,412.241 1568.57,412.827 1574.63,412.827C1620.62,412.827 1646.99,384.019 1646.99,340.464C1646.99,295.835 1624.04,271.226 1576.39,271.226ZM1571.41,274.839C1612.81,274.839 1626.97,296.421 1626.97,341.245C1626.97,384.8 1615.16,409.214 1571.6,409.214C1559.2,409.214 1556.56,405.991 1556.56,392.026L1556.56,292.026C1556.56,278.257 1559.2,274.839 1571.41,274.839Z" style="fill:white;fill-rule:nonzero;"/>
        <path d="M1798.48,270.249L1795.25,270.249L1748.18,391.44C1743.59,403.452 1737.64,407.651 1732.46,408.823L1732.46,412.827C1736.47,412.437 1740.66,412.241 1747.4,412.241C1754.43,412.241 1762.83,412.437 1770.45,412.827L1770.45,408.823C1759.02,408.53 1753.07,405.503 1753.07,396.812C1753.07,392.71 1754.34,387.339 1757.07,380.405L1765.27,359.214L1813.52,359.214L1825.82,392.026C1827.38,396.03 1828.16,399.058 1828.16,401.401C1828.16,406.968 1823.67,408.433 1814,408.823L1814,412.827C1819.67,412.437 1829.24,412.241 1839.59,412.241C1847.21,412.241 1855.61,412.437 1861.07,412.827L1861.07,408.823C1856.88,408.628 1851.21,406.187 1847.21,396.03L1798.48,270.249ZM1812.05,355.21L1766.74,355.21L1789.69,295.542L1812.05,355.21Z" style="fill:white;fill-rule:nonzero;"/>
        <path d="M2032.48,271.812C2025.45,271.812 2017.05,271.616 2009.43,271.226L2009.43,275.23C2020.57,275.522 2027.11,277.964 2027.11,285.874C2027.11,289.976 2025.35,295.542 2021.64,303.062L1996.15,353.843L1962.85,290.073C1961.39,287.241 1960.8,284.995 1960.8,283.14C1960.8,277.183 1967.25,275.425 1974.86,275.425L1974.86,271.226C1966.27,271.812 1955.62,271.812 1946.84,271.812C1940,271.812 1934.43,271.616 1929.26,271.226L1929.26,275.425C1932.09,275.425 1935.41,276.792 1940.88,286.655L1981.41,361.46L1981.41,391.636C1981.41,406.187 1978.87,408.237 1965.2,408.823L1965.2,412.827C1970.86,412.437 1980.43,412.241 1990.88,412.241C2000.06,412.241 2010.02,412.437 2016.27,412.827L2016.27,408.823C2002.6,408.237 2000.06,406.187 2000.06,391.636L2000.06,355.21L2031.41,293.003C2037.46,281.187 2042.25,276.401 2047.42,275.23L2047.42,271.226C2043.42,271.616 2039.22,271.812 2032.48,271.812Z" style="fill:white;fill-rule:nonzero;"/>
        <path d="M2179.18,268.98C2159.45,268.98 2141.58,280.015 2141.58,303.647C2141.58,326.206 2158.18,337.046 2177.23,348.472C2195.78,359.605 2208.38,368.784 2208.38,384.995C2208.38,403.843 2195.39,411.655 2182.4,411.655C2156.82,411.655 2147.64,390.464 2145.98,366.245L2141.39,366.245C2141.39,394.468 2141.19,405.991 2140.61,414.194L2145.2,414.194C2145.98,408.433 2147.05,405.405 2149.59,405.405C2151.25,405.405 2153.2,406.187 2156.43,408.237C2162.19,411.851 2169.61,415.659 2183.77,415.659C2207.01,415.659 2226.25,403.062 2226.25,377.671C2226.25,356.187 2211.02,345.64 2190.22,332.651C2172.25,321.421 2156.62,314.194 2156.62,296.03C2156.62,282.261 2166.78,272.788 2181.03,272.788C2203.2,272.788 2212.38,292.222 2213.85,311.265L2218.44,311.265C2218.44,286.069 2218.83,277.476 2219.41,270.444L2214.82,270.444C2214.04,276.206 2212.97,279.233 2210.43,279.233C2208.57,279.233 2206.82,278.452 2203.59,276.401C2198.22,272.788 2192.36,268.98 2179.18,268.98Z" style="fill:white;fill-rule:nonzero;"/>
    </g>
    <g transform="matrix(0.866383,0,0,0.866383,232.688,1303.22)">
        <path d="M-65.863,249.387C-80.179,250.064 -100.017,250.064 -114.106,250.064C-127.971,250.064 -158.404,250.064 -181.06,249.387L-181.06,254.009C-165.393,254.685 -162.349,257.052 -162.349,273.847L-162.349,388.368C-162.349,405.162 -165.393,407.529 -181.06,408.206L-181.06,412.827C-174.635,412.376 -163.476,412.151 -151.528,412.151C-139.017,412.151 -125.604,412.376 -117.601,412.827L-117.601,408.206C-136.988,407.529 -140.933,405.162 -140.933,388.368L-140.933,335.278L-124.025,335.278C-103.962,335.278 -103.736,350.945 -101.933,365.711L-96.523,365.711C-97.762,348.24 -97.988,340.575 -97.988,332.911C-97.988,329.529 -98.101,326.148 -98.101,321.977C-98.101,316.567 -97.988,309.916 -97.312,300.223L-102.609,300.223C-104.413,311.269 -103.962,330.656 -124.025,330.656L-140.933,330.656L-140.933,273.847C-140.933,257.052 -137.89,254.685 -122.222,254.685L-107.682,254.685C-78.826,254.685 -75.332,265.731 -72.063,297.856L-66.765,297.856C-67.216,293.009 -67.441,286.359 -67.441,278.919C-67.441,273.171 -66.991,261.11 -65.863,249.387Z" style="fill:white;fill-rule:nonzero;"/>
        <path d="M70.141,246.118C27.196,246.118 -3.238,280.835 -3.238,332.46C-3.238,385.324 26.069,416.096 69.916,416.096C112.861,416.096 143.295,381.379 143.295,329.755C143.295,276.89 113.988,246.118 70.141,246.118ZM69.239,250.289C97.644,250.289 120.188,281.512 120.188,330.656C120.188,378.448 100.8,411.925 70.817,411.925C42.413,411.925 19.757,380.703 19.757,331.558C19.757,283.766 39.144,250.289 69.239,250.289Z" style="fill:white;fill-rule:nonzero;"/>
        <path d="M348.846,398.738C344.562,404.148 341.857,407.529 336.221,407.529C329.796,407.529 327.204,402.006 324.386,388.593L318.637,365.035C314.241,345.873 306.802,337.983 286.288,334.601L283.47,334.151C318.299,328.74 328.331,305.746 328.331,289.74C328.331,267.197 309.845,249.613 272.649,249.613C267.126,249.613 252.36,250.064 237.819,250.064C227.675,250.064 216.065,249.838 209.64,249.387L209.64,254.009C225.308,254.685 228.351,257.052 228.351,273.847L228.351,388.368C228.351,405.162 225.308,407.529 209.64,408.206L209.64,412.827C216.065,412.376 227.224,412.151 239.172,412.151C249.767,412.151 261.377,412.376 268.478,412.827L268.478,408.206C252.811,407.529 249.767,405.162 249.767,388.368L249.767,335.278L271.747,335.278C290.007,335.278 293.389,348.466 297.785,368.078L302.857,391.073C307.253,410.798 316.045,416.096 327.655,416.096C340.054,416.096 345.802,410.798 352.34,401.33L348.846,398.738ZM266.9,254.009C294.854,254.009 305.224,268.098 305.224,292.333C305.224,313.523 298.01,330.656 265.322,330.656L249.767,330.656L249.767,273.847C249.767,257.954 252.811,254.009 266.9,254.009Z" style="fill:white;fill-rule:nonzero;"/>
        <path d="M530.726,249.387C511.564,250.064 484.85,250.064 465.914,250.064C446.977,250.064 419.925,250.064 400.763,249.387C402.003,261.11 402.454,273.171 402.454,278.919C402.454,286.359 402.228,293.009 401.778,297.856L407.075,297.856C410.231,265.731 413.726,254.685 442.581,254.685L455.093,254.685L455.093,386C455.093,404.712 451.148,407.529 431.76,408.206L431.76,412.827C439.087,412.376 452.049,412.151 465.914,412.151C478.425,412.151 491.726,412.376 499.841,412.827L499.841,408.206C480.454,407.529 476.509,404.712 476.509,386L476.509,254.685L489.021,254.685C517.876,254.685 521.258,265.731 524.526,297.856L529.824,297.856C529.373,293.009 529.148,286.359 529.148,278.919C529.148,273.171 529.599,261.11 530.726,249.387Z" style="fill:white;fill-rule:nonzero;"/>
        <path d="M812.88,249.387C793.718,250.064 767.004,250.064 748.067,250.064C729.131,250.064 702.079,250.064 682.917,249.387C684.157,261.11 684.607,273.171 684.607,278.919C684.607,286.359 684.382,293.009 683.931,297.856L689.229,297.856C692.385,265.731 695.879,254.685 724.735,254.685L737.246,254.685L737.246,386C737.246,404.712 733.301,407.529 713.914,408.206L713.914,412.827C721.24,412.376 734.203,412.151 748.067,412.151C760.579,412.151 773.879,412.376 781.995,412.827L781.995,408.206C762.608,407.529 758.663,404.712 758.663,386L758.663,254.685L771.174,254.685C800.03,254.685 803.411,265.731 806.68,297.856L811.978,297.856C811.527,293.009 811.301,286.359 811.301,278.919C811.301,273.171 811.752,261.11 812.88,249.387Z" style="fill:white;fill-rule:nonzero;"/>
        <path d="M951.477,246.118C908.531,246.118 878.098,280.835 878.098,332.46C878.098,385.324 907.404,416.096 951.251,416.096C994.196,416.096 1024.63,381.379 1024.63,329.755C1024.63,276.89 995.324,246.118 951.477,246.118ZM950.575,250.289C978.98,250.289 1001.52,281.512 1001.52,330.656C1001.52,378.448 982.136,411.925 952.153,411.925C923.748,411.925 901.092,380.703 901.092,331.558C901.092,283.766 920.479,250.289 950.575,250.289Z" style="fill:white;fill-rule:nonzero;"/>
        <path d="M1232.89,249.387C1227.81,249.838 1219.36,250.064 1211.47,250.064C1203.58,250.064 1193.43,249.838 1187.91,249.387L1187.91,254.009C1203.58,254.685 1208.88,259.306 1208.88,276.214L1208.88,348.24C1208.88,382.619 1199.41,407.98 1164.58,407.98C1131.78,407.98 1128.17,381.943 1128.17,350.269L1128.17,273.847C1128.17,257.052 1131.1,254.685 1146.88,254.009L1146.88,249.387C1139.67,249.838 1128.17,250.064 1117.46,250.064C1105.52,250.064 1094.47,249.838 1087.93,249.387L1087.93,254.009C1103.71,254.685 1106.64,257.052 1106.64,273.847L1106.64,346.324C1106.64,377.772 1110.14,390.847 1123.78,403.584C1133.92,413.053 1147.79,416.096 1162.55,416.096C1181.49,416.096 1197.15,407.529 1204.82,394.567C1211.69,382.844 1214.29,367.064 1214.29,345.648L1214.29,276.214C1214.29,259.306 1217.22,254.685 1232.89,254.009L1232.89,249.387Z" style="fill:white;fill-rule:nonzero;"/>
        <path d="M1353.9,249.387C1346.8,249.838 1335.19,250.064 1324.59,250.064C1312.64,250.064 1301.49,249.838 1295.06,249.387L1295.06,254.009C1310.73,254.685 1313.77,257.052 1313.77,273.847L1313.77,388.368C1313.77,405.162 1310.73,407.529 1295.06,408.206L1295.06,412.827C1317.72,412.151 1348.15,412.151 1362.02,412.151C1377.46,412.151 1399.21,412.151 1414.88,412.827C1413.75,401.105 1413.3,389.044 1413.3,383.295C1413.3,375.856 1413.53,369.206 1413.98,364.359L1408.68,364.359C1405.41,396.483 1399.66,407.529 1370.81,407.529L1353.9,407.529C1338.23,407.529 1335.19,405.162 1335.19,388.368L1335.19,273.847C1335.19,257.052 1338.23,254.685 1353.9,254.009L1353.9,249.387Z" style="fill:white;fill-rule:nonzero;"/>
        <path d="M1552.91,246.118C1509.97,246.118 1479.53,280.835 1479.53,332.46C1479.53,385.324 1508.84,416.096 1552.69,416.096C1595.63,416.096 1626.07,381.379 1626.07,329.755C1626.07,276.89 1596.76,246.118 1552.91,246.118ZM1552.01,250.289C1580.42,250.289 1602.96,281.512 1602.96,330.656C1602.96,378.448 1583.57,411.925 1553.59,411.925C1525.18,411.925 1502.53,380.703 1502.53,331.558C1502.53,283.766 1521.92,250.289 1552.01,250.289Z" style="fill:white;fill-rule:nonzero;"/>
        <path d="M1834.32,249.387C1829.25,249.838 1820.8,250.064 1812.91,250.064C1805.02,250.064 1794.87,249.838 1789.35,249.387L1789.35,254.009C1805.02,254.685 1810.31,259.306 1810.31,276.214L1810.31,348.24C1810.31,382.619 1800.85,407.98 1766.02,407.98C1733.22,407.98 1729.61,381.943 1729.61,350.269L1729.61,273.847C1729.61,257.052 1732.54,254.685 1748.32,254.009L1748.32,249.387C1741.11,249.838 1729.61,250.064 1718.9,250.064C1706.95,250.064 1695.91,249.838 1689.37,249.387L1689.37,254.009C1705.15,254.685 1708.08,257.052 1708.08,273.847L1708.08,346.324C1708.08,377.772 1711.57,390.847 1725.21,403.584C1735.36,413.053 1749.22,416.096 1763.99,416.096C1782.92,416.096 1798.59,407.529 1806.26,394.567C1813.13,382.844 1815.72,367.064 1815.72,345.648L1815.72,276.214C1815.72,259.306 1818.65,254.685 1834.32,254.009L1834.32,249.387Z" style="fill:white;fill-rule:nonzero;"/>
        <path d="M1945.87,246.795C1923.1,246.795 1902.47,259.532 1902.47,286.809C1902.47,312.847 1921.63,325.359 1943.61,338.547C1965.03,351.396 1979.57,361.992 1979.57,380.703C1979.57,402.457 1964.58,411.475 1949.59,411.475C1920.06,411.475 1909.46,387.015 1907.54,359.061L1902.25,359.061C1902.25,391.636 1902.02,404.937 1901.34,414.405L1906.64,414.405C1907.54,407.755 1908.78,404.261 1911.71,404.261C1913.63,404.261 1915.88,405.162 1919.6,407.529C1926.26,411.7 1934.82,416.096 1951.16,416.096C1977.99,416.096 2000.2,401.555 2000.2,372.249C2000.2,347.451 1982.61,335.278 1958.6,320.286C1937.86,307.324 1919.83,298.983 1919.83,278.017C1919.83,262.124 1931.55,251.191 1948.01,251.191C1973.6,251.191 1984.19,273.621 1985.88,295.601L1991.18,295.601C1991.18,266.52 1991.63,256.601 1992.31,248.486L1987.01,248.486C1986.11,255.136 1984.87,258.63 1981.94,258.63C1979.8,258.63 1977.77,257.728 1974.05,255.361C1967.85,251.191 1961.08,246.795 1945.87,246.795Z" style="fill:white;fill-rule:nonzero;"/>
        <path d="M2185.57,383.295C2185.57,376.87 2185.8,370.784 2186.25,366.613L2180.95,366.613C2177.68,397.159 2171.93,407.529 2143.08,407.529L2126.17,407.529C2110.5,407.529 2107.46,405.162 2107.46,388.368L2107.46,332.911L2122.79,332.911C2142.85,332.911 2143.08,348.691 2144.88,363.457L2150.18,363.457C2149.05,345.873 2148.83,338.208 2148.83,330.656C2148.83,327.275 2148.71,323.893 2148.71,319.61C2148.71,314.312 2148.83,307.662 2149.5,297.856L2144.2,297.856C2142.4,308.902 2142.85,328.289 2122.79,328.289L2107.46,328.289L2107.46,273.847C2107.46,257.052 2110.5,254.685 2126.17,254.685L2145.33,254.685C2169.79,254.685 2173.28,263.702 2176.33,290.98L2181.63,290.98C2181.18,287.486 2180.95,282.188 2180.95,276.665C2180.95,271.367 2181.4,260.208 2182.53,249.387C2168.21,250.064 2148.38,250.064 2134.28,250.064C2120.42,250.064 2089.99,250.064 2067.33,249.387L2067.33,254.009C2083,254.685 2086.04,257.052 2086.04,273.847L2086.04,388.368C2086.04,405.162 2083,407.529 2067.33,408.206L2067.33,412.827C2089.99,412.151 2120.42,412.151 2134.28,412.151C2149.73,412.151 2171.48,412.151 2187.15,412.827C2186.02,401.105 2185.57,389.044 2185.57,383.295Z" style="fill:white;fill-rule:nonzero;"/>
    </g>
    <g transform="matrix(0.866383,0,0,0.866383,232.688,1713.23)">
        <path d="M1119.62,162.764C1110.83,162.764 1102.21,164.286 1094.26,167.667C1084.96,171.894 1077.02,179.503 1077.02,189.478C1077.02,198.777 1083.61,204.019 1092.57,204.019C1104.41,204.019 1115.39,195.058 1115.39,184.237C1115.39,179.164 1113.03,173.923 1108.12,171.049C1109.48,169.02 1113.7,168.005 1119.28,168.005C1138.56,168.005 1153.44,180.855 1153.44,197.763C1153.44,215.178 1138.22,226.506 1117.76,236.312C1091.89,248.655 1044.72,264.21 1028.15,270.465C992.816,283.653 970.667,299.208 970.667,327.613C970.667,353.651 989.434,361.597 1008.03,361.597C1031.53,361.597 1043.03,349.086 1049.29,338.772L1044.72,335.56C1041.68,340.463 1030.52,356.018 1009.38,356.018C993.83,356.018 979.966,347.733 979.966,332.854C979.966,313.749 1002.12,304.111 1016.32,298.532C1027.98,293.967 1043.88,288.218 1060.28,282.132C1076.68,293.967 1083.61,311.889 1083.61,327.613C1083.61,366.839 1042.02,392.031 988.251,392.031C938.204,392.031 901.346,370.22 901.346,328.627C901.346,297.179 922.818,269.789 954.435,260.49C959.169,262.857 969.652,268.098 978.275,268.098C983.516,268.098 989.096,266.069 989.096,260.828C989.096,255.925 984.531,253.558 976.584,253.558C972.357,253.558 963.058,254.234 954.774,255.587C949.194,246.288 947.165,236.312 947.165,226.844C947.165,197.087 967.623,175.276 996.028,175.276C1014.96,175.276 1029.51,184.913 1029.51,200.637C1029.51,212.641 1020.54,219.574 1008.03,219.574L1007.36,225.829C1021.22,225.829 1036.78,217.545 1036.78,199.792C1036.78,181.87 1020.21,169.696 994.168,169.696C963.058,169.696 925.692,187.111 925.692,218.897C925.692,234.114 933.977,248.993 949.87,257.616C907.601,269.451 875.477,303.097 875.477,344.69C875.477,390.34 914.195,417.73 975.232,417.73C1048.61,417.73 1090.54,377.49 1090.54,332.178C1090.54,310.874 1081.24,293.798 1065.35,280.272C1086.14,272.663 1107.11,264.717 1120.64,258.123C1150.39,243.075 1162.91,225.491 1162.91,202.328C1162.91,174.599 1144.82,162.764 1119.62,162.764Z" style="fill:white;fill-rule:nonzero;"/>
    </g>
    <g transform="matrix(0.934075,0,0,0.934075,-56.1056,1672.66)">
        <g transform="matrix(1,0,0,1,237.206,1147.72)">
            <path d="M39.846,359.727C35.196,359.946 28.75,359.946 24.173,359.946C19.668,359.946 9.781,359.946 2.42,359.727L2.42,361.228C7.51,361.448 8.499,362.217 8.499,367.673L8.499,404.88C8.499,410.337 7.51,411.106 2.42,411.326L2.42,412.827C4.507,412.681 8.133,412.607 12.014,412.607C16.079,412.607 20.437,412.681 23.037,412.827L23.037,411.326C16.739,411.106 15.457,410.337 15.457,404.88L15.457,387.632L20.95,387.632C27.469,387.632 27.542,392.722 28.128,397.52L29.886,397.52C29.483,391.843 29.409,389.353 29.409,386.863C29.409,385.764 29.373,384.666 29.373,383.311C29.373,381.553 29.409,379.392 29.629,376.243L27.908,376.243C27.322,379.832 27.469,386.13 20.95,386.13L15.457,386.13L15.457,367.673C15.457,362.217 16.446,361.448 21.536,361.448L26.26,361.448C35.635,361.448 36.77,365.037 37.832,375.474L39.553,375.474C39.407,373.899 39.334,371.738 39.334,369.321C39.334,367.454 39.48,363.535 39.846,359.727Z" style="fill:white;fill-rule:nonzero;"/>
            <path d="M99.033,358.665C85.081,358.665 75.193,369.944 75.193,386.716C75.193,403.892 84.715,413.889 98.96,413.889C112.913,413.889 122.801,402.61 122.801,385.837C122.801,368.662 113.279,358.665 99.033,358.665ZM98.74,360.02C107.969,360.02 115.293,370.164 115.293,386.13C115.293,401.658 108.994,412.534 99.253,412.534C90.025,412.534 82.664,402.39 82.664,386.423C82.664,370.896 88.963,360.02 98.74,360.02Z" style="fill:white;fill-rule:nonzero;"/>
            <path d="M204.583,408.25C203.191,410.007 202.312,411.106 200.481,411.106C198.394,411.106 197.552,409.312 196.636,404.954L194.768,397.3C193.34,391.074 190.923,388.511 184.258,387.412L183.343,387.266C194.658,385.508 197.918,378.037 197.918,372.837C197.918,365.513 191.912,359.8 179.827,359.8C178.032,359.8 173.235,359.946 168.511,359.946C165.215,359.946 161.443,359.873 159.356,359.727L159.356,361.228C164.446,361.448 165.435,362.217 165.435,367.673L165.435,404.88C165.435,410.337 164.446,411.106 159.356,411.326L159.356,412.827C161.443,412.681 165.069,412.607 168.95,412.607C172.393,412.607 176.165,412.681 178.472,412.827L178.472,411.326C173.382,411.106 172.393,410.337 172.393,404.88L172.393,387.632L179.534,387.632C185.467,387.632 186.565,391.917 187.993,398.289L189.641,405.759C191.07,412.168 193.926,413.889 197.698,413.889C201.726,413.889 203.594,412.168 205.718,409.092L204.583,408.25ZM177.959,361.228C187.041,361.228 190.41,365.806 190.41,373.679C190.41,380.564 188.067,386.13 177.447,386.13L172.393,386.13L172.393,367.673C172.393,362.51 173.382,361.228 177.959,361.228Z" style="fill:white;fill-rule:nonzero;"/>
            <path d="M278.675,359.727C272.449,359.946 263.77,359.946 257.617,359.946C251.465,359.946 242.676,359.946 236.45,359.727C236.853,363.535 237,367.454 237,369.321C237,371.738 236.927,373.899 236.78,375.474L238.501,375.474C239.527,365.037 240.662,361.448 250.037,361.448L254.102,361.448L254.102,404.111C254.102,410.19 252.82,411.106 246.521,411.326L246.521,412.827C248.902,412.681 253.113,412.607 257.617,412.607C261.682,412.607 266.004,412.681 268.64,412.827L268.64,411.326C262.342,411.106 261.06,410.19 261.06,404.111L261.06,361.448L265.125,361.448C274.5,361.448 275.598,365.037 276.66,375.474L278.382,375.474C278.235,373.899 278.162,371.738 278.162,369.321C278.162,367.454 278.308,363.535 278.675,359.727Z" style="fill:white;fill-rule:nonzero;"/>
            <path d="M400.344,359.727C394.119,359.946 385.44,359.946 379.287,359.946C373.135,359.946 364.346,359.946 358.12,359.727C358.523,363.535 358.67,367.454 358.67,369.321C358.67,371.738 358.596,373.899 358.45,375.474L360.171,375.474C361.197,365.037 362.332,361.448 371.707,361.448L375.772,361.448L375.772,404.111C375.772,410.19 374.49,411.106 368.191,411.326L368.191,412.827C370.572,412.681 374.783,412.607 379.287,412.607C383.352,412.607 387.674,412.681 390.31,412.827L390.31,411.326C384.011,411.106 382.73,410.19 382.73,404.111L382.73,361.448L386.795,361.448C396.17,361.448 397.268,365.037 398.33,375.474L400.052,375.474C399.905,373.899 399.832,371.738 399.832,369.321C399.832,367.454 399.978,363.535 400.344,359.727Z" style="fill:white;fill-rule:nonzero;"/>
            <path d="M460.374,358.665C446.421,358.665 436.533,369.944 436.533,386.716C436.533,403.892 446.055,413.889 460.301,413.889C474.253,413.889 484.141,402.61 484.141,385.837C484.141,368.662 474.619,358.665 460.374,358.665ZM460.081,360.02C469.309,360.02 476.634,370.164 476.634,386.13C476.634,401.658 470.335,412.534 460.594,412.534C451.365,412.534 444.004,402.39 444.004,386.423C444.004,370.896 450.303,360.02 460.081,360.02Z" style="fill:white;fill-rule:nonzero;"/>
            <path d="M566.802,359.727C565.154,359.873 562.407,359.946 559.844,359.946C557.281,359.946 553.985,359.873 552.19,359.727L552.19,361.228C557.281,361.448 559.002,362.949 559.002,368.442L559.002,391.843C559.002,403.013 555.926,411.252 544.61,411.252C533.953,411.252 532.781,402.793 532.781,392.502L532.781,367.673C532.781,362.217 533.733,361.448 538.86,361.228L538.86,359.727C536.516,359.873 532.781,359.946 529.302,359.946C525.42,359.946 521.831,359.873 519.707,359.727L519.707,361.228C524.834,361.448 525.786,362.217 525.786,367.673L525.786,391.221C525.786,401.438 526.922,405.686 531.353,409.824C534.649,412.9 539.153,413.889 543.95,413.889C550.103,413.889 555.193,411.106 557.683,406.895C559.917,403.086 560.76,397.959 560.76,391.001L560.76,368.442C560.76,362.949 561.712,361.448 566.802,361.228L566.802,359.727Z" style="fill:white;fill-rule:nonzero;"/>
            <path d="M621.118,359.727C618.811,359.873 615.039,359.946 611.597,359.946C607.715,359.946 604.09,359.873 602.002,359.727L602.002,361.228C607.093,361.448 608.081,362.217 608.081,367.673L608.081,404.88C608.081,410.337 607.093,411.106 602.002,411.326L602.002,412.827C609.363,412.607 619.251,412.607 623.755,412.607C628.772,412.607 635.84,412.607 640.93,412.827C640.564,409.019 640.418,405.1 640.418,403.232C640.418,400.815 640.491,398.655 640.637,397.08L638.916,397.08C637.854,407.517 635.987,411.106 626.612,411.106L621.118,411.106C616.028,411.106 615.039,410.337 615.039,404.88L615.039,367.673C615.039,362.217 616.028,361.448 621.118,361.228L621.118,359.727Z" style="fill:white;fill-rule:nonzero;"/>
            <path d="M700.777,358.665C686.824,358.665 676.936,369.944 676.936,386.716C676.936,403.892 686.458,413.889 700.703,413.889C714.656,413.889 724.544,402.61 724.544,385.837C724.544,368.662 715.022,358.665 700.777,358.665ZM700.484,360.02C709.712,360.02 717.036,370.164 717.036,386.13C717.036,401.658 710.738,412.534 700.996,412.534C691.768,412.534 684.407,402.39 684.407,386.423C684.407,370.896 690.706,360.02 700.484,360.02Z" style="fill:white;fill-rule:nonzero;"/>
            <path d="M807.205,359.727C805.557,359.873 802.81,359.946 800.247,359.946C797.683,359.946 794.387,359.873 792.593,359.727L792.593,361.228C797.683,361.448 799.405,362.949 799.405,368.442L799.405,391.843C799.405,403.013 796.328,411.252 785.012,411.252C774.356,411.252 773.184,402.793 773.184,392.502L773.184,367.673C773.184,362.217 774.136,361.448 779.263,361.228L779.263,359.727C776.919,359.873 773.184,359.946 769.705,359.946C765.823,359.946 762.234,359.873 760.11,359.727L760.11,361.228C765.237,361.448 766.189,362.217 766.189,367.673L766.189,391.221C766.189,401.438 767.324,405.686 771.756,409.824C775.052,412.9 779.556,413.889 784.353,413.889C790.506,413.889 795.596,411.106 798.086,406.895C800.32,403.086 801.162,397.959 801.162,391.001L801.162,368.442C801.162,362.949 802.115,361.448 807.205,361.228L807.205,359.727Z" style="fill:white;fill-rule:nonzero;"/>
            <path d="M858.445,358.884C851.048,358.884 844.346,363.022 844.346,371.885C844.346,380.344 850.572,384.409 857.713,388.694C864.671,392.869 869.395,396.311 869.395,402.39C869.395,409.458 864.524,412.388 859.654,412.388C850.059,412.388 846.616,404.441 845.994,395.359L844.273,395.359C844.273,405.942 844.199,410.264 843.98,413.34L845.701,413.34C845.994,411.179 846.397,410.044 847.349,410.044C847.971,410.044 848.704,410.337 849.912,411.106C852.073,412.461 854.856,413.889 860.166,413.889C868.882,413.889 876.096,409.165 876.096,399.644C876.096,391.587 870.384,387.632 862.583,382.761C855.845,378.55 849.986,375.84 849.986,369.028C849.986,363.865 853.794,360.313 859.141,360.313C867.454,360.313 870.896,367.6 871.446,374.741L873.167,374.741C873.167,365.293 873.313,362.07 873.533,359.434L871.812,359.434C871.519,361.594 871.116,362.73 870.164,362.73C869.468,362.73 868.809,362.437 867.6,361.667C865.586,360.313 863.389,358.884 858.445,358.884Z" style="fill:white;fill-rule:nonzero;"/>
            <path d="M951.323,403.232C951.323,401.145 951.397,399.167 951.543,397.813L949.822,397.813C948.76,407.737 946.892,411.106 937.517,411.106L932.024,411.106C926.934,411.106 925.945,410.337 925.945,404.88L925.945,386.863L930.926,386.863C937.444,386.863 937.517,391.99 938.103,396.787L939.824,396.787C939.458,391.074 939.385,388.584 939.385,386.13C939.385,385.032 939.348,383.933 939.348,382.542C939.348,380.82 939.385,378.66 939.605,375.474L937.884,375.474C937.298,379.063 937.444,385.361 930.926,385.361L925.945,385.361L925.945,367.673C925.945,362.217 926.934,361.448 932.024,361.448L938.25,361.448C946.197,361.448 947.332,364.377 948.321,373.24L950.042,373.24C949.895,372.105 949.822,370.383 949.822,368.589C949.822,366.868 949.969,363.242 950.335,359.727C945.684,359.946 939.239,359.946 934.661,359.946C930.156,359.946 920.269,359.946 912.908,359.727L912.908,361.228C917.998,361.448 918.987,362.217 918.987,367.673L918.987,404.88C918.987,410.337 917.998,411.106 912.908,411.326L912.908,412.827C920.269,412.607 930.156,412.607 934.661,412.607C939.678,412.607 946.746,412.607 951.836,412.827C951.47,409.019 951.323,405.1 951.323,403.232Z" style="fill:white;fill-rule:nonzero;"/>
            <rect x="1039.27" y="390.488" width="27.1" height="4.321" style="fill:white;fill-rule:nonzero;"/>
            <path d="M1190.78,359.727C1186.13,359.946 1179.68,359.946 1175.11,359.946C1170.6,359.946 1160.72,359.946 1153.36,359.727L1153.36,361.228C1158.44,361.448 1159.43,362.217 1159.43,367.673L1159.43,404.88C1159.43,410.337 1158.44,411.106 1153.36,411.326L1153.36,412.827C1155.44,412.681 1159.07,412.607 1162.95,412.607C1167.01,412.607 1171.37,412.681 1173.97,412.827L1173.97,411.326C1167.67,411.106 1166.39,410.337 1166.39,404.88L1166.39,387.632L1171.88,387.632C1178.4,387.632 1178.48,392.722 1179.06,397.52L1180.82,397.52C1180.42,391.843 1180.34,389.353 1180.34,386.863C1180.34,385.764 1180.31,384.666 1180.31,383.311C1180.31,381.553 1180.34,379.392 1180.56,376.243L1178.84,376.243C1178.26,379.832 1178.4,386.13 1171.88,386.13L1166.39,386.13L1166.39,367.673C1166.39,362.217 1167.38,361.448 1172.47,361.448L1177.19,361.448C1186.57,361.448 1187.7,365.037 1188.77,375.474L1190.49,375.474C1190.34,373.899 1190.27,371.738 1190.27,369.321C1190.27,367.454 1190.41,363.535 1190.78,359.727Z" style="fill:white;fill-rule:nonzero;"/>
            <path d="M1249.97,358.665C1236.02,358.665 1226.13,369.944 1226.13,386.716C1226.13,403.892 1235.65,413.889 1249.89,413.889C1263.85,413.889 1273.74,402.61 1273.74,385.837C1273.74,368.662 1264.21,358.665 1249.97,358.665ZM1249.68,360.02C1258.9,360.02 1266.23,370.164 1266.23,386.13C1266.23,401.658 1259.93,412.534 1250.19,412.534C1240.96,412.534 1233.6,402.39 1233.6,386.423C1233.6,370.896 1239.9,360.02 1249.68,360.02Z" style="fill:white;fill-rule:nonzero;"/>
            <path d="M1355.52,408.25C1354.13,410.007 1353.25,411.106 1351.42,411.106C1349.33,411.106 1348.49,409.312 1347.57,404.954L1345.7,397.3C1344.28,391.074 1341.86,388.511 1335.19,387.412L1334.28,387.266C1345.59,385.508 1348.85,378.037 1348.85,372.837C1348.85,365.513 1342.85,359.8 1330.76,359.8C1328.97,359.8 1324.17,359.946 1319.45,359.946C1316.15,359.946 1312.38,359.873 1310.29,359.727L1310.29,361.228C1315.38,361.448 1316.37,362.217 1316.37,367.673L1316.37,404.88C1316.37,410.337 1315.38,411.106 1310.29,411.326L1310.29,412.827C1312.38,412.681 1316,412.607 1319.89,412.607C1323.33,412.607 1327.1,412.681 1329.41,412.827L1329.41,411.326C1324.32,411.106 1323.33,410.337 1323.33,404.88L1323.33,387.632L1330.47,387.632C1336.4,387.632 1337.5,391.917 1338.93,398.289L1340.58,405.759C1342.01,412.168 1344.86,413.889 1348.63,413.889C1352.66,413.889 1354.53,412.168 1356.65,409.092L1355.52,408.25ZM1328.89,361.228C1337.98,361.228 1341.35,365.806 1341.35,373.679C1341.35,380.564 1339,386.13 1328.38,386.13L1323.33,386.13L1323.33,367.673C1323.33,362.51 1324.32,361.228 1328.89,361.228Z" style="fill:white;fill-rule:nonzero;"/>
            <path d="M1429.61,359.727C1423.38,359.946 1414.7,359.946 1408.55,359.946C1402.4,359.946 1393.61,359.946 1387.39,359.727C1387.79,363.535 1387.93,367.454 1387.93,369.321C1387.93,371.738 1387.86,373.899 1387.71,375.474L1389.44,375.474C1390.46,365.037 1391.6,361.448 1400.97,361.448L1405.04,361.448L1405.04,404.111C1405.04,410.19 1403.76,411.106 1397.46,411.326L1397.46,412.827C1399.84,412.681 1404.05,412.607 1408.55,412.607C1412.62,412.607 1416.94,412.681 1419.58,412.827L1419.58,411.326C1413.28,411.106 1412,410.19 1412,404.111L1412,361.448L1416.06,361.448C1425.43,361.448 1426.53,365.037 1427.6,375.474L1429.32,375.474C1429.17,373.899 1429.1,371.738 1429.1,369.321C1429.1,367.454 1429.24,363.535 1429.61,359.727Z" style="fill:white;fill-rule:nonzero;"/>
            <path d="M1530.52,359.727C1528.17,359.873 1524.44,359.946 1520.99,359.946C1517.08,359.946 1513.49,359.873 1511.4,359.727L1511.4,361.228C1516.49,361.448 1517.48,362.217 1517.48,367.673L1517.48,401.951C1517.48,412.314 1517.22,415.977 1516.2,419.126C1514.84,423.118 1511.55,425.498 1507.19,425.498C1505.91,425.498 1503.38,425.278 1502.39,424.29C1504.26,423.923 1505.54,422.642 1505.54,420.481C1505.54,417.917 1503.75,416.416 1501.4,416.416C1499.09,416.416 1497.45,418.064 1497.45,420.408C1497.45,422.495 1498.58,424.29 1501.04,425.571C1502.39,426.267 1504.55,426.926 1507.33,426.926C1515.9,426.926 1521.51,421.616 1523.15,414.695C1524.36,409.678 1524.44,401.365 1524.44,395.139L1524.44,367.673C1524.44,362.217 1525.42,361.448 1530.52,361.228L1530.52,359.727Z" style="fill:white;fill-rule:nonzero;"/>
            <path d="M1586.74,359.36L1585.53,359.36L1567.88,404.807C1566.15,409.312 1563.92,410.886 1561.98,411.326L1561.98,412.827C1563.48,412.681 1565.06,412.607 1567.58,412.607C1570.22,412.607 1573.37,412.681 1576.23,412.827L1576.23,411.326C1571.94,411.216 1569.71,410.081 1569.71,406.821C1569.71,405.283 1570.18,403.269 1571.21,400.669L1574.29,392.722L1592.38,392.722L1596.99,405.027C1597.58,406.528 1597.87,407.664 1597.87,408.542C1597.87,410.63 1596.18,411.179 1592.56,411.326L1592.56,412.827C1594.68,412.681 1598.27,412.607 1602.15,412.607C1605.01,412.607 1608.16,412.681 1610.21,412.827L1610.21,411.326C1608.64,411.252 1606.51,410.337 1605.01,406.528L1586.74,359.36ZM1591.83,391.221L1574.83,391.221L1583.44,368.845L1591.83,391.221Z" style="fill:white;fill-rule:nonzero;"/>
            <path d="M1666.83,358.665C1652.88,358.665 1642.99,369.944 1642.99,386.716C1642.99,403.892 1652.52,413.889 1666.76,413.889C1673.21,413.889 1676.94,411.619 1680.64,409.019C1681.26,408.616 1681.78,408.396 1682.18,408.396C1683.24,408.396 1683.75,409.751 1684.01,412.827L1685.73,412.827C1685.51,409.019 1685.44,403.892 1685.44,394.81L1683.72,394.81C1682.95,400.889 1682.43,403.745 1680.24,406.675C1677.42,410.74 1671.92,412.388 1667.42,412.388C1657.75,412.388 1650.46,403.159 1650.46,386.423C1650.46,370.164 1656.91,360.02 1666.69,360.02C1671.85,360.02 1676.8,361.814 1679.94,365.879C1682.07,368.589 1682.65,370.603 1683.72,376.975L1685.44,376.975C1685.44,368.259 1685.51,363.389 1685.73,359.727L1684.01,359.727C1683.75,362.803 1683.13,364.194 1682.11,364.194C1681.66,364.194 1681.19,363.975 1680.64,363.535C1677.34,361.008 1673.43,358.665 1666.83,358.665Z" style="fill:white;fill-rule:nonzero;"/>
            <path d="M1745.65,382.358L1757.88,366.685C1760.74,363.022 1763.67,361.667 1766.74,361.228L1766.74,359.727C1765.24,359.873 1762.9,359.946 1760.34,359.946C1757.74,359.946 1754.59,359.873 1751.73,359.727L1751.73,361.228C1754.91,361.301 1756.38,362.217 1756.38,363.938C1756.38,365.586 1754.99,368.003 1752.53,371.116L1745.36,380.271C1743.53,382.615 1740.85,384.336 1736.79,384.482L1736.79,367.673C1736.79,362.217 1737.78,361.448 1742.87,361.228L1742.87,359.727C1740.56,359.873 1736.79,359.946 1733.35,359.946C1729.46,359.946 1725.84,359.873 1723.75,359.727L1723.75,361.228C1728.84,361.448 1729.83,362.217 1729.83,367.673L1729.83,404.88C1729.83,410.337 1728.84,411.106 1723.75,411.326L1723.75,412.827C1725.84,412.681 1729.46,412.607 1733.35,412.607C1736.79,412.607 1740.56,412.681 1742.87,412.827L1742.87,411.326C1737.78,411.106 1736.79,410.337 1736.79,404.88L1736.79,385.984C1740.27,386.167 1741.66,386.899 1744.66,391.44L1755.61,407.957C1756.12,408.689 1756.38,409.275 1756.38,409.751C1756.38,410.776 1755.24,411.216 1752.94,411.326L1752.94,412.827C1756.6,412.607 1758.94,412.607 1760.66,412.607C1763.12,412.607 1767.26,412.681 1769.64,412.827L1769.64,411.326C1766.56,410.593 1764.69,409.238 1763.05,406.748L1745.65,382.358Z" style="fill:white;fill-rule:nonzero;"/>
            <path d="M1818.9,358.884C1811.5,358.884 1804.8,363.022 1804.8,371.885C1804.8,380.344 1811.03,384.409 1818.17,388.694C1825.12,392.869 1829.85,396.311 1829.85,402.39C1829.85,409.458 1824.98,412.388 1820.11,412.388C1810.51,412.388 1807.07,404.441 1806.45,395.359L1804.73,395.359C1804.73,405.942 1804.65,410.264 1804.43,413.34L1806.15,413.34C1806.45,411.179 1806.85,410.044 1807.8,410.044C1808.43,410.044 1809.16,410.337 1810.37,411.106C1812.53,412.461 1815.31,413.889 1820.62,413.889C1829.34,413.889 1836.55,409.165 1836.55,399.644C1836.55,391.587 1830.84,387.632 1823.04,382.761C1816.3,378.55 1810.44,375.84 1810.44,369.028C1810.44,363.865 1814.25,360.313 1819.6,360.313C1827.91,360.313 1831.35,367.6 1831.9,374.741L1833.62,374.741C1833.62,365.293 1833.77,362.07 1833.99,359.434L1832.27,359.434C1831.97,361.594 1831.57,362.73 1830.62,362.73C1829.92,362.73 1829.26,362.437 1828.05,361.667C1826.04,360.313 1823.84,358.884 1818.9,358.884Z" style="fill:white;fill-rule:nonzero;"/>
            <path d="M1898.05,358.665C1884.09,358.665 1874.2,369.944 1874.2,386.716C1874.2,403.892 1883.73,413.889 1897.97,413.889C1911.92,413.889 1921.81,402.61 1921.81,385.837C1921.81,368.662 1912.29,358.665 1898.05,358.665ZM1897.75,360.02C1906.98,360.02 1914.3,370.164 1914.3,386.13C1914.3,401.658 1908.01,412.534 1898.26,412.534C1889.04,412.534 1881.67,402.39 1881.67,386.423C1881.67,370.896 1887.97,360.02 1897.75,360.02Z" style="fill:white;fill-rule:nonzero;"/>
            <path d="M2005.46,359.727C2003.81,359.873 2001.03,359.946 1998.5,359.946C1995.94,359.946 1992.64,359.873 1990.85,359.727L1990.85,361.228C1996.71,361.448 1997.66,362.949 1997.66,368.442L1997.66,400.522L1971.18,359.727C1969.54,359.873 1967.52,359.946 1965.33,359.946C1962.8,359.946 1960.02,359.873 1958.37,359.727L1958.37,361.228C1963.46,361.448 1964.45,362.217 1964.45,367.673L1964.45,404.111C1964.45,409.605 1963.46,411.106 1958.37,411.326L1958.37,412.827C1960.02,412.681 1962.8,412.607 1965.33,412.607C1967.89,412.607 1971.18,412.681 1972.98,412.827L1972.98,411.326C1967.16,411.106 1966.17,409.605 1966.17,404.111L1966.17,364.524L1997.66,413.193L1999.38,413.193L1999.38,368.442C1999.38,362.949 2000.37,361.448 2005.46,361.228L2005.46,359.727Z" style="fill:white;fill-rule:nonzero;"/>
        </g>
        <g transform="matrix(1.42804,0,0,0.612016,-831.925,570.501)">
            <rect x="646" y="1399" width="1610" height="14" style="fill:white;stroke:white;stroke-width:0.41px;"/>
        </g>
        <g transform="matrix(1.42804,0,0,0.612016,-831.925,776.501)">
            <rect x="646" y="1399" width="1610" height="14" style="fill:white;stroke:white;stroke-width:0.41px;"/>
        </g>
    </g>
</svg>
