<?xml version="1.0" encoding="UTF-8" standalone="no"?>
<!DOCTYPE svg PUBLIC "-//W3C//DTD SVG 1.1//EN" "http://www.w3.org/Graphics/SVG/1.1/DTD/svg11.dtd">
<svg width="100%" height="100%" viewBox="0 0 204 84" version="1.1" xmlns="http://www.w3.org/2000/svg" xmlns:xlink="http://www.w3.org/1999/xlink" xml:space="preserve" xmlns:serif="http://www.serif.com/" style="fill-rule:evenodd;clip-rule:evenodd;stroke-linejoin:round;stroke-miterlimit:1.5;">
    <g transform="matrix(1,0,0,1,-176.862,-203.325)">
        <g transform="matrix(0.0702414,0,0,0.0702414,191.933,201.452)">
            <g transform="matrix(1,0,0,1,237.206,98)">
                <path d="M-245.261,239.259C-253.915,239.259 -264.252,239.019 -273.628,238.538L-273.628,243.466C-259.324,243.827 -252.593,247.433 -252.593,258.611C-252.593,263.659 -253.915,270.15 -256.56,278.444L-286.97,373.642L-322.309,264.14C-323.992,258.972 -324.833,255.125 -324.833,252.241C-324.833,244.668 -318.943,243.947 -308.005,243.466L-308.005,238.538C-314.977,239.019 -326.756,239.259 -339.497,239.259C-347.911,239.259 -357.527,239.019 -363.417,238.538L-363.417,243.466C-358.97,243.706 -353.08,246.471 -348.873,259.212L-342.382,278.564L-372.192,373.883L-408.251,264.14C-409.934,258.972 -410.896,255.005 -410.896,252C-410.896,246.351 -407.41,244.067 -398.876,243.466L-398.876,238.538C-404.766,239.019 -414.622,239.259 -425.44,239.259C-434.816,239.259 -445.153,239.019 -451.764,238.538L-451.764,243.466C-446.595,243.706 -439.263,246.471 -434.816,259.212L-382.649,414.029L-378.682,414.029L-339.497,287.219L-296.706,414.029L-292.74,414.029L-246.222,264.861C-241.535,249.837 -233.241,244.908 -226.75,243.466L-226.75,238.538C-231.678,239.019 -236.847,239.259 -245.261,239.259Z" style="fill:white;fill-rule:nonzero;"/>
                <path d="M-112.609,237.336L-116.575,237.336L-174.511,386.503C-180.161,401.288 -187.493,406.457 -193.864,407.899L-193.864,412.827C-188.935,412.346 -183.767,412.106 -175.473,412.106C-166.819,412.106 -156.481,412.346 -147.106,412.827L-147.106,407.899C-161.169,407.538 -168.501,403.812 -168.501,393.114C-168.501,388.066 -166.939,381.455 -163.573,372.921L-153.476,346.838L-94.098,346.838L-78.953,387.225C-77.03,392.153 -76.068,395.879 -76.068,398.764C-76.068,405.615 -81.597,407.418 -93.497,407.899L-93.497,412.827C-86.525,412.346 -74.746,412.106 -62.005,412.106C-52.629,412.106 -42.292,412.346 -35.561,412.827L-35.561,407.899C-40.729,407.659 -47.701,404.654 -52.629,392.153L-112.609,237.336ZM-95.901,341.909L-151.673,341.909L-123.427,268.467L-95.901,341.909Z" style="fill:white;fill-rule:nonzero;"/>
                <path d="M165.966,397.802C161.398,403.572 158.514,407.178 152.504,407.178C145.652,407.178 142.888,401.288 139.883,386.984L133.752,361.863C129.065,341.429 121.131,333.015 99.255,329.409L96.25,328.928C133.392,323.158 144.09,298.638 144.09,281.569C144.09,257.529 124.377,238.778 84.711,238.778C78.821,238.778 63.075,239.259 47.569,239.259C36.751,239.259 24.371,239.019 17.519,238.538L17.519,243.466C34.227,244.187 37.473,246.711 37.473,264.621L37.473,386.744C37.473,404.654 34.227,407.178 17.519,407.899L17.519,412.827C24.371,412.346 36.271,412.106 49.012,412.106C60.311,412.106 72.691,412.346 80.264,412.827L80.264,407.899C63.556,407.178 60.311,404.654 60.311,386.744L60.311,330.13L83.749,330.13C103.222,330.13 106.828,344.193 111.516,365.108L116.925,389.629C121.612,410.664 130.988,416.313 143.368,416.313C156.59,416.313 162.721,410.664 169.692,400.567L165.966,397.802ZM78.581,243.466C108.39,243.466 119.449,258.491 119.449,284.334C119.449,306.931 111.756,325.202 76.898,325.202L60.311,325.202L60.311,264.621C60.311,247.673 63.556,243.466 78.581,243.466Z" style="fill:white;fill-rule:nonzero;"/>
                <path d="M459.878,381.335C459.878,374.483 460.118,367.993 460.599,363.545L454.95,363.545C451.464,396.119 445.334,407.178 414.563,407.178L396.533,407.178C379.825,407.178 376.58,404.654 376.58,386.744L376.58,327.606L392.927,327.606C414.322,327.606 414.563,344.434 416.486,360.18L422.135,360.18C420.933,341.429 420.693,333.255 420.693,325.202C420.693,321.596 420.573,317.99 420.573,313.422C420.573,307.773 420.693,300.681 421.414,290.224L415.765,290.224C413.842,302.003 414.322,322.677 392.927,322.677L376.58,322.677L376.58,264.621C376.58,246.711 379.825,244.187 396.533,244.187L416.967,244.187C443.05,244.187 446.776,253.803 450.022,282.891L455.671,282.891C455.19,279.165 454.95,273.516 454.95,267.626C454.95,261.977 455.431,250.077 456.633,238.538C441.367,239.259 420.212,239.259 405.187,239.259C390.403,239.259 357.949,239.259 333.789,238.538L333.789,243.466C350.496,244.187 353.742,246.711 353.742,264.621L353.742,386.744C353.742,404.654 350.496,407.178 333.789,407.899L333.789,412.827C357.949,412.106 390.403,412.106 405.187,412.106C421.654,412.106 444.853,412.106 461.561,412.827C460.359,400.326 459.878,387.465 459.878,381.335Z" style="fill:white;fill-rule:nonzero;"/>
                <path d="M687.488,238.538C682.079,239.019 672.944,239.259 664.65,239.259C656.236,239.259 645.418,239.019 639.528,238.538L639.528,243.466C658.76,244.187 661.885,249.115 661.885,267.145L661.885,372.44L574.981,238.538C569.572,239.019 562.961,239.259 555.749,239.259C547.455,239.259 538.32,239.019 532.911,238.538L532.911,243.466C549.619,244.187 552.864,246.711 552.864,264.621L552.864,384.22C552.864,402.25 549.619,407.178 532.911,407.899L532.911,412.827C538.32,412.346 547.455,412.106 555.749,412.106C564.163,412.106 574.981,412.346 580.871,412.827L580.871,407.899C561.759,407.178 558.514,402.25 558.514,384.22L558.514,254.284L661.885,414.029L667.535,414.029L667.535,267.145C667.535,249.115 670.78,244.187 687.488,243.466L687.488,238.538Z" style="fill:white;fill-rule:nonzero;"/>
                <path d="M835.285,235.052C789.489,235.052 757.035,272.073 757.035,327.125C757.035,383.498 788.287,416.313 835.045,416.313C856.2,416.313 868.46,408.861 880.601,400.326C882.644,399.004 884.327,398.283 885.649,398.283C889.135,398.283 890.817,402.73 891.659,412.827L897.308,412.827C896.587,400.326 896.347,383.498 896.347,353.689L890.697,353.689C888.173,373.642 886.49,383.018 879.278,392.634C870.023,405.976 851.993,411.385 837.208,411.385C805.476,411.385 781.556,381.094 781.556,326.163C781.556,272.795 802.711,239.499 834.804,239.499C851.753,239.499 867.98,245.389 878.317,258.731C885.288,267.626 887.211,274.237 890.697,295.152L896.347,295.152C896.347,266.544 896.587,250.558 897.308,238.538L891.659,238.538C890.817,248.635 888.774,253.202 885.409,253.202C883.966,253.202 882.404,252.481 880.601,251.039C869.783,242.745 856.921,235.052 835.285,235.052Z" style="fill:white;fill-rule:nonzero;"/>
                <path d="M1042.1,237.336L1038.13,237.336L980.198,386.503C974.549,401.288 967.216,406.457 960.846,407.899L960.846,412.827C965.774,412.346 970.943,412.106 979.236,412.106C987.891,412.106 998.228,412.346 1007.6,412.827L1007.6,407.899C993.54,407.538 986.208,403.812 986.208,393.114C986.208,388.066 987.77,381.455 991.136,372.921L1001.23,346.838L1060.61,346.838L1075.76,387.225C1077.68,392.153 1078.64,395.879 1078.64,398.764C1078.64,405.615 1073.11,407.418 1061.21,407.899L1061.21,412.827C1068.18,412.346 1079.96,412.106 1092.7,412.106C1102.08,412.106 1112.42,412.346 1119.15,412.827L1119.15,407.899C1113.98,407.659 1107.01,404.654 1102.08,392.153L1042.1,237.336ZM1058.81,341.909L1003.04,341.909L1031.28,268.467L1058.81,341.909Z" style="fill:white;fill-rule:nonzero;"/>
                <path d="M1365.99,238.538C1358.3,239.019 1346.04,239.259 1334.74,239.259L1323.08,239.259L1270.19,381.335L1216.1,238.538C1210.69,239.019 1202.28,239.259 1195.07,239.259C1186.77,239.259 1177.64,239.019 1172.23,238.538L1172.23,243.466C1188.94,244.187 1192.18,246.711 1192.18,264.621L1192.18,384.22C1192.18,402.25 1188.94,407.178 1172.23,407.899L1172.23,412.827C1177.64,412.346 1186.77,412.106 1195.07,412.106C1203.48,412.106 1214.3,412.346 1220.19,412.827L1220.19,407.899C1201.08,407.178 1197.83,402.25 1197.83,384.22L1197.83,254.284L1259.85,414.029L1263.82,414.029L1323.08,255.005L1323.08,386.744C1323.08,404.654 1319.95,407.178 1303.25,407.899L1303.25,412.827C1310.1,412.346 1321.88,412.106 1334.74,412.106C1346.04,412.106 1358.3,412.346 1365.99,412.827L1365.99,407.899C1349.28,407.178 1346.04,404.654 1346.04,386.744L1346.04,264.621C1346.04,246.711 1349.28,244.187 1365.99,243.466L1365.99,238.538Z" style="fill:white;fill-rule:nonzero;"/>
                <path d="M1478.69,342.39L1497.68,342.39C1548.65,342.39 1562.47,311.138 1562.47,287.339C1562.47,258.731 1542.76,238.778 1503.09,238.778C1497.2,238.778 1481.45,239.259 1465.95,239.259C1455.13,239.259 1442.75,239.019 1435.9,238.538L1435.9,243.466C1452.61,244.187 1455.85,246.711 1455.85,264.621L1455.85,386.744C1455.85,404.654 1452.61,407.178 1435.9,407.899L1435.9,412.827C1442.75,412.346 1454.65,412.106 1467.39,412.106C1480.73,412.106 1495.04,412.346 1503.57,412.827L1503.57,407.899C1482.9,407.178 1478.69,404.654 1478.69,386.744L1478.69,342.39ZM1496.96,243.466C1526.77,243.466 1537.83,258.972 1537.83,289.983C1537.83,315.105 1530.13,337.462 1495.28,337.462L1478.69,337.462L1478.69,264.621C1478.69,247.673 1481.93,243.466 1496.96,243.466Z" style="fill:white;fill-rule:nonzero;"/>
                <path d="M1822.89,238.538C1815.2,239.019 1802.94,239.259 1791.64,239.259L1779.98,239.259L1727.09,381.335L1673,238.538C1667.6,239.019 1659.18,239.259 1651.97,239.259C1643.68,239.259 1634.54,239.019 1629.13,238.538L1629.13,243.466C1645.84,244.187 1649.09,246.711 1649.09,264.621L1649.09,384.22C1649.09,402.25 1645.84,407.178 1629.13,407.899L1629.13,412.827C1634.54,412.346 1643.68,412.106 1651.97,412.106C1660.38,412.106 1671.2,412.346 1677.09,412.827L1677.09,407.899C1657.98,407.178 1654.73,402.25 1654.73,384.22L1654.73,254.284L1716.76,414.029L1720.72,414.029L1779.98,255.005L1779.98,386.744C1779.98,404.654 1776.86,407.178 1760.15,407.899L1760.15,412.827C1767,412.346 1778.78,412.106 1791.64,412.106C1802.94,412.106 1815.2,412.346 1822.89,412.827L1822.89,407.899C1806.18,407.178 1802.94,404.654 1802.94,386.744L1802.94,264.621C1802.94,246.711 1806.18,244.187 1822.89,243.466L1822.89,238.538Z" style="fill:white;fill-rule:nonzero;"/>
                <path d="M2018.89,381.335C2018.89,374.483 2019.13,367.993 2019.61,363.545L2013.96,363.545C2010.48,396.119 2004.35,407.178 1973.58,407.178L1955.55,407.178C1938.84,407.178 1935.59,404.654 1935.59,386.744L1935.59,327.606L1951.94,327.606C1973.34,327.606 1973.58,344.434 1975.5,360.18L1981.15,360.18C1979.95,341.429 1979.71,333.255 1979.71,325.202C1979.71,321.596 1979.59,317.99 1979.59,313.422C1979.59,307.773 1979.71,300.681 1980.43,290.224L1974.78,290.224C1972.85,302.003 1973.34,322.677 1951.94,322.677L1935.59,322.677L1935.59,264.621C1935.59,246.711 1938.84,244.187 1955.55,244.187L1975.98,244.187C2002.06,244.187 2005.79,253.803 2009.03,282.891L2014.68,282.891C2014.2,279.165 2013.96,273.516 2013.96,267.626C2013.96,261.977 2014.44,250.077 2015.64,238.538C2000.38,239.259 1979.23,239.259 1964.2,239.259C1949.41,239.259 1916.96,239.259 1892.8,238.538L1892.8,243.466C1909.51,244.187 1912.75,246.711 1912.75,264.621L1912.75,386.744C1912.75,404.654 1909.51,407.178 1892.8,407.899L1892.8,412.827C1916.96,412.106 1949.41,412.106 1964.2,412.106C1980.67,412.106 2003.87,412.106 2020.57,412.827C2019.37,400.326 2018.89,387.465 2018.89,381.335Z" style="fill:white;fill-rule:nonzero;"/>
                <path d="M2246.5,238.538C2241.09,239.019 2231.96,239.259 2223.66,239.259C2215.25,239.259 2204.43,239.019 2198.54,238.538L2198.54,243.466C2217.77,244.187 2220.9,249.115 2220.9,267.145L2220.9,372.44L2133.99,238.538C2128.59,239.019 2121.97,239.259 2114.76,239.259C2106.47,239.259 2097.33,239.019 2091.92,238.538L2091.92,243.466C2108.63,244.187 2111.88,246.711 2111.88,264.621L2111.88,384.22C2111.88,402.25 2108.63,407.178 2091.92,407.899L2091.92,412.827C2097.33,412.346 2106.47,412.106 2114.76,412.106C2123.18,412.106 2133.99,412.346 2139.88,412.827L2139.88,407.899C2120.77,407.178 2117.53,402.25 2117.53,384.22L2117.53,254.284L2220.9,414.029L2226.55,414.029L2226.55,267.145C2226.55,249.115 2229.79,244.187 2246.5,243.466L2246.5,238.538Z" style="fill:white;fill-rule:nonzero;"/>
                <path d="M2450.31,238.538C2429.88,239.259 2401.39,239.259 2381.2,239.259C2361,239.259 2332.16,239.259 2311.72,238.538C2313.04,251.039 2313.52,263.9 2313.52,270.03C2313.52,277.963 2313.28,285.055 2312.8,290.224L2318.45,290.224C2321.82,255.967 2325.54,244.187 2356.32,244.187L2369.66,244.187L2369.66,384.22C2369.66,404.173 2365.45,407.178 2344.78,407.899L2344.78,412.827C2352.59,412.346 2366.41,412.106 2381.2,412.106C2394.54,412.106 2408.72,412.346 2417.38,412.827L2417.38,407.899C2396.7,407.178 2392.49,404.173 2392.49,384.22L2392.49,244.187L2405.84,244.187C2436.61,244.187 2440.21,255.967 2443.7,290.224L2449.35,290.224C2448.87,285.055 2448.63,277.963 2448.63,270.03C2448.63,263.9 2449.11,251.039 2450.31,238.538Z" style="fill:white;fill-rule:nonzero;"/>
            </g>
            <g transform="matrix(1,0,0,1,232.172,-241.728)">
                <path d="M-319.951,271.226C-332.353,271.812 -349.541,271.812 -361.748,271.812C-373.76,271.812 -400.127,271.812 -419.756,271.226L-419.756,275.23C-406.181,275.815 -403.545,277.866 -403.545,292.417L-403.545,391.636C-403.545,406.187 -406.181,408.237 -419.756,408.823L-419.756,412.827C-414.189,412.437 -404.521,412.241 -394.17,412.241C-383.33,412.241 -371.709,412.437 -364.775,412.827L-364.775,408.823C-381.572,408.237 -384.99,406.187 -384.99,391.636L-384.99,345.64L-370.342,345.64C-352.959,345.64 -352.763,359.214 -351.201,372.007L-346.513,372.007C-347.588,356.87 -347.783,350.23 -347.783,343.589C-347.783,340.659 -347.881,337.73 -347.881,334.116C-347.881,329.429 -347.783,323.667 -347.197,315.269L-351.787,315.269C-353.349,324.839 -352.959,341.636 -370.342,341.636L-384.99,341.636L-384.99,292.417C-384.99,277.866 -382.353,275.815 -368.779,275.815L-356.181,275.815C-331.181,275.815 -328.154,285.386 -325.322,313.218L-320.732,313.218C-321.123,309.019 -321.318,303.257 -321.318,296.812C-321.318,291.831 -320.927,281.382 -319.951,271.226Z" style="fill:white;fill-rule:nonzero;"/>
                <path d="M-105.381,400.62C-109.092,405.308 -111.435,408.237 -116.318,408.237C-121.885,408.237 -124.131,403.452 -126.572,391.831L-131.552,371.421C-135.361,354.819 -141.806,347.983 -159.58,345.054L-162.021,344.663C-131.845,339.976 -123.154,320.054 -123.154,306.187C-123.154,286.655 -139.17,271.421 -171.396,271.421C-176.181,271.421 -188.974,271.812 -201.572,271.812C-210.361,271.812 -220.42,271.616 -225.986,271.226L-225.986,275.23C-212.412,275.815 -209.775,277.866 -209.775,292.417L-209.775,391.636C-209.775,406.187 -212.412,408.237 -225.986,408.823L-225.986,412.827C-220.42,412.437 -210.752,412.241 -200.4,412.241C-191.22,412.241 -181.162,412.437 -175.01,412.827L-175.01,408.823C-188.584,408.237 -191.22,406.187 -191.22,391.636L-191.22,345.64L-172.177,345.64C-156.357,345.64 -153.427,357.065 -149.619,374.058L-145.224,393.98C-141.416,411.069 -133.799,415.659 -123.74,415.659C-112.998,415.659 -108.017,411.069 -102.353,402.866L-105.381,400.62ZM-176.377,275.23C-152.158,275.23 -143.174,287.437 -143.174,308.433C-143.174,326.792 -149.424,341.636 -177.744,341.636L-191.22,341.636L-191.22,292.417C-191.22,278.647 -188.584,275.23 -176.377,275.23Z" style="fill:white;fill-rule:nonzero;"/>
                <path d="M86.045,387.241C86.045,381.675 86.24,376.401 86.631,372.788L82.041,372.788C79.209,399.253 74.229,408.237 49.229,408.237L34.58,408.237C21.006,408.237 18.369,406.187 18.369,391.636L18.369,343.589L31.651,343.589C49.033,343.589 49.229,357.261 50.791,370.054L55.381,370.054C54.405,354.819 54.209,348.179 54.209,341.636C54.209,338.706 54.112,335.776 54.112,332.065C54.112,327.476 54.209,321.714 54.795,313.218L50.205,313.218C48.643,322.788 49.033,339.585 31.651,339.585L18.369,339.585L18.369,292.417C18.369,277.866 21.006,275.815 34.58,275.815L51.182,275.815C72.373,275.815 75.401,283.628 78.037,307.261L82.627,307.261C82.237,304.233 82.041,299.644 82.041,294.858C82.041,290.269 82.432,280.601 83.408,271.226C71.006,271.812 53.819,271.812 41.612,271.812C29.6,271.812 3.233,271.812 -16.396,271.226L-16.396,275.23C-2.822,275.815 -0.185,277.866 -0.185,292.417L-0.185,391.636C-0.185,406.187 -2.822,408.237 -16.396,408.823L-16.396,412.827C3.233,412.241 29.6,412.241 41.612,412.241C54.99,412.241 73.838,412.241 87.412,412.827C86.436,402.671 86.045,392.222 86.045,387.241Z" style="fill:white;fill-rule:nonzero;"/>
                <path d="M310.967,271.226C306.573,271.616 299.151,271.812 292.412,271.812C285.576,271.812 276.787,271.616 272.002,271.226L272.002,275.23C287.627,275.815 290.166,279.819 290.166,294.468L290.166,380.015L219.561,271.226C215.166,271.616 209.795,271.812 203.936,271.812C197.198,271.812 189.776,271.616 185.381,271.226L185.381,275.23C198.955,275.815 201.592,277.866 201.592,292.417L201.592,389.585C201.592,404.233 198.955,408.237 185.381,408.823L185.381,412.827C189.776,412.437 197.198,412.241 203.936,412.241C210.772,412.241 219.561,412.437 224.346,412.827L224.346,408.823C208.819,408.237 206.182,404.233 206.182,389.585L206.182,284.019L290.166,413.804L294.756,413.804L294.756,294.468C294.756,279.819 297.393,275.815 310.967,275.23L310.967,271.226Z" style="fill:white;fill-rule:nonzero;"/>
                <path d="M471.045,268.394C433.838,268.394 407.471,298.472 407.471,343.198C407.471,388.999 432.862,415.659 470.85,415.659C488.037,415.659 497.998,409.605 507.862,402.671C509.522,401.597 510.889,401.011 511.963,401.011C514.795,401.011 516.162,404.624 516.846,412.827L521.436,412.827C520.85,402.671 520.655,388.999 520.655,364.78L516.065,364.78C514.014,380.991 512.647,388.608 506.787,396.421C499.268,407.261 484.619,411.655 472.608,411.655C446.826,411.655 427.393,387.046 427.393,342.417C427.393,299.058 444.58,272.007 470.655,272.007C484.424,272.007 497.608,276.792 506.006,287.632C511.67,294.858 513.233,300.23 516.065,317.222L520.655,317.222C520.655,293.98 520.85,280.991 521.436,271.226L516.846,271.226C516.162,279.429 514.502,283.14 511.768,283.14C510.596,283.14 509.326,282.554 507.862,281.382C499.073,274.644 488.623,268.394 471.045,268.394Z" style="fill:white;fill-rule:nonzero;"/>
                <path d="M757.393,271.226C751.826,271.616 742.256,271.812 731.807,271.812C722.627,271.812 712.666,271.616 706.416,271.226L706.416,275.23C719.99,275.815 722.627,277.866 722.627,292.417L722.627,339.585L657.588,339.585L657.588,292.417C657.588,277.866 660.225,275.815 673.799,275.23L673.799,271.226C667.647,271.616 657.588,271.812 648.408,271.812C638.057,271.812 628.389,271.616 622.823,271.226L622.823,275.23C636.397,275.815 639.033,277.866 639.033,292.417L639.033,391.636C639.033,406.187 636.397,408.237 622.823,408.823L622.823,412.827C628.389,412.437 638.057,412.241 648.408,412.241C657.588,412.241 667.647,412.437 673.799,412.827L673.799,408.823C660.225,408.237 657.588,406.187 657.588,391.636L657.588,343.589L722.627,343.589L722.627,391.636C722.627,406.187 719.99,408.237 706.416,408.823L706.416,412.827C712.666,412.437 722.627,412.241 731.807,412.241C742.256,412.241 751.826,412.437 757.393,412.827L757.393,408.823C743.819,408.237 741.182,406.187 741.182,391.636L741.182,292.417C741.182,277.866 743.819,275.815 757.393,275.23L757.393,271.226Z" style="fill:white;fill-rule:nonzero;"/>
                <path d="M1109.78,268.394C1100.2,268.394 1087.8,271.812 1087.8,282.261C1087.8,288.999 1093.17,292.222 1098.35,292.222C1104.4,292.222 1109.58,288.022 1109.58,282.456C1109.58,279.038 1107.63,275.034 1104.01,273.179C1104.6,272.007 1106.75,271.421 1109.97,271.421C1122.37,271.421 1133.21,280.21 1133.21,291.636C1133.21,298.472 1129.4,304.624 1116.03,310.874C1101.18,317.612 1079.21,322.593 1067.2,326.597C1049.03,332.847 1039.56,342.026 1039.56,355.796C1039.56,372.397 1053.04,379.233 1064.37,379.233C1075.01,379.233 1088.19,373.472 1088.19,362.046C1088.19,355.601 1083.99,351.206 1077.55,351.206C1071.4,351.206 1066.61,355.21 1066.61,361.655C1066.61,368.394 1071.79,371.03 1075.99,371.812C1075.2,374.839 1067.59,376.206 1063.97,376.206C1056.36,376.206 1045.62,370.64 1045.62,360.19C1045.62,351.597 1053.23,346.616 1063.19,342.808C1068.57,340.757 1077.16,338.022 1086.24,335.19C1103.92,342.319 1106.36,357.065 1106.36,364.194C1106.36,387.046 1082.04,400.815 1053.82,400.815C1023.84,400.815 1000.21,385.19 1000.21,357.651C1000.21,338.999 1010.75,329.429 1026.18,324.839C1029.4,326.206 1035.75,329.233 1040.83,329.233C1044.15,329.233 1046.4,327.866 1046.4,325.425C1046.4,322.397 1043.17,320.835 1038.39,320.835C1035.95,320.835 1030.58,321.226 1025.99,322.007C1017.98,314.585 1015.83,306.675 1015.83,299.253C1015.83,283.823 1025.4,275.425 1038.97,275.425C1047.18,275.425 1053.04,278.452 1054.21,281.87C1047.96,282.456 1043.57,287.046 1043.57,292.808C1043.57,299.253 1048.64,302.866 1054.01,302.866C1059.58,302.866 1065.24,298.862 1065.24,292.222C1065.24,288.022 1063,282.651 1057.82,278.452C1053.62,275.034 1047.18,272.397 1037.02,272.397C1014.76,272.397 1003.23,284.409 1003.23,297.397C1003.23,307.261 1009.97,317.417 1023.35,323.179C1013.19,325.815 986.436,336.851 986.436,365.855C986.436,396.616 1016.61,415.659 1051.18,415.659C1089.76,415.659 1112.22,392.026 1112.22,367.808C1112.22,353.355 1105.97,340.464 1090.34,333.921C1101.96,330.308 1113.68,326.499 1120.03,323.472C1130.58,318.198 1138.98,309.019 1138.98,295.444C1138.98,278.452 1126.18,268.394 1109.78,268.394Z" style="fill:white;fill-rule:nonzero;"/>
                <path d="M1412.16,271.226C1406.01,271.616 1395.95,271.812 1386.77,271.812C1376.42,271.812 1366.75,271.616 1361.18,271.226L1361.18,275.23C1374.76,275.815 1377.39,277.866 1377.39,292.417L1377.39,391.636C1377.39,406.187 1374.76,408.237 1361.18,408.823L1361.18,412.827C1366.75,412.437 1376.42,412.241 1386.77,412.241C1395.95,412.241 1406.01,412.437 1412.16,412.827L1412.16,408.823C1398.58,408.237 1395.95,406.187 1395.95,391.636L1395.95,292.417C1395.95,277.866 1398.58,275.815 1412.16,275.23L1412.16,271.226Z" style="fill:white;fill-rule:nonzero;"/>
                <path d="M1634.54,271.226C1630.15,271.616 1622.73,271.812 1615.99,271.812C1609.15,271.812 1600.36,271.616 1595.58,271.226L1595.58,275.23C1611.2,275.815 1613.74,279.819 1613.74,294.468L1613.74,380.015L1543.13,271.226C1538.74,271.616 1533.37,271.812 1527.51,271.812C1520.77,271.812 1513.35,271.616 1508.95,271.226L1508.95,275.23C1522.53,275.815 1525.17,277.866 1525.17,292.417L1525.17,389.585C1525.17,404.233 1522.53,408.237 1508.95,408.823L1508.95,412.827C1513.35,412.437 1520.77,412.241 1527.51,412.241C1534.35,412.241 1543.13,412.437 1547.92,412.827L1547.92,408.823C1532.39,408.237 1529.76,404.233 1529.76,389.585L1529.76,284.019L1613.74,413.804L1618.33,413.804L1618.33,294.468C1618.33,279.819 1620.97,275.815 1634.54,275.23L1634.54,271.226Z" style="fill:white;fill-rule:nonzero;"/>
                <path d="M1784.76,271.226C1777.14,271.226 1763.76,271.616 1754.58,271.812C1752.92,271.812 1751.36,271.909 1749.7,271.909C1742.28,271.909 1734.76,271.519 1730.17,271.226L1730.17,275.23C1743.74,275.815 1746.38,277.866 1746.38,292.417L1746.38,391.636C1746.38,406.187 1743.74,408.237 1730.17,408.823L1730.17,412.827C1735.73,412.437 1745.6,412.241 1754.97,412.241C1763.57,412.241 1776.94,412.827 1783,412.827C1828.99,412.827 1855.36,384.019 1855.36,340.464C1855.36,295.835 1832.41,271.226 1784.76,271.226ZM1779.78,274.839C1821.18,274.839 1835.34,296.421 1835.34,341.245C1835.34,384.8 1823.53,409.214 1779.97,409.214C1767.57,409.214 1764.93,405.991 1764.93,392.026L1764.93,292.026C1764.93,278.257 1767.57,274.839 1779.78,274.839Z" style="fill:white;fill-rule:nonzero;"/>
                <path d="M2004.01,271.226C1997.86,271.616 1987.8,271.812 1978.62,271.812C1968.27,271.812 1958.6,271.616 1953.04,271.226L1953.04,275.23C1966.61,275.815 1969.25,277.866 1969.25,292.417L1969.25,391.636C1969.25,406.187 1966.61,408.237 1953.04,408.823L1953.04,412.827C1958.6,412.437 1968.27,412.241 1978.62,412.241C1987.8,412.241 1997.86,412.437 2004.01,412.827L2004.01,408.823C1990.44,408.237 1987.8,406.187 1987.8,391.636L1987.8,292.417C1987.8,277.866 1990.44,275.815 2004.01,275.23L2004.01,271.226Z" style="fill:white;fill-rule:nonzero;"/>
                <path d="M2157.06,270.249L2153.84,270.249L2106.77,391.44C2102.18,403.452 2096.22,407.651 2091.05,408.823L2091.05,412.827C2095.05,412.437 2099.25,412.241 2105.99,412.241C2113.02,412.241 2121.42,412.437 2129.03,412.827L2129.03,408.823C2117.61,408.53 2111.65,405.503 2111.65,396.812C2111.65,392.71 2112.92,387.339 2115.66,380.405L2123.86,359.214L2172.1,359.214L2184.41,392.026C2185.97,396.03 2186.75,399.058 2186.75,401.401C2186.75,406.968 2182.26,408.433 2172.59,408.823L2172.59,412.827C2178.25,412.437 2187.82,412.241 2198.17,412.241C2205.79,412.241 2214.19,412.437 2219.66,412.827L2219.66,408.823C2215.46,408.628 2209.8,406.187 2205.79,396.03L2157.06,270.249ZM2170.64,355.21L2125.32,355.21L2148.27,295.542L2170.64,355.21Z" style="fill:white;fill-rule:nonzero;"/>
                <path d="M2428.37,271.226C2423.97,271.616 2416.55,271.812 2409.82,271.812C2402.98,271.812 2394.19,271.616 2389.41,271.226L2389.41,275.23C2405.03,275.815 2407.57,279.819 2407.57,294.468L2407.57,380.015L2336.96,271.226C2332.57,271.616 2327.2,271.812 2321.34,271.812C2314.6,271.812 2307.18,271.616 2302.78,271.226L2302.78,275.23C2316.36,275.815 2318.99,277.866 2318.99,292.417L2318.99,389.585C2318.99,404.233 2316.36,408.237 2302.78,408.823L2302.78,412.827C2307.18,412.437 2314.6,412.241 2321.34,412.241C2328.17,412.241 2336.96,412.437 2341.75,412.827L2341.75,408.823C2326.22,408.237 2323.58,404.233 2323.58,389.585L2323.58,284.019L2407.57,413.804L2412.16,413.804L2412.16,294.468C2412.16,279.819 2414.8,275.815 2428.37,275.23L2428.37,271.226Z" style="fill:white;fill-rule:nonzero;"/>
            </g>
            <g transform="matrix(1,0,0,1,237.826,393.103)">
                <path d="M26.878,273.219L23.722,273.219L-22.367,391.886C-26.862,403.647 -32.694,407.759 -37.762,408.907L-37.762,412.827C-33.842,412.445 -29.73,412.253 -23.132,412.253C-16.248,412.253 -8.024,412.445 -0.566,412.827L-0.566,408.907C-11.753,408.62 -17.586,405.656 -17.586,397.145C-17.586,393.129 -16.343,387.87 -13.666,381.081L-5.634,360.331L41.604,360.331L53.652,392.46C55.182,396.38 55.947,399.344 55.947,401.639C55.947,407.09 51.548,408.524 42.082,408.907L42.082,412.827C47.628,412.445 56.999,412.253 67.135,412.253C74.593,412.253 82.817,412.445 88.171,412.827L88.171,408.907C84.06,408.715 78.514,406.325 74.593,396.38L26.878,273.219ZM40.169,356.41L-4.199,356.41L18.272,297.985L40.169,356.41Z" style="fill:white;fill-rule:nonzero;"/>
                <path d="M203.606,356.793L218.714,356.793C259.258,356.793 270.254,331.931 270.254,312.998C270.254,290.24 254.572,274.367 223.017,274.367C218.332,274.367 205.805,274.749 193.47,274.749C184.864,274.749 175.015,274.558 169.565,274.176L169.565,278.096C182.856,278.67 185.438,280.678 185.438,294.926L185.438,392.077C185.438,406.325 182.856,408.333 169.565,408.907L169.565,412.827C175.015,412.445 184.482,412.253 194.618,412.253C205.232,412.253 216.611,412.445 223.4,412.827L223.4,408.907C206.953,408.333 203.606,406.325 203.606,392.077L203.606,356.793ZM218.141,278.096C241.855,278.096 250.652,290.431 250.652,315.102C250.652,335.087 244.532,352.872 216.802,352.872L203.606,352.872L203.606,294.926C203.606,281.443 206.188,278.096 218.141,278.096Z" style="fill:white;fill-rule:nonzero;"/>
                <path d="M480.546,400.874C476.912,405.464 474.617,408.333 469.836,408.333C464.386,408.333 462.186,403.647 459.796,392.268L454.919,372.284C451.19,356.028 444.879,349.334 427.476,346.466L425.085,346.083C454.632,341.493 463.143,321.987 463.143,308.408C463.143,289.284 447.461,274.367 415.905,274.367C411.22,274.367 398.693,274.749 386.358,274.749C377.752,274.749 367.903,274.558 362.453,274.176L362.453,278.096C375.744,278.67 378.326,280.678 378.326,294.926L378.326,392.077C378.326,406.325 375.744,408.333 362.453,408.907L362.453,412.827C367.903,412.445 377.37,412.253 387.506,412.253C396.494,412.253 406.343,412.445 412.367,412.827L412.367,408.907C399.076,408.333 396.494,406.325 396.494,392.077L396.494,347.039L415.14,347.039C430.631,347.039 433.5,358.227 437.229,374.865L441.532,394.372C445.261,411.106 452.72,415.6 462.569,415.6C473.087,415.6 477.964,411.106 483.51,403.074L480.546,400.874ZM411.029,278.096C434.743,278.096 443.54,290.049 443.54,310.608C443.54,328.584 437.42,343.119 409.69,343.119L396.494,343.119L396.494,294.926C396.494,281.443 399.076,278.096 411.029,278.096Z" style="fill:white;fill-rule:nonzero;"/>
                <path d="M617.591,274.176C611.567,274.558 601.718,274.749 592.729,274.749C582.593,274.749 573.127,274.558 567.676,274.176L567.676,278.096C580.968,278.67 583.549,280.678 583.549,294.926L583.549,392.077C583.549,406.325 580.968,408.333 567.676,408.907L567.676,412.827C573.127,412.445 582.593,412.253 592.729,412.253C601.718,412.253 611.567,412.445 617.591,412.827L617.591,408.907C604.299,408.333 601.718,406.325 601.718,392.077L601.718,294.926C601.718,280.678 604.299,278.67 617.591,278.096L617.591,274.176Z" style="fill:white;fill-rule:nonzero;"/>
                <path d="M762.286,274.176C756.261,274.558 746.412,274.749 737.424,274.749C727.288,274.749 717.821,274.558 712.371,274.176L712.371,278.096C725.662,278.67 728.244,280.678 728.244,294.926L728.244,392.077C728.244,406.325 725.662,408.333 712.371,408.907L712.371,412.827C731.591,412.253 757.409,412.253 769.17,412.253C782.271,412.253 800.726,412.253 814.017,412.827C813.061,402.883 812.678,392.651 812.678,387.774C812.678,381.463 812.87,375.822 813.252,371.71L808.758,371.71C805.985,398.962 801.108,408.333 776.629,408.333L762.286,408.333C748.994,408.333 746.412,406.325 746.412,392.077L746.412,294.926C746.412,280.678 748.994,278.67 762.286,278.096L762.286,274.176Z" style="fill:white;fill-rule:nonzero;"/>
                <path d="M1072.52,309.269C1051.39,309.269 1039.82,321.413 1033.89,333.748L1037.05,335.469C1043.93,323.134 1052.92,317.11 1063.25,317.11C1075.39,317.11 1082.85,323.325 1082.85,338.242C1082.85,370.562 1050.53,392.46 1034.65,409.48L1034.65,412.827L1080.55,412.827C1092.31,412.827 1106.18,413.018 1109.72,413.783C1109.14,407.759 1108.95,401.639 1108.95,387.774L1105.61,387.774C1104.65,395.233 1103.21,397.719 1092.51,397.719L1052.73,397.719C1066.97,378.403 1101.88,359.948 1101.88,333.939C1101.88,318.066 1090.5,309.269 1072.52,309.269Z" style="fill:white;fill-rule:nonzero;"/>
                <path d="M1246.38,309.843C1236.44,316.823 1224.87,319.405 1206.03,319.787L1206.03,324.09C1223.72,324.09 1228.79,326.481 1228.79,345.223L1228.79,392.651C1228.79,405.369 1220.94,408.715 1208.04,408.715L1208.04,412.827C1214.06,412.636 1226.01,412.062 1238.16,412.062C1248.77,412.062 1259.86,412.636 1265.22,412.827L1265.22,408.715C1251.64,408.715 1246.38,405.177 1246.38,392.651L1246.38,309.843Z" style="fill:white;fill-rule:nonzero;"/>
                <rect x="1488.25" y="354.498" width="70.76" height="11.283" style="fill:white;fill-rule:nonzero;"/>
                <path d="M1825.73,309.269C1804.6,309.269 1793.03,321.413 1787.1,333.748L1790.26,335.469C1797.14,323.134 1806.13,317.11 1816.46,317.11C1828.6,317.11 1836.06,323.325 1836.06,338.242C1836.06,370.562 1803.74,392.46 1787.87,409.48L1787.87,412.827L1833.77,412.827C1845.53,412.827 1859.39,413.018 1862.93,413.783C1862.36,407.759 1862.16,401.639 1862.16,387.774L1858.82,387.774C1857.86,395.233 1856.43,397.719 1845.72,397.719L1805.94,397.719C1820.19,378.403 1855.09,359.948 1855.09,333.939C1855.09,318.066 1843.71,309.269 1825.73,309.269Z" style="fill:white;fill-rule:nonzero;"/>
                <path d="M1997.87,309.269C1976.74,309.269 1965.17,321.413 1959.24,333.748L1962.4,335.469C1969.28,323.134 1978.27,317.11 1988.6,317.11C2000.74,317.11 2008.2,323.325 2008.2,338.242C2008.2,370.562 1975.88,392.46 1960.01,409.48L1960.01,412.827L2005.9,412.827C2017.66,412.827 2031.53,413.018 2035.07,413.783C2034.5,407.759 2034.3,401.639 2034.3,387.774L2030.96,387.774C2030,395.233 2028.57,397.719 2017.86,397.719L1978.08,397.719C1992.33,378.403 2027.23,359.948 2027.23,333.939C2027.23,318.066 2015.85,309.269 1997.87,309.269Z" style="fill:white;fill-rule:nonzero;"/>
            </g>
            <g transform="matrix(1.07813,0,0,1.07813,-100.574,-550.649)">
                <g transform="matrix(1,0,0,1,237.206,1147.72)">
                    <path d="M39.846,359.727C35.196,359.946 28.75,359.946 24.173,359.946C19.668,359.946 9.781,359.946 2.42,359.727L2.42,361.228C7.51,361.448 8.499,362.217 8.499,367.673L8.499,404.88C8.499,410.337 7.51,411.106 2.42,411.326L2.42,412.827C4.507,412.681 8.133,412.607 12.014,412.607C16.079,412.607 20.437,412.681 23.037,412.827L23.037,411.326C16.739,411.106 15.457,410.337 15.457,404.88L15.457,387.632L20.95,387.632C27.469,387.632 27.542,392.722 28.128,397.52L29.886,397.52C29.483,391.843 29.409,389.353 29.409,386.863C29.409,385.764 29.373,384.666 29.373,383.311C29.373,381.553 29.409,379.392 29.629,376.243L27.908,376.243C27.322,379.832 27.469,386.13 20.95,386.13L15.457,386.13L15.457,367.673C15.457,362.217 16.446,361.448 21.536,361.448L26.26,361.448C35.635,361.448 36.77,365.037 37.832,375.474L39.553,375.474C39.407,373.899 39.334,371.738 39.334,369.321C39.334,367.454 39.48,363.535 39.846,359.727Z" style="fill:white;fill-rule:nonzero;"/>
                    <path d="M99.033,358.665C85.081,358.665 75.193,369.944 75.193,386.716C75.193,403.892 84.715,413.889 98.96,413.889C112.913,413.889 122.801,402.61 122.801,385.837C122.801,368.662 113.279,358.665 99.033,358.665ZM98.74,360.02C107.969,360.02 115.293,370.164 115.293,386.13C115.293,401.658 108.994,412.534 99.253,412.534C90.025,412.534 82.664,402.39 82.664,386.423C82.664,370.896 88.963,360.02 98.74,360.02Z" style="fill:white;fill-rule:nonzero;"/>
                    <path d="M204.583,408.25C203.191,410.007 202.312,411.106 200.481,411.106C198.394,411.106 197.552,409.312 196.636,404.954L194.768,397.3C193.34,391.074 190.923,388.511 184.258,387.412L183.343,387.266C194.658,385.508 197.918,378.037 197.918,372.837C197.918,365.513 191.912,359.8 179.827,359.8C178.032,359.8 173.235,359.946 168.511,359.946C165.215,359.946 161.443,359.873 159.356,359.727L159.356,361.228C164.446,361.448 165.435,362.217 165.435,367.673L165.435,404.88C165.435,410.337 164.446,411.106 159.356,411.326L159.356,412.827C161.443,412.681 165.069,412.607 168.95,412.607C172.393,412.607 176.165,412.681 178.472,412.827L178.472,411.326C173.382,411.106 172.393,410.337 172.393,404.88L172.393,387.632L179.534,387.632C185.467,387.632 186.565,391.917 187.993,398.289L189.641,405.759C191.07,412.168 193.926,413.889 197.698,413.889C201.726,413.889 203.594,412.168 205.718,409.092L204.583,408.25ZM177.959,361.228C187.041,361.228 190.41,365.806 190.41,373.679C190.41,380.564 188.067,386.13 177.447,386.13L172.393,386.13L172.393,367.673C172.393,362.51 173.382,361.228 177.959,361.228Z" style="fill:white;fill-rule:nonzero;"/>
                    <path d="M278.675,359.727C272.449,359.946 263.77,359.946 257.617,359.946C251.465,359.946 242.676,359.946 236.45,359.727C236.853,363.535 237,367.454 237,369.321C237,371.738 236.927,373.899 236.78,375.474L238.501,375.474C239.527,365.037 240.662,361.448 250.037,361.448L254.102,361.448L254.102,404.111C254.102,410.19 252.82,411.106 246.521,411.326L246.521,412.827C248.902,412.681 253.113,412.607 257.617,412.607C261.682,412.607 266.004,412.681 268.64,412.827L268.64,411.326C262.342,411.106 261.06,410.19 261.06,404.111L261.06,361.448L265.125,361.448C274.5,361.448 275.598,365.037 276.66,375.474L278.382,375.474C278.235,373.899 278.162,371.738 278.162,369.321C278.162,367.454 278.308,363.535 278.675,359.727Z" style="fill:white;fill-rule:nonzero;"/>
                    <path d="M400.344,359.727C394.119,359.946 385.44,359.946 379.287,359.946C373.135,359.946 364.346,359.946 358.12,359.727C358.523,363.535 358.67,367.454 358.67,369.321C358.67,371.738 358.596,373.899 358.45,375.474L360.171,375.474C361.197,365.037 362.332,361.448 371.707,361.448L375.772,361.448L375.772,404.111C375.772,410.19 374.49,411.106 368.191,411.326L368.191,412.827C370.572,412.681 374.783,412.607 379.287,412.607C383.352,412.607 387.674,412.681 390.31,412.827L390.31,411.326C384.011,411.106 382.73,410.19 382.73,404.111L382.73,361.448L386.795,361.448C396.17,361.448 397.268,365.037 398.33,375.474L400.052,375.474C399.905,373.899 399.832,371.738 399.832,369.321C399.832,367.454 399.978,363.535 400.344,359.727Z" style="fill:white;fill-rule:nonzero;"/>
                    <path d="M460.374,358.665C446.421,358.665 436.533,369.944 436.533,386.716C436.533,403.892 446.055,413.889 460.301,413.889C474.253,413.889 484.141,402.61 484.141,385.837C484.141,368.662 474.619,358.665 460.374,358.665ZM460.081,360.02C469.309,360.02 476.634,370.164 476.634,386.13C476.634,401.658 470.335,412.534 460.594,412.534C451.365,412.534 444.004,402.39 444.004,386.423C444.004,370.896 450.303,360.02 460.081,360.02Z" style="fill:white;fill-rule:nonzero;"/>
                    <path d="M566.802,359.727C565.154,359.873 562.407,359.946 559.844,359.946C557.281,359.946 553.985,359.873 552.19,359.727L552.19,361.228C557.281,361.448 559.002,362.949 559.002,368.442L559.002,391.843C559.002,403.013 555.926,411.252 544.61,411.252C533.953,411.252 532.781,402.793 532.781,392.502L532.781,367.673C532.781,362.217 533.733,361.448 538.86,361.228L538.86,359.727C536.516,359.873 532.781,359.946 529.302,359.946C525.42,359.946 521.831,359.873 519.707,359.727L519.707,361.228C524.834,361.448 525.786,362.217 525.786,367.673L525.786,391.221C525.786,401.438 526.922,405.686 531.353,409.824C534.649,412.9 539.153,413.889 543.95,413.889C550.103,413.889 555.193,411.106 557.683,406.895C559.917,403.086 560.76,397.959 560.76,391.001L560.76,368.442C560.76,362.949 561.712,361.448 566.802,361.228L566.802,359.727Z" style="fill:white;fill-rule:nonzero;"/>
                    <path d="M621.118,359.727C618.811,359.873 615.039,359.946 611.597,359.946C607.715,359.946 604.09,359.873 602.002,359.727L602.002,361.228C607.093,361.448 608.081,362.217 608.081,367.673L608.081,404.88C608.081,410.337 607.093,411.106 602.002,411.326L602.002,412.827C609.363,412.607 619.251,412.607 623.755,412.607C628.772,412.607 635.84,412.607 640.93,412.827C640.564,409.019 640.418,405.1 640.418,403.232C640.418,400.815 640.491,398.655 640.637,397.08L638.916,397.08C637.854,407.517 635.987,411.106 626.612,411.106L621.118,411.106C616.028,411.106 615.039,410.337 615.039,404.88L615.039,367.673C615.039,362.217 616.028,361.448 621.118,361.228L621.118,359.727Z" style="fill:white;fill-rule:nonzero;"/>
                    <path d="M700.777,358.665C686.824,358.665 676.936,369.944 676.936,386.716C676.936,403.892 686.458,413.889 700.703,413.889C714.656,413.889 724.544,402.61 724.544,385.837C724.544,368.662 715.022,358.665 700.777,358.665ZM700.484,360.02C709.712,360.02 717.036,370.164 717.036,386.13C717.036,401.658 710.738,412.534 700.996,412.534C691.768,412.534 684.407,402.39 684.407,386.423C684.407,370.896 690.706,360.02 700.484,360.02Z" style="fill:white;fill-rule:nonzero;"/>
                    <path d="M807.205,359.727C805.557,359.873 802.81,359.946 800.247,359.946C797.683,359.946 794.387,359.873 792.593,359.727L792.593,361.228C797.683,361.448 799.405,362.949 799.405,368.442L799.405,391.843C799.405,403.013 796.328,411.252 785.012,411.252C774.356,411.252 773.184,402.793 773.184,392.502L773.184,367.673C773.184,362.217 774.136,361.448 779.263,361.228L779.263,359.727C776.919,359.873 773.184,359.946 769.705,359.946C765.823,359.946 762.234,359.873 760.11,359.727L760.11,361.228C765.237,361.448 766.189,362.217 766.189,367.673L766.189,391.221C766.189,401.438 767.324,405.686 771.756,409.824C775.052,412.9 779.556,413.889 784.353,413.889C790.506,413.889 795.596,411.106 798.086,406.895C800.32,403.086 801.162,397.959 801.162,391.001L801.162,368.442C801.162,362.949 802.115,361.448 807.205,361.228L807.205,359.727Z" style="fill:white;fill-rule:nonzero;"/>
                    <path d="M858.445,358.884C851.048,358.884 844.346,363.022 844.346,371.885C844.346,380.344 850.572,384.409 857.713,388.694C864.671,392.869 869.395,396.311 869.395,402.39C869.395,409.458 864.524,412.388 859.654,412.388C850.059,412.388 846.616,404.441 845.994,395.359L844.273,395.359C844.273,405.942 844.199,410.264 843.98,413.34L845.701,413.34C845.994,411.179 846.397,410.044 847.349,410.044C847.971,410.044 848.704,410.337 849.912,411.106C852.073,412.461 854.856,413.889 860.166,413.889C868.882,413.889 876.096,409.165 876.096,399.644C876.096,391.587 870.384,387.632 862.583,382.761C855.845,378.55 849.986,375.84 849.986,369.028C849.986,363.865 853.794,360.313 859.141,360.313C867.454,360.313 870.896,367.6 871.446,374.741L873.167,374.741C873.167,365.293 873.313,362.07 873.533,359.434L871.812,359.434C871.519,361.594 871.116,362.73 870.164,362.73C869.468,362.73 868.809,362.437 867.6,361.667C865.586,360.313 863.389,358.884 858.445,358.884Z" style="fill:white;fill-rule:nonzero;"/>
                    <path d="M951.323,403.232C951.323,401.145 951.397,399.167 951.543,397.813L949.822,397.813C948.76,407.737 946.892,411.106 937.517,411.106L932.024,411.106C926.934,411.106 925.945,410.337 925.945,404.88L925.945,386.863L930.926,386.863C937.444,386.863 937.517,391.99 938.103,396.787L939.824,396.787C939.458,391.074 939.385,388.584 939.385,386.13C939.385,385.032 939.348,383.933 939.348,382.542C939.348,380.82 939.385,378.66 939.605,375.474L937.884,375.474C937.298,379.063 937.444,385.361 930.926,385.361L925.945,385.361L925.945,367.673C925.945,362.217 926.934,361.448 932.024,361.448L938.25,361.448C946.197,361.448 947.332,364.377 948.321,373.24L950.042,373.24C949.895,372.105 949.822,370.383 949.822,368.589C949.822,366.868 949.969,363.242 950.335,359.727C945.684,359.946 939.239,359.946 934.661,359.946C930.156,359.946 920.269,359.946 912.908,359.727L912.908,361.228C917.998,361.448 918.987,362.217 918.987,367.673L918.987,404.88C918.987,410.337 917.998,411.106 912.908,411.326L912.908,412.827C920.269,412.607 930.156,412.607 934.661,412.607C939.678,412.607 946.746,412.607 951.836,412.827C951.47,409.019 951.323,405.1 951.323,403.232Z" style="fill:white;fill-rule:nonzero;"/>
                    <rect x="1039.27" y="390.488" width="27.1" height="4.321" style="fill:white;fill-rule:nonzero;"/>
                    <path d="M1190.78,359.727C1186.13,359.946 1179.68,359.946 1175.11,359.946C1170.6,359.946 1160.72,359.946 1153.36,359.727L1153.36,361.228C1158.44,361.448 1159.43,362.217 1159.43,367.673L1159.43,404.88C1159.43,410.337 1158.44,411.106 1153.36,411.326L1153.36,412.827C1155.44,412.681 1159.07,412.607 1162.95,412.607C1167.01,412.607 1171.37,412.681 1173.97,412.827L1173.97,411.326C1167.67,411.106 1166.39,410.337 1166.39,404.88L1166.39,387.632L1171.88,387.632C1178.4,387.632 1178.48,392.722 1179.06,397.52L1180.82,397.52C1180.42,391.843 1180.34,389.353 1180.34,386.863C1180.34,385.764 1180.31,384.666 1180.31,383.311C1180.31,381.553 1180.34,379.392 1180.56,376.243L1178.84,376.243C1178.26,379.832 1178.4,386.13 1171.88,386.13L1166.39,386.13L1166.39,367.673C1166.39,362.217 1167.38,361.448 1172.47,361.448L1177.19,361.448C1186.57,361.448 1187.7,365.037 1188.77,375.474L1190.49,375.474C1190.34,373.899 1190.27,371.738 1190.27,369.321C1190.27,367.454 1190.41,363.535 1190.78,359.727Z" style="fill:white;fill-rule:nonzero;"/>
                    <path d="M1249.97,358.665C1236.02,358.665 1226.13,369.944 1226.13,386.716C1226.13,403.892 1235.65,413.889 1249.89,413.889C1263.85,413.889 1273.74,402.61 1273.74,385.837C1273.74,368.662 1264.21,358.665 1249.97,358.665ZM1249.68,360.02C1258.9,360.02 1266.23,370.164 1266.23,386.13C1266.23,401.658 1259.93,412.534 1250.19,412.534C1240.96,412.534 1233.6,402.39 1233.6,386.423C1233.6,370.896 1239.9,360.02 1249.68,360.02Z" style="fill:white;fill-rule:nonzero;"/>
                    <path d="M1355.52,408.25C1354.13,410.007 1353.25,411.106 1351.42,411.106C1349.33,411.106 1348.49,409.312 1347.57,404.954L1345.7,397.3C1344.28,391.074 1341.86,388.511 1335.19,387.412L1334.28,387.266C1345.59,385.508 1348.85,378.037 1348.85,372.837C1348.85,365.513 1342.85,359.8 1330.76,359.8C1328.97,359.8 1324.17,359.946 1319.45,359.946C1316.15,359.946 1312.38,359.873 1310.29,359.727L1310.29,361.228C1315.38,361.448 1316.37,362.217 1316.37,367.673L1316.37,404.88C1316.37,410.337 1315.38,411.106 1310.29,411.326L1310.29,412.827C1312.38,412.681 1316,412.607 1319.89,412.607C1323.33,412.607 1327.1,412.681 1329.41,412.827L1329.41,411.326C1324.32,411.106 1323.33,410.337 1323.33,404.88L1323.33,387.632L1330.47,387.632C1336.4,387.632 1337.5,391.917 1338.93,398.289L1340.58,405.759C1342.01,412.168 1344.86,413.889 1348.63,413.889C1352.66,413.889 1354.53,412.168 1356.65,409.092L1355.52,408.25ZM1328.89,361.228C1337.98,361.228 1341.35,365.806 1341.35,373.679C1341.35,380.564 1339,386.13 1328.38,386.13L1323.33,386.13L1323.33,367.673C1323.33,362.51 1324.32,361.228 1328.89,361.228Z" style="fill:white;fill-rule:nonzero;"/>
                    <path d="M1429.61,359.727C1423.38,359.946 1414.7,359.946 1408.55,359.946C1402.4,359.946 1393.61,359.946 1387.39,359.727C1387.79,363.535 1387.93,367.454 1387.93,369.321C1387.93,371.738 1387.86,373.899 1387.71,375.474L1389.44,375.474C1390.46,365.037 1391.6,361.448 1400.97,361.448L1405.04,361.448L1405.04,404.111C1405.04,410.19 1403.76,411.106 1397.46,411.326L1397.46,412.827C1399.84,412.681 1404.05,412.607 1408.55,412.607C1412.62,412.607 1416.94,412.681 1419.58,412.827L1419.58,411.326C1413.28,411.106 1412,410.19 1412,404.111L1412,361.448L1416.06,361.448C1425.43,361.448 1426.53,365.037 1427.6,375.474L1429.32,375.474C1429.17,373.899 1429.1,371.738 1429.1,369.321C1429.1,367.454 1429.24,363.535 1429.61,359.727Z" style="fill:white;fill-rule:nonzero;"/>
                    <path d="M1530.52,359.727C1528.17,359.873 1524.44,359.946 1520.99,359.946C1517.08,359.946 1513.49,359.873 1511.4,359.727L1511.4,361.228C1516.49,361.448 1517.48,362.217 1517.48,367.673L1517.48,401.951C1517.48,412.314 1517.22,415.977 1516.2,419.126C1514.84,423.118 1511.55,425.498 1507.19,425.498C1505.91,425.498 1503.38,425.278 1502.39,424.29C1504.26,423.923 1505.54,422.642 1505.54,420.481C1505.54,417.917 1503.75,416.416 1501.4,416.416C1499.09,416.416 1497.45,418.064 1497.45,420.408C1497.45,422.495 1498.58,424.29 1501.04,425.571C1502.39,426.267 1504.55,426.926 1507.33,426.926C1515.9,426.926 1521.51,421.616 1523.15,414.695C1524.36,409.678 1524.44,401.365 1524.44,395.139L1524.44,367.673C1524.44,362.217 1525.42,361.448 1530.52,361.228L1530.52,359.727Z" style="fill:white;fill-rule:nonzero;"/>
                    <path d="M1586.74,359.36L1585.53,359.36L1567.88,404.807C1566.15,409.312 1563.92,410.886 1561.98,411.326L1561.98,412.827C1563.48,412.681 1565.06,412.607 1567.58,412.607C1570.22,412.607 1573.37,412.681 1576.23,412.827L1576.23,411.326C1571.94,411.216 1569.71,410.081 1569.71,406.821C1569.71,405.283 1570.18,403.269 1571.21,400.669L1574.29,392.722L1592.38,392.722L1596.99,405.027C1597.58,406.528 1597.87,407.664 1597.87,408.542C1597.87,410.63 1596.18,411.179 1592.56,411.326L1592.56,412.827C1594.68,412.681 1598.27,412.607 1602.15,412.607C1605.01,412.607 1608.16,412.681 1610.21,412.827L1610.21,411.326C1608.64,411.252 1606.51,410.337 1605.01,406.528L1586.74,359.36ZM1591.83,391.221L1574.83,391.221L1583.44,368.845L1591.83,391.221Z" style="fill:white;fill-rule:nonzero;"/>
                    <path d="M1666.83,358.665C1652.88,358.665 1642.99,369.944 1642.99,386.716C1642.99,403.892 1652.52,413.889 1666.76,413.889C1673.21,413.889 1676.94,411.619 1680.64,409.019C1681.26,408.616 1681.78,408.396 1682.18,408.396C1683.24,408.396 1683.75,409.751 1684.01,412.827L1685.73,412.827C1685.51,409.019 1685.44,403.892 1685.44,394.81L1683.72,394.81C1682.95,400.889 1682.43,403.745 1680.24,406.675C1677.42,410.74 1671.92,412.388 1667.42,412.388C1657.75,412.388 1650.46,403.159 1650.46,386.423C1650.46,370.164 1656.91,360.02 1666.69,360.02C1671.85,360.02 1676.8,361.814 1679.94,365.879C1682.07,368.589 1682.65,370.603 1683.72,376.975L1685.44,376.975C1685.44,368.259 1685.51,363.389 1685.73,359.727L1684.01,359.727C1683.75,362.803 1683.13,364.194 1682.11,364.194C1681.66,364.194 1681.19,363.975 1680.64,363.535C1677.34,361.008 1673.43,358.665 1666.83,358.665Z" style="fill:white;fill-rule:nonzero;"/>
                    <path d="M1745.65,382.358L1757.88,366.685C1760.74,363.022 1763.67,361.667 1766.74,361.228L1766.74,359.727C1765.24,359.873 1762.9,359.946 1760.34,359.946C1757.74,359.946 1754.59,359.873 1751.73,359.727L1751.73,361.228C1754.91,361.301 1756.38,362.217 1756.38,363.938C1756.38,365.586 1754.99,368.003 1752.53,371.116L1745.36,380.271C1743.53,382.615 1740.85,384.336 1736.79,384.482L1736.79,367.673C1736.79,362.217 1737.78,361.448 1742.87,361.228L1742.87,359.727C1740.56,359.873 1736.79,359.946 1733.35,359.946C1729.46,359.946 1725.84,359.873 1723.75,359.727L1723.75,361.228C1728.84,361.448 1729.83,362.217 1729.83,367.673L1729.83,404.88C1729.83,410.337 1728.84,411.106 1723.75,411.326L1723.75,412.827C1725.84,412.681 1729.46,412.607 1733.35,412.607C1736.79,412.607 1740.56,412.681 1742.87,412.827L1742.87,411.326C1737.78,411.106 1736.79,410.337 1736.79,404.88L1736.79,385.984C1740.27,386.167 1741.66,386.899 1744.66,391.44L1755.61,407.957C1756.12,408.689 1756.38,409.275 1756.38,409.751C1756.38,410.776 1755.24,411.216 1752.94,411.326L1752.94,412.827C1756.6,412.607 1758.94,412.607 1760.66,412.607C1763.12,412.607 1767.26,412.681 1769.64,412.827L1769.64,411.326C1766.56,410.593 1764.69,409.238 1763.05,406.748L1745.65,382.358Z" style="fill:white;fill-rule:nonzero;"/>
                    <path d="M1818.9,358.884C1811.5,358.884 1804.8,363.022 1804.8,371.885C1804.8,380.344 1811.03,384.409 1818.17,388.694C1825.12,392.869 1829.85,396.311 1829.85,402.39C1829.85,409.458 1824.98,412.388 1820.11,412.388C1810.51,412.388 1807.07,404.441 1806.45,395.359L1804.73,395.359C1804.73,405.942 1804.65,410.264 1804.43,413.34L1806.15,413.34C1806.45,411.179 1806.85,410.044 1807.8,410.044C1808.43,410.044 1809.16,410.337 1810.37,411.106C1812.53,412.461 1815.31,413.889 1820.62,413.889C1829.34,413.889 1836.55,409.165 1836.55,399.644C1836.55,391.587 1830.84,387.632 1823.04,382.761C1816.3,378.55 1810.44,375.84 1810.44,369.028C1810.44,363.865 1814.25,360.313 1819.6,360.313C1827.91,360.313 1831.35,367.6 1831.9,374.741L1833.62,374.741C1833.62,365.293 1833.77,362.07 1833.99,359.434L1832.27,359.434C1831.97,361.594 1831.57,362.73 1830.62,362.73C1829.92,362.73 1829.26,362.437 1828.05,361.667C1826.04,360.313 1823.84,358.884 1818.9,358.884Z" style="fill:white;fill-rule:nonzero;"/>
                    <path d="M1898.05,358.665C1884.09,358.665 1874.2,369.944 1874.2,386.716C1874.2,403.892 1883.73,413.889 1897.97,413.889C1911.92,413.889 1921.81,402.61 1921.81,385.837C1921.81,368.662 1912.29,358.665 1898.05,358.665ZM1897.75,360.02C1906.98,360.02 1914.3,370.164 1914.3,386.13C1914.3,401.658 1908.01,412.534 1898.26,412.534C1889.04,412.534 1881.67,402.39 1881.67,386.423C1881.67,370.896 1887.97,360.02 1897.75,360.02Z" style="fill:white;fill-rule:nonzero;"/>
                    <path d="M2005.46,359.727C2003.81,359.873 2001.03,359.946 1998.5,359.946C1995.94,359.946 1992.64,359.873 1990.85,359.727L1990.85,361.228C1996.71,361.448 1997.66,362.949 1997.66,368.442L1997.66,400.522L1971.18,359.727C1969.54,359.873 1967.52,359.946 1965.33,359.946C1962.8,359.946 1960.02,359.873 1958.37,359.727L1958.37,361.228C1963.46,361.448 1964.45,362.217 1964.45,367.673L1964.45,404.111C1964.45,409.605 1963.46,411.106 1958.37,411.326L1958.37,412.827C1960.02,412.681 1962.8,412.607 1965.33,412.607C1967.89,412.607 1971.18,412.681 1972.98,412.827L1972.98,411.326C1967.16,411.106 1966.17,409.605 1966.17,404.111L1966.17,364.524L1997.66,413.193L1999.38,413.193L1999.38,368.442C1999.38,362.949 2000.37,361.448 2005.46,361.228L2005.46,359.727Z" style="fill:white;fill-rule:nonzero;"/>
                </g>
                <g transform="matrix(1.42804,0,0,0.612016,-831.925,570.501)">
                    <rect x="646" y="1399" width="1610" height="14" style="fill:white;stroke:white;stroke-width:5.01px;"/>
                </g>
                <g transform="matrix(1.42804,0,0,0.612016,-831.925,776.501)">
                    <rect x="646" y="1399" width="1610" height="14" style="fill:white;stroke:white;stroke-width:5.01px;"/>
                </g>
            </g>
        </g>
    </g>
</svg>
