<?xml version="1.0" encoding="UTF-8" standalone="no"?>
<!DOCTYPE svg PUBLIC "-//W3C//DTD SVG 1.1//EN" "http://www.w3.org/Graphics/SVG/1.1/DTD/svg11.dtd">
<svg width="100%" height="100%" viewBox="0 0 2563 1453" version="1.1" xmlns="http://www.w3.org/2000/svg" xmlns:xlink="http://www.w3.org/1999/xlink" xml:space="preserve" style="fill-rule:evenodd;clip-rule:evenodd;stroke-linejoin:round;stroke-miterlimit:1.5;">
    <g transform="matrix(1,0,0,1,277.553,-99.1553)">
        <path d="M-13.916,127.671L-20.361,127.671L-114.502,370.054C-123.681,394.077 -135.595,402.476 -145.947,404.819L-145.947,412.827C-137.939,412.046 -129.541,411.655 -116.064,411.655C-102.002,411.655 -85.205,412.046 -69.97,412.827L-69.97,404.819C-92.822,404.233 -104.736,398.179 -104.736,380.796C-104.736,372.593 -102.197,361.851 -96.728,347.983L-80.322,305.601L16.162,305.601L40.772,371.226C43.897,379.233 45.459,385.288 45.459,389.976C45.459,401.108 36.475,404.038 17.139,404.819L17.139,412.827C28.467,412.046 47.608,411.655 68.311,411.655C83.545,411.655 100.342,412.046 111.28,412.827L111.28,404.819C102.881,404.429 91.553,399.546 83.545,379.233L-13.916,127.671ZM13.233,297.593L-77.392,297.593L-31.494,178.257L13.233,297.593Z" style="fill:rgb(235,235,235);fill-rule:nonzero;"/>
        <path d="M299.483,129.624C287.178,130.405 267.061,130.796 248.701,130.796C227.998,130.796 208.662,130.405 197.53,129.624L197.53,137.632C224.678,138.804 229.951,142.905 229.951,172.007L229.951,370.444C229.951,399.546 224.678,403.647 197.53,404.819L197.53,412.827C236.787,411.655 289.522,411.655 313.545,411.655C340.303,411.655 377.998,411.655 405.147,412.827C403.194,392.515 402.412,371.616 402.412,361.655C402.412,348.765 402.803,337.241 403.584,328.843L394.405,328.843C388.74,384.507 378.78,403.647 328.78,403.647L299.483,403.647C272.334,403.647 267.061,399.546 267.061,370.444L267.061,172.007C267.061,142.905 272.334,138.804 299.483,137.632L299.483,129.624Z" style="fill:rgb(235,235,235);fill-rule:nonzero;"/>
        <path d="M625.186,127.671L618.74,127.671L524.6,370.054C515.42,394.077 503.506,402.476 493.155,404.819L493.155,412.827C501.162,412.046 509.561,411.655 523.037,411.655C537.1,411.655 553.897,412.046 569.131,412.827L569.131,404.819C546.28,404.233 534.365,398.179 534.365,380.796C534.365,372.593 536.905,361.851 542.373,347.983L558.78,305.601L655.264,305.601L679.873,371.226C682.998,379.233 684.561,385.288 684.561,389.976C684.561,401.108 675.576,404.038 656.24,404.819L656.24,412.827C667.569,412.046 686.709,411.655 707.412,411.655C722.647,411.655 739.444,412.046 750.381,412.827L750.381,404.819C741.983,404.429 730.655,399.546 722.647,379.233L625.186,127.671ZM652.334,297.593L561.709,297.593L607.608,178.257L652.334,297.593Z" style="fill:rgb(235,235,235);fill-rule:nonzero;"/>
        <path d="M969.444,262.437C1014.17,248.765 1030.19,221.226 1030.19,192.905C1030.19,155.991 1001.87,130.015 945.811,130.015C936.24,130.015 910.655,130.796 885.459,130.796C867.881,130.796 847.764,130.405 836.631,129.624L836.631,137.632C863.78,138.804 869.053,142.905 869.053,172.007L869.053,370.444C869.053,399.546 863.78,403.647 836.631,404.819L836.631,412.827C847.764,412.046 867.49,411.655 886.24,411.655C919.053,411.655 943.076,412.827 954.99,412.827C1014.95,412.827 1051.08,380.796 1051.08,335.288C1051.08,302.866 1032.72,271.616 969.444,263.218L969.444,262.437ZM935.85,137.632C975.889,137.632 991.905,157.944 991.905,197.202C991.905,231.968 980.186,262.437 933.115,262.437L906.162,262.437L906.162,172.007C906.162,144.468 911.436,137.632 935.85,137.632ZM936.24,403.647C911.436,403.647 906.162,398.374 906.162,370.444L906.162,269.272L939.756,269.272C990.537,269.272 1011.05,292.905 1011.05,333.53C1011.05,378.452 988.584,403.647 936.24,403.647Z" style="fill:rgb(235,235,235);fill-rule:nonzero;"/>
        <path d="M1275.62,127.671L1269.17,127.671L1175.03,370.054C1165.85,394.077 1153.94,402.476 1143.58,404.819L1143.58,412.827C1151.59,412.046 1159.99,411.655 1173.47,411.655C1187.53,411.655 1204.33,412.046 1219.56,412.827L1219.56,404.819C1196.71,404.233 1184.8,398.179 1184.8,380.796C1184.8,372.593 1187.33,361.851 1192.8,347.983L1209.21,305.601L1305.69,305.601L1330.3,371.226C1333.43,379.233 1334.99,385.288 1334.99,389.976C1334.99,401.108 1326.01,404.038 1306.67,404.819L1306.67,412.827C1318,412.046 1337.14,411.655 1357.84,411.655C1373.08,411.655 1389.87,412.046 1400.81,412.827L1400.81,404.819C1392.41,404.429 1381.08,399.546 1373.08,379.233L1275.62,127.671ZM1302.76,297.593L1212.14,297.593L1258.04,178.257L1302.76,297.593Z" style="fill:rgb(235,235,235);fill-rule:nonzero;"/>
        <path d="M1801.9,129.624C1789.4,130.405 1769.48,130.796 1751.12,130.796L1732.18,130.796L1646.24,361.655L1558.35,129.624C1549.56,130.405 1535.89,130.796 1524.17,130.796C1510.69,130.796 1495.85,130.405 1487.06,129.624L1487.06,137.632C1514.21,138.804 1519.48,142.905 1519.48,172.007L1519.48,366.343C1519.48,395.64 1514.21,403.647 1487.06,404.819L1487.06,412.827C1495.85,412.046 1510.69,411.655 1524.17,411.655C1537.84,411.655 1555.42,412.046 1564.99,412.827L1564.99,404.819C1533.94,403.647 1528.66,395.64 1528.66,366.343L1528.66,155.21L1629.44,414.78L1635.89,414.78L1732.18,156.382L1732.18,370.444C1732.18,399.546 1727.1,403.647 1699.95,404.819L1699.95,412.827C1711.08,412.046 1730.23,411.655 1751.12,411.655C1769.48,411.655 1789.4,412.046 1801.9,412.827L1801.9,404.819C1774.76,403.647 1769.48,399.546 1769.48,370.444L1769.48,172.007C1769.48,142.905 1774.76,138.804 1801.9,137.632L1801.9,129.624Z" style="fill:rgb(235,235,235);fill-rule:nonzero;"/>
        <path d="M2028,127.671L2021.55,127.671L1927.41,370.054C1918.23,394.077 1906.32,402.476 1895.97,404.819L1895.97,412.827C1903.98,412.046 1912.37,411.655 1925.85,411.655C1939.91,411.655 1956.71,412.046 1971.94,412.827L1971.94,404.819C1949.09,404.233 1937.18,398.179 1937.18,380.796C1937.18,372.593 1939.72,361.851 1945.19,347.983L1961.59,305.601L2058.08,305.601L2082.69,371.226C2085.81,379.233 2087.37,385.288 2087.37,389.976C2087.37,401.108 2078.39,404.038 2059.05,404.819L2059.05,412.827C2070.38,412.046 2089.52,411.655 2110.22,411.655C2125.46,411.655 2142.26,412.046 2153.19,412.827L2153.19,404.819C2144.8,404.429 2133.47,399.546 2125.46,379.233L2028,127.671ZM2055.15,297.593L1964.52,297.593L2010.42,178.257L2055.15,297.593Z" style="fill:rgb(235,235,235);fill-rule:nonzero;"/>
    </g>
    <g transform="matrix(1,0,0,1,277.553,290.525)">
        <path d="M-120.371,271.226C-132.773,271.812 -149.961,271.812 -162.168,271.812C-174.179,271.812 -200.547,271.812 -220.176,271.226L-220.176,275.23C-206.601,275.815 -203.965,277.866 -203.965,292.417L-203.965,391.636C-203.965,406.187 -206.601,408.237 -220.176,408.823L-220.176,412.827C-214.609,412.437 -204.941,412.241 -194.59,412.241C-183.75,412.241 -172.129,412.437 -165.195,412.827L-165.195,408.823C-181.992,408.237 -185.41,406.187 -185.41,391.636L-185.41,345.64L-170.761,345.64C-153.379,345.64 -153.183,359.214 -151.621,372.007L-146.933,372.007C-148.008,356.87 -148.203,350.23 -148.203,343.589C-148.203,340.659 -148.301,337.73 -148.301,334.116C-148.301,329.429 -148.203,323.667 -147.617,315.269L-152.207,315.269C-153.769,324.839 -153.379,341.636 -170.761,341.636L-185.41,341.636L-185.41,292.417C-185.41,277.866 -182.773,275.815 -169.199,275.815L-156.601,275.815C-131.601,275.815 -128.574,285.386 -125.742,313.218L-121.152,313.218C-121.543,309.019 -121.738,303.257 -121.738,296.812C-121.738,291.831 -121.347,281.382 -120.371,271.226Z" style="fill:rgb(235,235,235);fill-rule:nonzero;"/>
        <path d="M94.199,400.62C90.489,405.308 88.145,408.237 83.262,408.237C77.696,408.237 75.449,403.452 73.008,391.831L68.028,371.421C64.219,354.819 57.774,347.983 40,345.054L37.559,344.663C67.735,339.976 76.426,320.054 76.426,306.187C76.426,286.655 60.41,271.421 28.184,271.421C23.399,271.421 10.606,271.812 -1.992,271.812C-10.781,271.812 -20.84,271.616 -26.406,271.226L-26.406,275.23C-12.832,275.815 -10.195,277.866 -10.195,292.417L-10.195,391.636C-10.195,406.187 -12.832,408.237 -26.406,408.823L-26.406,412.827C-20.84,412.437 -11.172,412.241 -0.82,412.241C8.36,412.241 18.418,412.437 24.571,412.827L24.571,408.823C10.996,408.237 8.36,406.187 8.36,391.636L8.36,345.64L27.403,345.64C43.223,345.64 46.153,357.065 49.961,374.058L54.356,393.98C58.164,411.069 65.781,415.659 75.84,415.659C86.582,415.659 91.563,411.069 97.227,402.866L94.199,400.62ZM23.203,275.23C47.422,275.23 56.406,287.437 56.406,308.433C56.406,326.792 50.156,341.636 21.836,341.636L8.36,341.636L8.36,292.417C8.36,278.647 10.996,275.23 23.203,275.23Z" style="fill:rgb(235,235,235);fill-rule:nonzero;"/>
        <path d="M249.004,268.394C211.797,268.394 185.43,298.472 185.43,343.198C185.43,388.999 210.821,415.659 248.809,415.659C286.016,415.659 312.383,385.581 312.383,340.855C312.383,295.054 286.992,268.394 249.004,268.394ZM248.223,272.007C272.832,272.007 292.364,299.058 292.364,341.636C292.364,383.042 275.567,412.046 249.59,412.046C224.981,412.046 205.352,384.995 205.352,342.417C205.352,301.011 222.149,272.007 248.223,272.007Z" style="fill:rgb(235,235,235);fill-rule:nonzero;"/>
        <path d="M535.449,271.226C531.055,271.616 523.633,271.812 516.895,271.812C510.059,271.812 501.27,271.616 496.485,271.226L496.485,275.23C512.11,275.815 514.649,279.819 514.649,294.468L514.649,380.015L444.043,271.226C439.649,271.616 434.278,271.812 428.418,271.812C421.68,271.812 414.258,271.616 409.864,271.226L409.864,275.23C423.438,275.815 426.074,277.866 426.074,292.417L426.074,389.585C426.074,404.233 423.438,408.237 409.864,408.823L409.864,412.827C414.258,412.437 421.68,412.241 428.418,412.241C435.254,412.241 444.043,412.437 448.828,412.827L448.828,408.823C433.301,408.237 430.664,404.233 430.664,389.585L430.664,284.019L514.649,413.804L519.239,413.804L519.239,294.468C519.239,279.819 521.875,275.815 535.449,275.23L535.449,271.226Z" style="fill:rgb(235,235,235);fill-rule:nonzero;"/>
        <path d="M741.035,271.226C724.434,271.812 701.289,271.812 684.883,271.812C668.477,271.812 645.039,271.812 628.438,271.226C629.512,281.382 629.903,291.831 629.903,296.812C629.903,303.257 629.707,309.019 629.317,313.218L633.906,313.218C636.641,285.386 639.668,275.815 664.668,275.815L675.508,275.815L675.508,389.585C675.508,405.796 672.09,408.237 655.293,408.823L655.293,412.827C661.641,412.437 672.871,412.241 684.883,412.241C695.723,412.241 707.246,412.437 714.278,412.827L714.278,408.823C697.481,408.237 694.063,405.796 694.063,389.585L694.063,275.815L704.903,275.815C729.903,275.815 732.832,285.386 735.664,313.218L740.254,313.218C739.864,309.019 739.668,303.257 739.668,296.812C739.668,291.831 740.059,281.382 741.035,271.226Z" style="fill:rgb(235,235,235);fill-rule:nonzero;"/>
        <path d="M886.27,271.226C880.117,271.616 870.059,271.812 860.879,271.812C850.528,271.812 840.86,271.616 835.293,271.226L835.293,275.23C848.867,275.815 851.504,277.866 851.504,292.417L851.504,391.636C851.504,406.187 848.867,408.237 835.293,408.823L835.293,412.827C840.86,412.437 850.528,412.241 860.879,412.241C870.059,412.241 880.117,412.437 886.27,412.827L886.27,408.823C872.696,408.237 870.059,406.187 870.059,391.636L870.059,292.417C870.059,277.866 872.696,275.815 886.27,275.23L886.27,271.226Z" style="fill:rgb(235,235,235);fill-rule:nonzero;"/>
        <path d="M1085.51,387.241C1085.51,381.675 1085.7,376.401 1086.09,372.788L1081.5,372.788C1078.67,399.253 1073.69,408.237 1048.69,408.237L1034.04,408.237C1020.47,408.237 1017.83,406.187 1017.83,391.636L1017.83,343.589L1031.11,343.589C1048.5,343.589 1048.69,357.261 1050.25,370.054L1054.84,370.054C1053.87,354.819 1053.67,348.179 1053.67,341.636C1053.67,338.706 1053.57,335.776 1053.57,332.065C1053.57,327.476 1053.67,321.714 1054.26,313.218L1049.67,313.218C1048.11,322.788 1048.5,339.585 1031.11,339.585L1017.83,339.585L1017.83,292.417C1017.83,277.866 1020.47,275.815 1034.04,275.815L1050.64,275.815C1071.84,275.815 1074.86,283.628 1077.5,307.261L1082.09,307.261C1081.7,304.233 1081.5,299.644 1081.5,294.858C1081.5,290.269 1081.89,280.601 1082.87,271.226C1070.47,271.812 1053.28,271.812 1041.07,271.812C1029.06,271.812 1002.7,271.812 983.067,271.226L983.067,275.23C996.641,275.815 999.278,277.866 999.278,292.417L999.278,391.636C999.278,406.187 996.641,408.237 983.067,408.823L983.067,412.827C1002.7,412.241 1029.06,412.241 1041.07,412.241C1054.45,412.241 1073.3,412.241 1086.88,412.827C1085.9,402.671 1085.51,392.222 1085.51,387.241Z" style="fill:rgb(235,235,235);fill-rule:nonzero;"/>
        <path d="M1305.45,400.62C1301.74,405.308 1299.39,408.237 1294.51,408.237C1288.95,408.237 1286.7,403.452 1284.26,391.831L1279.28,371.421C1275.47,354.819 1269.02,347.983 1251.25,345.054L1248.81,344.663C1278.99,339.976 1287.68,320.054 1287.68,306.187C1287.68,286.655 1271.66,271.421 1239.43,271.421C1234.65,271.421 1221.86,271.812 1209.26,271.812C1200.47,271.812 1190.41,271.616 1184.84,271.226L1184.84,275.23C1198.42,275.815 1201.06,277.866 1201.06,292.417L1201.06,391.636C1201.06,406.187 1198.42,408.237 1184.84,408.823L1184.84,412.827C1190.41,412.437 1200.08,412.241 1210.43,412.241C1219.61,412.241 1229.67,412.437 1235.82,412.827L1235.82,408.823C1222.25,408.237 1219.61,406.187 1219.61,391.636L1219.61,345.64L1238.65,345.64C1254.47,345.64 1257.4,357.065 1261.21,374.058L1265.61,393.98C1269.41,411.069 1277.03,415.659 1287.09,415.659C1297.83,415.659 1302.81,411.069 1308.48,402.866L1305.45,400.62ZM1234.45,275.23C1258.67,275.23 1267.66,287.437 1267.66,308.433C1267.66,326.792 1261.41,341.636 1233.09,341.636L1219.61,341.636L1219.61,292.417C1219.61,278.647 1222.25,275.23 1234.45,275.23Z" style="fill:rgb(235,235,235);fill-rule:nonzero;"/>
        <path d="M1576.39,271.226C1568.77,271.226 1555.39,271.616 1546.21,271.812C1544.55,271.812 1542.99,271.909 1541.33,271.909C1533.91,271.909 1526.39,271.519 1521.8,271.226L1521.8,275.23C1535.37,275.815 1538.01,277.866 1538.01,292.417L1538.01,391.636C1538.01,406.187 1535.37,408.237 1521.8,408.823L1521.8,412.827C1527.36,412.437 1537.23,412.241 1546.6,412.241C1555.2,412.241 1568.57,412.827 1574.63,412.827C1620.62,412.827 1646.99,384.019 1646.99,340.464C1646.99,295.835 1624.04,271.226 1576.39,271.226ZM1571.41,274.839C1612.81,274.839 1626.97,296.421 1626.97,341.245C1626.97,384.8 1615.16,409.214 1571.6,409.214C1559.2,409.214 1556.56,405.991 1556.56,392.026L1556.56,292.026C1556.56,278.257 1559.2,274.839 1571.41,274.839Z" style="fill:rgb(235,235,235);fill-rule:nonzero;"/>
        <path d="M1798.48,270.249L1795.25,270.249L1748.18,391.44C1743.59,403.452 1737.64,407.651 1732.46,408.823L1732.46,412.827C1736.47,412.437 1740.66,412.241 1747.4,412.241C1754.43,412.241 1762.83,412.437 1770.45,412.827L1770.45,408.823C1759.02,408.53 1753.07,405.503 1753.07,396.812C1753.07,392.71 1754.34,387.339 1757.07,380.405L1765.27,359.214L1813.52,359.214L1825.82,392.026C1827.38,396.03 1828.16,399.058 1828.16,401.401C1828.16,406.968 1823.67,408.433 1814,408.823L1814,412.827C1819.67,412.437 1829.24,412.241 1839.59,412.241C1847.21,412.241 1855.61,412.437 1861.07,412.827L1861.07,408.823C1856.88,408.628 1851.21,406.187 1847.21,396.03L1798.48,270.249ZM1812.05,355.21L1766.74,355.21L1789.69,295.542L1812.05,355.21Z" style="fill:rgb(235,235,235);fill-rule:nonzero;"/>
        <path d="M2032.48,271.812C2025.45,271.812 2017.05,271.616 2009.43,271.226L2009.43,275.23C2020.57,275.522 2027.11,277.964 2027.11,285.874C2027.11,289.976 2025.35,295.542 2021.64,303.062L1996.15,353.843L1962.85,290.073C1961.39,287.241 1960.8,284.995 1960.8,283.14C1960.8,277.183 1967.25,275.425 1974.86,275.425L1974.86,271.226C1966.27,271.812 1955.62,271.812 1946.84,271.812C1940,271.812 1934.43,271.616 1929.26,271.226L1929.26,275.425C1932.09,275.425 1935.41,276.792 1940.88,286.655L1981.41,361.46L1981.41,391.636C1981.41,406.187 1978.87,408.237 1965.2,408.823L1965.2,412.827C1970.86,412.437 1980.43,412.241 1990.88,412.241C2000.06,412.241 2010.02,412.437 2016.27,412.827L2016.27,408.823C2002.6,408.237 2000.06,406.187 2000.06,391.636L2000.06,355.21L2031.41,293.003C2037.46,281.187 2042.25,276.401 2047.42,275.23L2047.42,271.226C2043.42,271.616 2039.22,271.812 2032.48,271.812Z" style="fill:rgb(235,235,235);fill-rule:nonzero;"/>
        <path d="M2179.18,268.98C2159.45,268.98 2141.58,280.015 2141.58,303.647C2141.58,326.206 2158.18,337.046 2177.23,348.472C2195.78,359.605 2208.38,368.784 2208.38,384.995C2208.38,403.843 2195.39,411.655 2182.4,411.655C2156.82,411.655 2147.64,390.464 2145.98,366.245L2141.39,366.245C2141.39,394.468 2141.19,405.991 2140.61,414.194L2145.2,414.194C2145.98,408.433 2147.05,405.405 2149.59,405.405C2151.25,405.405 2153.2,406.187 2156.43,408.237C2162.19,411.851 2169.61,415.659 2183.77,415.659C2207.01,415.659 2226.25,403.062 2226.25,377.671C2226.25,356.187 2211.02,345.64 2190.22,332.651C2172.25,321.421 2156.62,314.194 2156.62,296.03C2156.62,282.261 2166.78,272.788 2181.03,272.788C2203.2,272.788 2212.38,292.222 2213.85,311.265L2218.44,311.265C2218.44,286.069 2218.83,277.476 2219.41,270.444L2214.82,270.444C2214.04,276.206 2212.97,279.233 2210.43,279.233C2208.57,279.233 2206.82,278.452 2203.59,276.401C2198.22,272.788 2192.36,268.98 2179.18,268.98Z" style="fill:rgb(235,235,235);fill-rule:nonzero;"/>
    </g>
    <g transform="matrix(1,0,0,1,277.553,626.743)">
        <path d="M-107.193,274.176C-111.496,274.558 -118.764,274.749 -125.361,274.749C-132.055,274.749 -140.661,274.558 -145.346,274.176L-145.346,278.096C-130.047,278.67 -127.561,282.59 -127.561,296.934L-127.561,380.698L-196.695,274.176C-200.998,274.558 -206.257,274.749 -211.995,274.749C-218.593,274.749 -225.86,274.558 -230.163,274.176L-230.163,278.096C-216.871,278.67 -214.29,280.678 -214.29,294.926L-214.29,390.069C-214.29,404.412 -216.871,408.333 -230.163,408.907L-230.163,412.827C-225.86,412.445 -218.593,412.253 -211.995,412.253C-205.301,412.253 -196.695,412.445 -192.01,412.827L-192.01,408.907C-207.214,408.333 -209.795,404.412 -209.795,390.069L-209.795,286.702L-127.561,413.783L-123.067,413.783L-123.067,296.934C-123.067,282.59 -120.485,278.67 -107.193,278.096L-107.193,274.176Z" style="fill:rgb(235,235,235);fill-rule:nonzero;"/>
        <path d="M49.55,271.403C13.118,271.403 -12.7,300.854 -12.7,344.649C-12.7,389.495 12.162,415.6 49.359,415.6C85.79,415.6 111.608,386.149 111.608,342.354C111.608,297.507 86.747,271.403 49.55,271.403ZM48.785,274.941C72.882,274.941 92.006,301.428 92.006,343.119C92.006,383.663 75.559,412.062 50.124,412.062C26.027,412.062 6.807,385.575 6.807,343.884C6.807,303.34 23.254,274.941 48.785,274.941Z" style="fill:rgb(235,235,235);fill-rule:nonzero;"/>
        <path d="M307.652,274.749C300.767,274.749 292.544,274.558 285.085,274.176L285.085,278.096C296.273,278.383 302.202,281.347 302.202,289.953C302.202,293.969 300.863,299.229 298.281,305.922L266.343,388.635L230.868,294.543C229.338,290.623 228.573,287.658 228.573,285.363C228.573,279.913 233.067,278.479 242.438,278.096L242.438,274.176C236.988,274.558 227.521,274.749 217.385,274.749C209.927,274.749 201.703,274.558 196.444,274.176L196.444,278.096C200.556,278.287 206.006,280.678 209.927,290.623L257.737,413.783L260.893,413.783L306.887,295.117C311.381,283.355 317.214,279.244 322.378,278.096L322.378,274.176C318.457,274.558 314.346,274.749 307.652,274.749Z" style="fill:rgb(235,235,235);fill-rule:nonzero;"/>
        <path d="M507.807,387.774C507.807,382.324 507.999,377.16 508.381,373.622L503.887,373.622C501.114,399.536 496.237,408.333 471.758,408.333L457.415,408.333C444.123,408.333 441.542,406.325 441.542,392.077L441.542,345.031L454.546,345.031C471.567,345.031 471.758,358.418 473.288,370.945L477.782,370.945C476.826,356.028 476.635,349.526 476.635,343.119C476.635,340.25 476.539,337.382 476.539,333.748C476.539,329.254 476.635,323.612 477.208,315.293L472.714,315.293C471.184,324.664 471.567,341.111 454.546,341.111L441.542,341.111L441.542,294.926C441.542,280.678 444.123,278.67 457.415,278.67L473.67,278.67C494.42,278.67 497.385,286.32 499.966,309.46L504.461,309.46C504.078,306.496 503.887,302.002 503.887,297.316C503.887,292.822 504.269,283.355 505.226,274.176C493.082,274.749 476.252,274.749 464.3,274.749C452.538,274.749 426.72,274.749 407.5,274.176L407.5,278.096C420.792,278.67 423.373,280.678 423.373,294.926L423.373,392.077C423.373,406.325 420.792,408.333 407.5,408.907L407.5,412.827C426.72,412.253 452.538,412.253 464.3,412.253C477.4,412.253 495.855,412.253 509.146,412.827C508.19,402.883 507.807,392.651 507.807,387.774Z" style="fill:rgb(235,235,235);fill-rule:nonzero;"/>
        <path d="M759.216,274.176C753.096,274.558 743.343,274.749 734.354,274.749L725.079,274.749L683.006,387.774L639.976,274.176C635.673,274.558 628.979,274.749 623.242,274.749C616.644,274.749 609.377,274.558 605.074,274.176L605.074,278.096C618.365,278.67 620.947,280.678 620.947,294.926L620.947,390.069C620.947,404.412 618.365,408.333 605.074,408.907L605.074,412.827C609.377,412.445 616.644,412.253 623.242,412.253C629.936,412.253 638.542,412.445 643.227,412.827L643.227,408.907C628.023,408.333 625.441,404.412 625.441,390.069L625.441,286.702L674.782,413.783L677.938,413.783L725.079,287.276L725.079,392.077C725.079,406.325 722.593,408.333 709.302,408.907L709.302,412.827C714.752,412.445 724.123,412.253 734.354,412.253C743.343,412.253 753.096,412.445 759.216,412.827L759.216,408.907C745.925,408.333 743.343,406.325 743.343,392.077L743.343,294.926C743.343,280.678 745.925,278.67 759.216,278.096L759.216,274.176Z" style="fill:rgb(235,235,235);fill-rule:nonzero;"/>
        <path d="M919.019,339.198C940.917,332.505 948.758,319.022 948.758,305.157C948.758,287.085 934.892,274.367 907.449,274.367C902.764,274.367 890.237,274.749 877.902,274.749C869.296,274.749 859.447,274.558 853.996,274.176L853.996,278.096C867.288,278.67 869.87,280.678 869.87,294.926L869.87,392.077C869.87,406.325 867.288,408.333 853.996,408.907L853.996,412.827C859.447,412.445 869.105,412.253 878.284,412.253C894.349,412.253 906.11,412.827 911.943,412.827C941.299,412.827 958.989,397.145 958.989,374.865C958.989,358.992 950.001,343.693 919.019,339.581L919.019,339.198ZM902.572,278.096C922.175,278.096 930.016,288.041 930.016,307.261C930.016,324.281 924.278,339.198 901.234,339.198L888.038,339.198L888.038,294.926C888.038,281.443 890.62,278.096 902.572,278.096ZM902.764,408.333C890.62,408.333 888.038,405.751 888.038,392.077L888.038,342.545L904.485,342.545C929.346,342.545 939.387,354.115 939.387,374.005C939.387,395.998 928.39,408.333 902.764,408.333Z" style="fill:rgb(235,235,235);fill-rule:nonzero;"/>
        <path d="M1153.31,387.774C1153.31,382.324 1153.5,377.16 1153.88,373.622L1149.39,373.622C1146.62,399.536 1141.74,408.333 1117.26,408.333L1102.92,408.333C1089.63,408.333 1087.05,406.325 1087.05,392.077L1087.05,345.031L1100.05,345.031C1117.07,345.031 1117.26,358.418 1118.79,370.945L1123.29,370.945C1122.33,356.028 1122.14,349.526 1122.14,343.119C1122.14,340.25 1122.04,337.382 1122.04,333.748C1122.04,329.254 1122.14,323.612 1122.71,315.293L1118.22,315.293C1116.69,324.664 1117.07,341.111 1100.05,341.111L1087.05,341.111L1087.05,294.926C1087.05,280.678 1089.63,278.67 1102.92,278.67L1119.17,278.67C1139.92,278.67 1142.89,286.32 1145.47,309.46L1149.96,309.46C1149.58,306.496 1149.39,302.002 1149.39,297.316C1149.39,292.822 1149.77,283.355 1150.73,274.176C1138.59,274.749 1121.76,274.749 1109.8,274.749C1098.04,274.749 1072.22,274.749 1053,274.176L1053,278.096C1066.3,278.67 1068.88,280.678 1068.88,294.926L1068.88,392.077C1068.88,406.325 1066.3,408.333 1053,408.907L1053,412.827C1072.22,412.253 1098.04,412.253 1109.8,412.253C1122.9,412.253 1141.36,412.253 1154.65,412.827C1153.69,402.883 1153.31,392.651 1153.31,387.774Z" style="fill:rgb(235,235,235);fill-rule:nonzero;"/>
        <path d="M1368.67,400.874C1365.04,405.464 1362.74,408.333 1357.96,408.333C1352.51,408.333 1350.31,403.647 1347.92,392.268L1343.04,372.284C1339.32,356.028 1333,349.334 1315.6,346.466L1313.21,346.083C1342.76,341.493 1351.27,321.987 1351.27,308.408C1351.27,289.284 1335.59,274.367 1304.03,274.367C1299.35,274.367 1286.82,274.749 1274.48,274.749C1265.88,274.749 1256.03,274.558 1250.58,274.176L1250.58,278.096C1263.87,278.67 1266.45,280.678 1266.45,294.926L1266.45,392.077C1266.45,406.325 1263.87,408.333 1250.58,408.907L1250.58,412.827C1256.03,412.445 1265.5,412.253 1275.63,412.253C1284.62,412.253 1294.47,412.445 1300.49,412.827L1300.49,408.907C1287.2,408.333 1284.62,406.325 1284.62,392.077L1284.62,347.039L1303.27,347.039C1318.76,347.039 1321.62,358.227 1325.35,374.865L1329.66,394.372C1333.39,411.106 1340.85,415.6 1350.69,415.6C1361.21,415.6 1366.09,411.106 1371.63,403.074L1368.67,400.874ZM1299.15,278.096C1322.87,278.096 1331.66,290.049 1331.66,310.608C1331.66,328.584 1325.55,343.119 1297.82,343.119L1284.62,343.119L1284.62,294.926C1284.62,281.443 1287.2,278.096 1299.15,278.096Z" style="fill:rgb(235,235,235);fill-rule:nonzero;"/>
        <path d="M1621.82,309.843C1611.88,316.823 1600.31,319.405 1581.47,319.787L1581.47,324.09C1599.16,324.09 1604.23,326.481 1604.23,345.223L1604.23,392.651C1604.23,405.369 1596.38,408.715 1583.48,408.715L1583.48,412.827C1589.5,412.636 1601.45,412.062 1613.6,412.062C1624.21,412.062 1635.3,412.636 1640.66,412.827L1640.66,408.715C1627.08,408.715 1621.82,405.177 1621.82,392.651L1621.82,309.843Z" style="fill:rgb(235,235,235);fill-rule:nonzero;"/>
        <rect x="1863.69" y="354.498" width="70.76" height="11.283" style="fill:rgb(235,235,235);fill-rule:nonzero;"/>
        <path d="M2238.75,403.265C2238.18,397.528 2237.99,392.077 2237.99,379.168L2234.64,379.168C2233.68,386.627 2232.25,389.113 2221.54,389.113L2219.15,389.113L2219.15,309.269L2215.99,309.269L2152.41,398.101L2152.41,402.213L2203.47,402.213L2203.47,440.462L2219.15,440.462L2219.15,402.309C2227.95,402.404 2236.17,402.596 2238.75,403.265ZM2203.47,389.113L2163.98,389.113L2203.47,333.27L2203.47,389.113Z" style="fill:rgb(235,235,235);fill-rule:nonzero;"/>
    </g>
    <g transform="matrix(1.07813,0,0,1.07813,-55.7793,-317.009)">
        <g transform="matrix(1,0,0,1,237.206,1147.72)">
            <path d="M39.846,359.727C35.196,359.946 28.75,359.946 24.173,359.946C19.668,359.946 9.781,359.946 2.42,359.727L2.42,361.228C7.51,361.448 8.499,362.217 8.499,367.673L8.499,404.88C8.499,410.337 7.51,411.106 2.42,411.326L2.42,412.827C4.507,412.681 8.133,412.607 12.014,412.607C16.079,412.607 20.437,412.681 23.037,412.827L23.037,411.326C16.739,411.106 15.457,410.337 15.457,404.88L15.457,387.632L20.95,387.632C27.469,387.632 27.542,392.722 28.128,397.52L29.886,397.52C29.483,391.843 29.409,389.353 29.409,386.863C29.409,385.764 29.373,384.666 29.373,383.311C29.373,381.553 29.409,379.392 29.629,376.243L27.908,376.243C27.322,379.832 27.469,386.13 20.95,386.13L15.457,386.13L15.457,367.673C15.457,362.217 16.446,361.448 21.536,361.448L26.26,361.448C35.635,361.448 36.77,365.037 37.832,375.474L39.553,375.474C39.407,373.899 39.334,371.738 39.334,369.321C39.334,367.454 39.48,363.535 39.846,359.727Z" style="fill:rgb(235,235,235);fill-rule:nonzero;"/>
            <path d="M99.033,358.665C85.081,358.665 75.193,369.944 75.193,386.716C75.193,403.892 84.715,413.889 98.96,413.889C112.913,413.889 122.801,402.61 122.801,385.837C122.801,368.662 113.279,358.665 99.033,358.665ZM98.74,360.02C107.969,360.02 115.293,370.164 115.293,386.13C115.293,401.658 108.994,412.534 99.253,412.534C90.025,412.534 82.664,402.39 82.664,386.423C82.664,370.896 88.963,360.02 98.74,360.02Z" style="fill:rgb(235,235,235);fill-rule:nonzero;"/>
            <path d="M204.583,408.25C203.191,410.007 202.312,411.106 200.481,411.106C198.394,411.106 197.552,409.312 196.636,404.954L194.768,397.3C193.34,391.074 190.923,388.511 184.258,387.412L183.343,387.266C194.658,385.508 197.918,378.037 197.918,372.837C197.918,365.513 191.912,359.8 179.827,359.8C178.032,359.8 173.235,359.946 168.511,359.946C165.215,359.946 161.443,359.873 159.356,359.727L159.356,361.228C164.446,361.448 165.435,362.217 165.435,367.673L165.435,404.88C165.435,410.337 164.446,411.106 159.356,411.326L159.356,412.827C161.443,412.681 165.069,412.607 168.95,412.607C172.393,412.607 176.165,412.681 178.472,412.827L178.472,411.326C173.382,411.106 172.393,410.337 172.393,404.88L172.393,387.632L179.534,387.632C185.467,387.632 186.565,391.917 187.993,398.289L189.641,405.759C191.07,412.168 193.926,413.889 197.698,413.889C201.726,413.889 203.594,412.168 205.718,409.092L204.583,408.25ZM177.959,361.228C187.041,361.228 190.41,365.806 190.41,373.679C190.41,380.564 188.067,386.13 177.447,386.13L172.393,386.13L172.393,367.673C172.393,362.51 173.382,361.228 177.959,361.228Z" style="fill:rgb(235,235,235);fill-rule:nonzero;"/>
            <path d="M278.675,359.727C272.449,359.946 263.77,359.946 257.617,359.946C251.465,359.946 242.676,359.946 236.45,359.727C236.853,363.535 237,367.454 237,369.321C237,371.738 236.927,373.899 236.78,375.474L238.501,375.474C239.527,365.037 240.662,361.448 250.037,361.448L254.102,361.448L254.102,404.111C254.102,410.19 252.82,411.106 246.521,411.326L246.521,412.827C248.902,412.681 253.113,412.607 257.617,412.607C261.682,412.607 266.004,412.681 268.64,412.827L268.64,411.326C262.342,411.106 261.06,410.19 261.06,404.111L261.06,361.448L265.125,361.448C274.5,361.448 275.598,365.037 276.66,375.474L278.382,375.474C278.235,373.899 278.162,371.738 278.162,369.321C278.162,367.454 278.308,363.535 278.675,359.727Z" style="fill:rgb(235,235,235);fill-rule:nonzero;"/>
            <path d="M400.344,359.727C394.119,359.946 385.44,359.946 379.287,359.946C373.135,359.946 364.346,359.946 358.12,359.727C358.523,363.535 358.67,367.454 358.67,369.321C358.67,371.738 358.596,373.899 358.45,375.474L360.171,375.474C361.197,365.037 362.332,361.448 371.707,361.448L375.772,361.448L375.772,404.111C375.772,410.19 374.49,411.106 368.191,411.326L368.191,412.827C370.572,412.681 374.783,412.607 379.287,412.607C383.352,412.607 387.674,412.681 390.31,412.827L390.31,411.326C384.011,411.106 382.73,410.19 382.73,404.111L382.73,361.448L386.795,361.448C396.17,361.448 397.268,365.037 398.33,375.474L400.052,375.474C399.905,373.899 399.832,371.738 399.832,369.321C399.832,367.454 399.978,363.535 400.344,359.727Z" style="fill:rgb(235,235,235);fill-rule:nonzero;"/>
            <path d="M460.374,358.665C446.421,358.665 436.533,369.944 436.533,386.716C436.533,403.892 446.055,413.889 460.301,413.889C474.253,413.889 484.141,402.61 484.141,385.837C484.141,368.662 474.619,358.665 460.374,358.665ZM460.081,360.02C469.309,360.02 476.634,370.164 476.634,386.13C476.634,401.658 470.335,412.534 460.594,412.534C451.365,412.534 444.004,402.39 444.004,386.423C444.004,370.896 450.303,360.02 460.081,360.02Z" style="fill:rgb(235,235,235);fill-rule:nonzero;"/>
            <path d="M566.802,359.727C565.154,359.873 562.407,359.946 559.844,359.946C557.281,359.946 553.985,359.873 552.19,359.727L552.19,361.228C557.281,361.448 559.002,362.949 559.002,368.442L559.002,391.843C559.002,403.013 555.926,411.252 544.61,411.252C533.953,411.252 532.781,402.793 532.781,392.502L532.781,367.673C532.781,362.217 533.733,361.448 538.86,361.228L538.86,359.727C536.516,359.873 532.781,359.946 529.302,359.946C525.42,359.946 521.831,359.873 519.707,359.727L519.707,361.228C524.834,361.448 525.786,362.217 525.786,367.673L525.786,391.221C525.786,401.438 526.922,405.686 531.353,409.824C534.649,412.9 539.153,413.889 543.95,413.889C550.103,413.889 555.193,411.106 557.683,406.895C559.917,403.086 560.76,397.959 560.76,391.001L560.76,368.442C560.76,362.949 561.712,361.448 566.802,361.228L566.802,359.727Z" style="fill:rgb(235,235,235);fill-rule:nonzero;"/>
            <path d="M621.118,359.727C618.811,359.873 615.039,359.946 611.597,359.946C607.715,359.946 604.09,359.873 602.002,359.727L602.002,361.228C607.093,361.448 608.081,362.217 608.081,367.673L608.081,404.88C608.081,410.337 607.093,411.106 602.002,411.326L602.002,412.827C609.363,412.607 619.251,412.607 623.755,412.607C628.772,412.607 635.84,412.607 640.93,412.827C640.564,409.019 640.418,405.1 640.418,403.232C640.418,400.815 640.491,398.655 640.637,397.08L638.916,397.08C637.854,407.517 635.987,411.106 626.612,411.106L621.118,411.106C616.028,411.106 615.039,410.337 615.039,404.88L615.039,367.673C615.039,362.217 616.028,361.448 621.118,361.228L621.118,359.727Z" style="fill:rgb(235,235,235);fill-rule:nonzero;"/>
            <path d="M700.777,358.665C686.824,358.665 676.936,369.944 676.936,386.716C676.936,403.892 686.458,413.889 700.703,413.889C714.656,413.889 724.544,402.61 724.544,385.837C724.544,368.662 715.022,358.665 700.777,358.665ZM700.484,360.02C709.712,360.02 717.036,370.164 717.036,386.13C717.036,401.658 710.738,412.534 700.996,412.534C691.768,412.534 684.407,402.39 684.407,386.423C684.407,370.896 690.706,360.02 700.484,360.02Z" style="fill:rgb(235,235,235);fill-rule:nonzero;"/>
            <path d="M807.205,359.727C805.557,359.873 802.81,359.946 800.247,359.946C797.683,359.946 794.387,359.873 792.593,359.727L792.593,361.228C797.683,361.448 799.405,362.949 799.405,368.442L799.405,391.843C799.405,403.013 796.328,411.252 785.012,411.252C774.356,411.252 773.184,402.793 773.184,392.502L773.184,367.673C773.184,362.217 774.136,361.448 779.263,361.228L779.263,359.727C776.919,359.873 773.184,359.946 769.705,359.946C765.823,359.946 762.234,359.873 760.11,359.727L760.11,361.228C765.237,361.448 766.189,362.217 766.189,367.673L766.189,391.221C766.189,401.438 767.324,405.686 771.756,409.824C775.052,412.9 779.556,413.889 784.353,413.889C790.506,413.889 795.596,411.106 798.086,406.895C800.32,403.086 801.162,397.959 801.162,391.001L801.162,368.442C801.162,362.949 802.115,361.448 807.205,361.228L807.205,359.727Z" style="fill:rgb(235,235,235);fill-rule:nonzero;"/>
            <path d="M858.445,358.884C851.048,358.884 844.346,363.022 844.346,371.885C844.346,380.344 850.572,384.409 857.713,388.694C864.671,392.869 869.395,396.311 869.395,402.39C869.395,409.458 864.524,412.388 859.654,412.388C850.059,412.388 846.616,404.441 845.994,395.359L844.273,395.359C844.273,405.942 844.199,410.264 843.98,413.34L845.701,413.34C845.994,411.179 846.397,410.044 847.349,410.044C847.971,410.044 848.704,410.337 849.912,411.106C852.073,412.461 854.856,413.889 860.166,413.889C868.882,413.889 876.096,409.165 876.096,399.644C876.096,391.587 870.384,387.632 862.583,382.761C855.845,378.55 849.986,375.84 849.986,369.028C849.986,363.865 853.794,360.313 859.141,360.313C867.454,360.313 870.896,367.6 871.446,374.741L873.167,374.741C873.167,365.293 873.313,362.07 873.533,359.434L871.812,359.434C871.519,361.594 871.116,362.73 870.164,362.73C869.468,362.73 868.809,362.437 867.6,361.667C865.586,360.313 863.389,358.884 858.445,358.884Z" style="fill:rgb(235,235,235);fill-rule:nonzero;"/>
            <path d="M951.323,403.232C951.323,401.145 951.397,399.167 951.543,397.813L949.822,397.813C948.76,407.737 946.892,411.106 937.517,411.106L932.024,411.106C926.934,411.106 925.945,410.337 925.945,404.88L925.945,386.863L930.926,386.863C937.444,386.863 937.517,391.99 938.103,396.787L939.824,396.787C939.458,391.074 939.385,388.584 939.385,386.13C939.385,385.032 939.348,383.933 939.348,382.542C939.348,380.82 939.385,378.66 939.605,375.474L937.884,375.474C937.298,379.063 937.444,385.361 930.926,385.361L925.945,385.361L925.945,367.673C925.945,362.217 926.934,361.448 932.024,361.448L938.25,361.448C946.197,361.448 947.332,364.377 948.321,373.24L950.042,373.24C949.895,372.105 949.822,370.383 949.822,368.589C949.822,366.868 949.969,363.242 950.335,359.727C945.684,359.946 939.239,359.946 934.661,359.946C930.156,359.946 920.269,359.946 912.908,359.727L912.908,361.228C917.998,361.448 918.987,362.217 918.987,367.673L918.987,404.88C918.987,410.337 917.998,411.106 912.908,411.326L912.908,412.827C920.269,412.607 930.156,412.607 934.661,412.607C939.678,412.607 946.746,412.607 951.836,412.827C951.47,409.019 951.323,405.1 951.323,403.232Z" style="fill:rgb(235,235,235);fill-rule:nonzero;"/>
            <rect x="1039.27" y="390.488" width="27.1" height="4.321" style="fill:rgb(235,235,235);fill-rule:nonzero;"/>
            <path d="M1190.78,359.727C1186.13,359.946 1179.68,359.946 1175.11,359.946C1170.6,359.946 1160.72,359.946 1153.36,359.727L1153.36,361.228C1158.44,361.448 1159.43,362.217 1159.43,367.673L1159.43,404.88C1159.43,410.337 1158.44,411.106 1153.36,411.326L1153.36,412.827C1155.44,412.681 1159.07,412.607 1162.95,412.607C1167.01,412.607 1171.37,412.681 1173.97,412.827L1173.97,411.326C1167.67,411.106 1166.39,410.337 1166.39,404.88L1166.39,387.632L1171.88,387.632C1178.4,387.632 1178.48,392.722 1179.06,397.52L1180.82,397.52C1180.42,391.843 1180.34,389.353 1180.34,386.863C1180.34,385.764 1180.31,384.666 1180.31,383.311C1180.31,381.553 1180.34,379.392 1180.56,376.243L1178.84,376.243C1178.26,379.832 1178.4,386.13 1171.88,386.13L1166.39,386.13L1166.39,367.673C1166.39,362.217 1167.38,361.448 1172.47,361.448L1177.19,361.448C1186.57,361.448 1187.7,365.037 1188.77,375.474L1190.49,375.474C1190.34,373.899 1190.27,371.738 1190.27,369.321C1190.27,367.454 1190.41,363.535 1190.78,359.727Z" style="fill:rgb(235,235,235);fill-rule:nonzero;"/>
            <path d="M1249.97,358.665C1236.02,358.665 1226.13,369.944 1226.13,386.716C1226.13,403.892 1235.65,413.889 1249.89,413.889C1263.85,413.889 1273.74,402.61 1273.74,385.837C1273.74,368.662 1264.21,358.665 1249.97,358.665ZM1249.68,360.02C1258.9,360.02 1266.23,370.164 1266.23,386.13C1266.23,401.658 1259.93,412.534 1250.19,412.534C1240.96,412.534 1233.6,402.39 1233.6,386.423C1233.6,370.896 1239.9,360.02 1249.68,360.02Z" style="fill:rgb(235,235,235);fill-rule:nonzero;"/>
            <path d="M1355.52,408.25C1354.13,410.007 1353.25,411.106 1351.42,411.106C1349.33,411.106 1348.49,409.312 1347.57,404.954L1345.7,397.3C1344.28,391.074 1341.86,388.511 1335.19,387.412L1334.28,387.266C1345.59,385.508 1348.85,378.037 1348.85,372.837C1348.85,365.513 1342.85,359.8 1330.76,359.8C1328.97,359.8 1324.17,359.946 1319.45,359.946C1316.15,359.946 1312.38,359.873 1310.29,359.727L1310.29,361.228C1315.38,361.448 1316.37,362.217 1316.37,367.673L1316.37,404.88C1316.37,410.337 1315.38,411.106 1310.29,411.326L1310.29,412.827C1312.38,412.681 1316,412.607 1319.89,412.607C1323.33,412.607 1327.1,412.681 1329.41,412.827L1329.41,411.326C1324.32,411.106 1323.33,410.337 1323.33,404.88L1323.33,387.632L1330.47,387.632C1336.4,387.632 1337.5,391.917 1338.93,398.289L1340.58,405.759C1342.01,412.168 1344.86,413.889 1348.63,413.889C1352.66,413.889 1354.53,412.168 1356.65,409.092L1355.52,408.25ZM1328.89,361.228C1337.98,361.228 1341.35,365.806 1341.35,373.679C1341.35,380.564 1339,386.13 1328.38,386.13L1323.33,386.13L1323.33,367.673C1323.33,362.51 1324.32,361.228 1328.89,361.228Z" style="fill:rgb(235,235,235);fill-rule:nonzero;"/>
            <path d="M1429.61,359.727C1423.38,359.946 1414.7,359.946 1408.55,359.946C1402.4,359.946 1393.61,359.946 1387.39,359.727C1387.79,363.535 1387.93,367.454 1387.93,369.321C1387.93,371.738 1387.86,373.899 1387.71,375.474L1389.44,375.474C1390.46,365.037 1391.6,361.448 1400.97,361.448L1405.04,361.448L1405.04,404.111C1405.04,410.19 1403.76,411.106 1397.46,411.326L1397.46,412.827C1399.84,412.681 1404.05,412.607 1408.55,412.607C1412.62,412.607 1416.94,412.681 1419.58,412.827L1419.58,411.326C1413.28,411.106 1412,410.19 1412,404.111L1412,361.448L1416.06,361.448C1425.43,361.448 1426.53,365.037 1427.6,375.474L1429.32,375.474C1429.17,373.899 1429.1,371.738 1429.1,369.321C1429.1,367.454 1429.24,363.535 1429.61,359.727Z" style="fill:rgb(235,235,235);fill-rule:nonzero;"/>
            <path d="M1530.52,359.727C1528.17,359.873 1524.44,359.946 1520.99,359.946C1517.08,359.946 1513.49,359.873 1511.4,359.727L1511.4,361.228C1516.49,361.448 1517.48,362.217 1517.48,367.673L1517.48,401.951C1517.48,412.314 1517.22,415.977 1516.2,419.126C1514.84,423.118 1511.55,425.498 1507.19,425.498C1505.91,425.498 1503.38,425.278 1502.39,424.29C1504.26,423.923 1505.54,422.642 1505.54,420.481C1505.54,417.917 1503.75,416.416 1501.4,416.416C1499.09,416.416 1497.45,418.064 1497.45,420.408C1497.45,422.495 1498.58,424.29 1501.04,425.571C1502.39,426.267 1504.55,426.926 1507.33,426.926C1515.9,426.926 1521.51,421.616 1523.15,414.695C1524.36,409.678 1524.44,401.365 1524.44,395.139L1524.44,367.673C1524.44,362.217 1525.42,361.448 1530.52,361.228L1530.52,359.727Z" style="fill:rgb(235,235,235);fill-rule:nonzero;"/>
            <path d="M1586.74,359.36L1585.53,359.36L1567.88,404.807C1566.15,409.312 1563.92,410.886 1561.98,411.326L1561.98,412.827C1563.48,412.681 1565.06,412.607 1567.58,412.607C1570.22,412.607 1573.37,412.681 1576.23,412.827L1576.23,411.326C1571.94,411.216 1569.71,410.081 1569.71,406.821C1569.71,405.283 1570.18,403.269 1571.21,400.669L1574.29,392.722L1592.38,392.722L1596.99,405.027C1597.58,406.528 1597.87,407.664 1597.87,408.542C1597.87,410.63 1596.18,411.179 1592.56,411.326L1592.56,412.827C1594.68,412.681 1598.27,412.607 1602.15,412.607C1605.01,412.607 1608.16,412.681 1610.21,412.827L1610.21,411.326C1608.64,411.252 1606.51,410.337 1605.01,406.528L1586.74,359.36ZM1591.83,391.221L1574.83,391.221L1583.44,368.845L1591.83,391.221Z" style="fill:rgb(235,235,235);fill-rule:nonzero;"/>
            <path d="M1666.83,358.665C1652.88,358.665 1642.99,369.944 1642.99,386.716C1642.99,403.892 1652.52,413.889 1666.76,413.889C1673.21,413.889 1676.94,411.619 1680.64,409.019C1681.26,408.616 1681.78,408.396 1682.18,408.396C1683.24,408.396 1683.75,409.751 1684.01,412.827L1685.73,412.827C1685.51,409.019 1685.44,403.892 1685.44,394.81L1683.72,394.81C1682.95,400.889 1682.43,403.745 1680.24,406.675C1677.42,410.74 1671.92,412.388 1667.42,412.388C1657.75,412.388 1650.46,403.159 1650.46,386.423C1650.46,370.164 1656.91,360.02 1666.69,360.02C1671.85,360.02 1676.8,361.814 1679.94,365.879C1682.07,368.589 1682.65,370.603 1683.72,376.975L1685.44,376.975C1685.44,368.259 1685.51,363.389 1685.73,359.727L1684.01,359.727C1683.75,362.803 1683.13,364.194 1682.11,364.194C1681.66,364.194 1681.19,363.975 1680.64,363.535C1677.34,361.008 1673.43,358.665 1666.83,358.665Z" style="fill:rgb(235,235,235);fill-rule:nonzero;"/>
            <path d="M1745.65,382.358L1757.88,366.685C1760.74,363.022 1763.67,361.667 1766.74,361.228L1766.74,359.727C1765.24,359.873 1762.9,359.946 1760.34,359.946C1757.74,359.946 1754.59,359.873 1751.73,359.727L1751.73,361.228C1754.91,361.301 1756.38,362.217 1756.38,363.938C1756.38,365.586 1754.99,368.003 1752.53,371.116L1745.36,380.271C1743.53,382.615 1740.85,384.336 1736.79,384.482L1736.79,367.673C1736.79,362.217 1737.78,361.448 1742.87,361.228L1742.87,359.727C1740.56,359.873 1736.79,359.946 1733.35,359.946C1729.46,359.946 1725.84,359.873 1723.75,359.727L1723.75,361.228C1728.84,361.448 1729.83,362.217 1729.83,367.673L1729.83,404.88C1729.83,410.337 1728.84,411.106 1723.75,411.326L1723.75,412.827C1725.84,412.681 1729.46,412.607 1733.35,412.607C1736.79,412.607 1740.56,412.681 1742.87,412.827L1742.87,411.326C1737.78,411.106 1736.79,410.337 1736.79,404.88L1736.79,385.984C1740.27,386.167 1741.66,386.899 1744.66,391.44L1755.61,407.957C1756.12,408.689 1756.38,409.275 1756.38,409.751C1756.38,410.776 1755.24,411.216 1752.94,411.326L1752.94,412.827C1756.6,412.607 1758.94,412.607 1760.66,412.607C1763.12,412.607 1767.26,412.681 1769.64,412.827L1769.64,411.326C1766.56,410.593 1764.69,409.238 1763.05,406.748L1745.65,382.358Z" style="fill:rgb(235,235,235);fill-rule:nonzero;"/>
            <path d="M1818.9,358.884C1811.5,358.884 1804.8,363.022 1804.8,371.885C1804.8,380.344 1811.03,384.409 1818.17,388.694C1825.12,392.869 1829.85,396.311 1829.85,402.39C1829.85,409.458 1824.98,412.388 1820.11,412.388C1810.51,412.388 1807.07,404.441 1806.45,395.359L1804.73,395.359C1804.73,405.942 1804.65,410.264 1804.43,413.34L1806.15,413.34C1806.45,411.179 1806.85,410.044 1807.8,410.044C1808.43,410.044 1809.16,410.337 1810.37,411.106C1812.53,412.461 1815.31,413.889 1820.62,413.889C1829.34,413.889 1836.55,409.165 1836.55,399.644C1836.55,391.587 1830.84,387.632 1823.04,382.761C1816.3,378.55 1810.44,375.84 1810.44,369.028C1810.44,363.865 1814.25,360.313 1819.6,360.313C1827.91,360.313 1831.35,367.6 1831.9,374.741L1833.62,374.741C1833.62,365.293 1833.77,362.07 1833.99,359.434L1832.27,359.434C1831.97,361.594 1831.57,362.73 1830.62,362.73C1829.92,362.73 1829.26,362.437 1828.05,361.667C1826.04,360.313 1823.84,358.884 1818.9,358.884Z" style="fill:rgb(235,235,235);fill-rule:nonzero;"/>
            <path d="M1898.05,358.665C1884.09,358.665 1874.2,369.944 1874.2,386.716C1874.2,403.892 1883.73,413.889 1897.97,413.889C1911.92,413.889 1921.81,402.61 1921.81,385.837C1921.81,368.662 1912.29,358.665 1898.05,358.665ZM1897.75,360.02C1906.98,360.02 1914.3,370.164 1914.3,386.13C1914.3,401.658 1908.01,412.534 1898.26,412.534C1889.04,412.534 1881.67,402.39 1881.67,386.423C1881.67,370.896 1887.97,360.02 1897.75,360.02Z" style="fill:rgb(235,235,235);fill-rule:nonzero;"/>
            <path d="M2005.46,359.727C2003.81,359.873 2001.03,359.946 1998.5,359.946C1995.94,359.946 1992.64,359.873 1990.85,359.727L1990.85,361.228C1996.71,361.448 1997.66,362.949 1997.66,368.442L1997.66,400.522L1971.18,359.727C1969.54,359.873 1967.52,359.946 1965.33,359.946C1962.8,359.946 1960.02,359.873 1958.37,359.727L1958.37,361.228C1963.46,361.448 1964.45,362.217 1964.45,367.673L1964.45,404.111C1964.45,409.605 1963.46,411.106 1958.37,411.326L1958.37,412.827C1960.02,412.681 1962.8,412.607 1965.33,412.607C1967.89,412.607 1971.18,412.681 1972.98,412.827L1972.98,411.326C1967.16,411.106 1966.17,409.605 1966.17,404.111L1966.17,364.524L1997.66,413.193L1999.38,413.193L1999.38,368.442C1999.38,362.949 2000.37,361.448 2005.46,361.228L2005.46,359.727Z" style="fill:rgb(235,235,235);fill-rule:nonzero;"/>
        </g>
        <g transform="matrix(1.42804,0,0,0.612016,-831.925,570.501)">
            <rect x="646" y="1399" width="1610" height="14" style="fill:rgb(235,235,235);stroke:white;stroke-width:0.35px;"/>
        </g>
        <g transform="matrix(1.42804,0,0,0.612016,-831.925,776.501)">
            <rect x="646" y="1399" width="1610" height="14" style="fill:rgb(235,235,235);stroke:white;stroke-width:0.35px;"/>
        </g>
    </g>
</svg>
