<?xml version="1.0" encoding="UTF-8" standalone="no"?><!DOCTYPE svg PUBLIC "-//W3C//DTD SVG 1.1//EN" "http://www.w3.org/Graphics/SVG/1.1/DTD/svg11.dtd"><svg width="100%" height="100%" viewBox="0 0 2563 1453" version="1.1" xmlns="http://www.w3.org/2000/svg" xmlns:xlink="http://www.w3.org/1999/xlink" xml:space="preserve" xmlns:serif="http://www.serif.com/" style="fill-rule:evenodd;clip-rule:evenodd;stroke-linejoin:round;stroke-miterlimit:1.5;"><g><path d="M263.637,28.516l-6.445,0l-94.141,242.383c-9.179,24.023 -21.093,32.422 -31.445,34.765l0,8.008c8.008,-0.781 16.406,-1.172 29.883,-1.172c14.062,0 30.859,0.391 46.094,1.172l0,-8.008c-22.852,-0.586 -34.766,-6.64 -34.766,-24.023c0,-8.203 2.539,-18.945 8.008,-32.813l16.406,-42.382l96.484,0l24.61,65.625c3.125,8.007 4.687,14.062 4.687,18.75c0,11.132 -8.984,14.062 -28.32,14.843l0,8.008c11.328,-0.781 30.469,-1.172 51.172,-1.172c15.234,0 32.031,0.391 42.969,1.172l0,-8.008c-8.399,-0.39 -19.727,-5.273 -27.735,-25.586l-97.461,-251.562Zm27.149,169.922l-90.625,0l45.898,-119.336l44.727,119.336Z" style="fill:#fff;fill-rule:nonzero;"/><path d="M577.036,30.469c-12.305,0.781 -32.422,1.172 -50.782,1.172c-20.703,0 -40.039,-0.391 -51.171,-1.172l0,8.008c27.148,1.172 32.421,5.273 32.421,34.375l0,198.437c0,29.102 -5.273,33.203 -32.421,34.375l0,8.008c39.257,-1.172 91.992,-1.172 116.015,-1.172c26.758,0 64.453,0 91.602,1.172c-1.953,-20.312 -2.735,-41.211 -2.735,-51.172c0,-12.89 0.391,-24.414 1.172,-32.812l-9.179,0c-5.665,55.664 -15.625,74.804 -65.625,74.804l-29.297,0c-27.149,0 -32.422,-4.101 -32.422,-33.203l0,-198.437c0,-29.102 5.273,-33.203 32.422,-34.375l0,-8.008Z" style="fill:#fff;fill-rule:nonzero;"/><path d="M902.739,28.516l-6.446,0l-94.14,242.383c-9.18,24.023 -21.094,32.422 -31.445,34.765l0,8.008c8.007,-0.781 16.406,-1.172 29.882,-1.172c14.063,0 30.86,0.391 46.094,1.172l0,-8.008c-22.851,-0.586 -34.766,-6.64 -34.766,-24.023c0,-8.203 2.54,-18.945 8.008,-32.813l16.407,-42.382l96.484,0l24.609,65.625c3.125,8.007 4.688,14.062 4.688,18.75c0,11.132 -8.985,14.062 -28.321,14.843l0,8.008c11.329,-0.781 30.469,-1.172 51.172,-1.172c15.235,0 32.032,0.391 42.969,1.172l0,-8.008c-8.398,-0.39 -19.726,-5.273 -27.734,-25.586l-97.461,-251.562Zm27.148,169.922l-90.625,0l45.899,-119.336l44.726,119.336Z" style="fill:#fff;fill-rule:nonzero;"/><path d="M1247,163.282c44.726,-13.672 60.746,-41.211 60.746,-69.532c0,-36.914 -28.32,-62.89 -84.379,-62.89c-9.571,0 -35.156,0.781 -60.352,0.781c-17.578,0 -37.695,-0.391 -48.828,-1.172l0,8.008c27.149,1.172 32.422,5.273 32.422,34.375l0,198.437c0,29.102 -5.273,33.203 -32.422,34.375l0,8.008c11.133,-0.781 30.859,-1.172 49.609,-1.172c32.813,0 56.836,1.172 68.75,1.172c59.96,0 96.09,-32.031 96.09,-77.539c0,-32.422 -18.36,-63.672 -81.636,-72.07l0,-0.781Zm-33.594,-124.805c40.039,0 56.055,20.312 56.055,59.57c0,34.766 -11.719,65.235 -58.79,65.235l-26.953,0l0,-90.43c0,-27.539 5.274,-34.375 29.688,-34.375Zm0.39,266.015c-24.804,0 -30.078,-5.273 -30.078,-33.203l0,-101.172l33.594,0c50.781,0 71.294,23.633 71.294,64.258c0,44.922 -22.466,70.117 -74.81,70.117Z" style="fill:#fff;fill-rule:nonzero;"/><path d="M1553.17,28.516l-6.45,0l-94.14,242.383c-9.18,24.023 -21.09,32.422 -31.45,34.765l0,8.008c8.01,-0.781 16.41,-1.172 29.89,-1.172c14.06,0 30.86,0.391 46.09,1.172l0,-8.008c-22.85,-0.586 -34.76,-6.64 -34.76,-24.023c0,-8.203 2.53,-18.945 8,-32.813l16.41,-42.382l96.48,0l24.61,65.625c3.13,8.007 4.69,14.062 4.69,18.75c0,11.132 -8.98,14.062 -28.32,14.843l0,8.008c11.33,-0.781 30.47,-1.172 51.17,-1.172c15.24,0 32.03,0.391 42.97,1.172l0,-8.008c-8.4,-0.39 -19.73,-5.273 -27.73,-25.586l-97.46,-251.562Zm27.14,169.922l-90.62,0l45.9,-119.336l44.72,119.336Z" style="fill:#fff;fill-rule:nonzero;"/><path d="M2079.45,30.469c-12.5,0.781 -32.42,1.172 -50.78,1.172l-18.94,0l-85.94,230.859l-87.89,-232.031c-8.79,0.781 -22.46,1.172 -34.18,1.172c-13.48,0 -28.32,-0.391 -37.11,-1.172l0,8.008c27.15,1.172 32.42,5.273 32.42,34.375l0,194.336c0,29.297 -5.27,37.304 -32.42,38.476l0,8.008c8.79,-0.781 23.63,-1.172 37.11,-1.172c13.67,0 31.25,0.391 40.82,1.172l0,-8.008c-31.05,-1.172 -36.33,-9.179 -36.33,-38.476l0,-211.133l100.78,259.57l6.45,0l96.29,-258.398l0,214.062c0,29.102 -5.08,33.203 -32.23,34.375l0,8.008c11.13,-0.781 30.28,-1.172 51.17,-1.172c18.36,0 38.28,0.391 50.78,1.172l0,-8.008c-27.14,-1.172 -32.42,-5.273 -32.42,-34.375l0,-198.437c0,-29.102 5.28,-33.203 32.42,-34.375l0,-8.008Z" style="fill:#fff;fill-rule:nonzero;"/><path d="M2305.55,28.516l-6.45,0l-94.14,242.383c-9.18,24.023 -21.09,32.422 -31.44,34.765l0,8.008c8.01,-0.781 16.4,-1.172 29.88,-1.172c14.06,0 30.86,0.391 46.09,1.172l0,-8.008c-22.85,-0.586 -34.76,-6.64 -34.76,-24.023c0,-8.203 2.54,-18.945 8.01,-32.813l16.4,-42.382l96.49,0l24.61,65.625c3.12,8.007 4.68,14.062 4.68,18.75c0,11.132 -8.98,14.062 -28.32,14.843l0,8.008c11.33,-0.781 30.47,-1.172 51.17,-1.172c15.24,0 32.04,0.391 42.97,1.172l0,-8.008c-8.39,-0.39 -19.72,-5.273 -27.73,-25.586l-97.46,-251.562Zm27.15,169.922l-90.63,0l45.9,-119.336l44.73,119.336Z" style="fill:#fff;fill-rule:nonzero;"/></g><g><path d="M157.182,561.751c-12.402,0.586 -29.59,0.586 -41.797,0.586c-12.011,0 -38.379,0 -58.008,-0.586l0,4.004c13.575,0.585 16.211,2.636 16.211,17.187l0,99.219c0,14.551 -2.636,16.601 -16.211,17.187l0,4.004c5.567,-0.39 15.235,-0.586 25.586,-0.586c10.84,0 22.461,0.196 29.395,0.586l0,-4.004c-16.797,-0.586 -20.215,-2.636 -20.215,-17.187l0,-45.996l14.649,0c17.382,0 17.578,13.574 19.14,26.367l4.688,0c-1.075,-15.137 -1.27,-21.777 -1.27,-28.418c0,-2.93 -0.098,-5.859 -0.098,-9.473c0,-4.687 0.098,-10.449 0.684,-18.847l-4.59,0c-1.562,9.57 -1.172,26.367 -18.554,26.367l-14.649,0l0,-49.219c0,-14.551 2.637,-16.602 16.211,-16.602l12.598,0c25,0 28.027,9.571 30.859,37.403l4.59,0c-0.391,-4.199 -0.586,-9.961 -0.586,-16.406c0,-4.981 0.391,-15.43 1.367,-25.586Z" style="fill:#fff;fill-rule:nonzero;"/><path d="M371.752,691.145c-3.71,4.688 -6.054,7.617 -10.937,7.617c-5.566,0 -7.813,-4.785 -10.254,-16.406l-4.98,-20.41c-3.809,-16.602 -10.254,-23.438 -28.028,-26.367l-2.441,-0.391c30.176,-4.687 38.867,-24.609 38.867,-38.476c0,-19.532 -16.016,-34.766 -48.242,-34.766c-4.785,0 -17.578,0.391 -30.176,0.391c-8.789,0 -18.848,-0.196 -24.414,-0.586l0,4.004c13.574,0.585 16.211,2.636 16.211,17.187l0,99.219c0,14.551 -2.637,16.601 -16.211,17.187l0,4.004c5.566,-0.39 15.234,-0.586 25.586,-0.586c9.18,0 19.238,0.196 25.391,0.586l0,-4.004c-13.575,-0.586 -16.211,-2.636 -16.211,-17.187l0,-45.996l19.043,0c15.82,0 18.75,11.425 22.558,28.418l4.395,19.922c3.808,17.089 11.425,21.679 21.484,21.679c10.742,0 15.723,-4.59 21.387,-12.793l-3.028,-2.246Zm-70.996,-125.39c24.219,0 33.203,12.207 33.203,33.203c0,18.359 -6.25,33.203 -34.57,33.203l-13.476,0l0,-49.219c0,-13.77 2.636,-17.187 14.843,-17.187Z" style="fill:#fff;fill-rule:nonzero;"/><path d="M526.557,558.919c-37.207,0 -63.574,30.078 -63.574,74.804c0,45.801 25.391,72.461 63.379,72.461c37.207,0 63.574,-30.078 63.574,-74.804c0,-45.801 -25.391,-72.461 -63.379,-72.461Zm-0.781,3.613c24.609,0 44.141,27.051 44.141,69.629c0,41.406 -16.797,70.41 -42.774,70.41c-24.609,0 -44.238,-27.051 -44.238,-69.629c0,-41.406 16.797,-70.41 42.871,-70.41Z" style="fill:#fff;fill-rule:nonzero;"/><path d="M813.002,561.751c-4.394,0.39 -11.816,0.586 -18.554,0.586c-6.836,0 -15.625,-0.196 -20.41,-0.586l0,4.004c15.625,0.585 18.164,4.589 18.164,19.238l0,85.547l-70.606,-108.789c-4.394,0.39 -9.765,0.586 -15.625,0.586c-6.738,0 -14.16,-0.196 -18.554,-0.586l0,4.004c13.574,0.585 16.21,2.636 16.21,17.187l0,97.168c0,14.648 -2.636,18.652 -16.21,19.238l0,4.004c4.394,-0.39 11.816,-0.586 18.554,-0.586c6.836,0 15.625,0.196 20.41,0.586l0,-4.004c-15.527,-0.586 -18.164,-4.59 -18.164,-19.238l0,-105.566l83.985,129.785l4.59,0l0,-119.336c0,-14.649 2.636,-18.653 16.21,-19.238l0,-4.004Z" style="fill:#fff;fill-rule:nonzero;"/><path d="M1018.59,561.751c-16.601,0.586 -39.746,0.586 -56.152,0.586c-16.406,0 -39.844,0 -56.445,-0.586c1.074,10.156 1.465,20.605 1.465,25.586c0,6.445 -0.196,12.207 -0.586,16.406l4.589,0c2.735,-27.832 5.762,-37.403 30.762,-37.403l10.84,0l0,113.77c0,16.211 -3.418,18.652 -20.215,19.238l0,4.004c6.348,-0.39 17.578,-0.586 29.59,-0.586c10.84,0 22.363,0.196 29.395,0.586l0,-4.004c-16.797,-0.586 -20.215,-3.027 -20.215,-19.238l0,-113.77l10.84,0c25,0 27.929,9.571 30.761,37.403l4.59,0c-0.39,-4.199 -0.586,-9.961 -0.586,-16.406c0,-4.981 0.391,-15.43 1.367,-25.586Z" style="fill:#fff;fill-rule:nonzero;"/><path d="M1163.82,561.751c-6.153,0.39 -16.211,0.586 -25.391,0.586c-10.351,0 -20.019,-0.196 -25.586,-0.586l0,4.004c13.574,0.585 16.211,2.636 16.211,17.187l0,99.219c0,14.551 -2.637,16.601 -16.211,17.187l0,4.004c5.567,-0.39 15.235,-0.586 25.586,-0.586c9.18,0 19.238,0.196 25.391,0.586l0,-4.004c-13.574,-0.586 -16.211,-2.636 -16.211,-17.187l0,-99.219c0,-14.551 2.637,-16.602 16.211,-17.187l0,-4.004Z" style="fill:#fff;fill-rule:nonzero;"/><path d="M1363.06,677.766c0,-5.566 0.19,-10.84 0.58,-14.453l-4.59,0c-2.83,26.465 -7.81,35.449 -32.81,35.449l-14.65,0c-13.57,0 -16.21,-2.05 -16.21,-16.601l0,-48.047l13.28,0c17.39,0 17.58,13.672 19.14,26.465l4.59,0c-0.97,-15.235 -1.17,-21.875 -1.17,-28.418c0,-2.93 -0.1,-5.86 -0.1,-9.571c0,-4.589 0.1,-10.351 0.69,-18.847l-4.59,0c-1.56,9.57 -1.17,26.367 -18.56,26.367l-13.28,0l0,-47.168c0,-14.551 2.64,-16.602 16.21,-16.602l16.6,0c21.2,0 24.22,7.813 26.86,31.446l4.59,0c-0.39,-3.028 -0.59,-7.617 -0.59,-12.403c0,-4.589 0.39,-14.257 1.37,-23.632c-12.4,0.586 -29.59,0.586 -41.8,0.586c-12.01,0 -38.37,0 -58.003,-0.586l0,4.004c13.574,0.585 16.211,2.636 16.211,17.187l0,99.219c0,14.551 -2.637,16.601 -16.211,17.187l0,4.004c19.633,-0.586 45.993,-0.586 58.003,-0.586c13.38,0 32.23,0 45.81,0.586c-0.98,-10.156 -1.37,-20.605 -1.37,-25.586Z" style="fill:#fff;fill-rule:nonzero;"/><path d="M1583,691.145c-3.71,4.688 -6.06,7.617 -10.94,7.617c-5.56,0 -7.81,-4.785 -10.25,-16.406l-4.98,-20.41c-3.81,-16.602 -10.26,-23.438 -28.03,-26.367l-2.44,-0.391c30.18,-4.687 38.87,-24.609 38.87,-38.476c0,-19.532 -16.02,-34.766 -48.25,-34.766c-4.78,0 -17.57,0.391 -30.17,0.391c-8.79,0 -18.85,-0.196 -24.42,-0.586l0,4.004c13.58,0.585 16.22,2.636 16.22,17.187l0,99.219c0,14.551 -2.64,16.601 -16.22,17.187l0,4.004c5.57,-0.39 15.24,-0.586 25.59,-0.586c9.18,0 19.24,0.196 25.39,0.586l0,-4.004c-13.57,-0.586 -16.21,-2.636 -16.21,-17.187l0,-45.996l19.04,0c15.82,0 18.75,11.425 22.56,28.418l4.4,19.922c3.8,17.089 11.42,21.679 21.48,21.679c10.74,0 15.72,-4.59 21.39,-12.793l-3.03,-2.246Zm-71,-125.39c24.22,0 33.21,12.207 33.21,33.203c0,18.359 -6.25,33.203 -34.57,33.203l-13.48,0l0,-49.219c0,-13.77 2.64,-17.187 14.84,-17.187Z" style="fill:#fff;fill-rule:nonzero;"/><path d="M1853.94,561.751c-7.62,0 -21,0.39 -30.18,0.586c-1.66,0 -3.22,0.097 -4.88,0.097c-7.42,0 -14.94,-0.39 -19.53,-0.683l0,4.004c13.57,0.585 16.21,2.636 16.21,17.187l0,99.219c0,14.551 -2.64,16.601 -16.21,17.187l0,4.004c5.56,-0.39 15.43,-0.586 24.8,-0.586c8.6,0 21.97,0.586 28.03,0.586c45.99,0 72.36,-28.808 72.36,-72.363c0,-44.629 -22.95,-69.238 -70.6,-69.238Zm-4.98,3.613c41.4,0 55.56,21.582 55.56,66.406c0,43.555 -11.81,67.969 -55.37,67.969c-12.4,0 -15.04,-3.223 -15.04,-17.188l0,-100c0,-13.769 2.64,-17.187 14.85,-17.187Z" style="fill:#fff;fill-rule:nonzero;"/><path d="M2076.03,560.774l-3.23,0l-47.07,121.191c-4.59,12.012 -10.54,16.211 -15.72,17.383l0,4.004c4.01,-0.39 8.2,-0.586 14.94,-0.586c7.03,0 15.43,0.196 23.05,0.586l0,-4.004c-11.43,-0.293 -17.38,-3.32 -17.38,-12.011c0,-4.102 1.27,-9.473 4,-16.407l8.2,-21.191l48.25,0l12.3,32.812c1.56,4.004 2.34,7.032 2.34,9.375c0,5.567 -4.49,7.032 -14.16,7.422l0,4.004c5.67,-0.39 15.24,-0.586 25.59,-0.586c7.62,0 16.02,0.196 21.48,0.586l0,-4.004c-4.19,-0.195 -9.86,-2.636 -13.86,-12.793l-48.73,-125.781Zm13.57,84.961l-45.31,0l22.95,-59.668l22.36,59.668Z" style="fill:#fff;fill-rule:nonzero;"/><path d="M2310.03,562.337c-7.03,0 -15.43,-0.196 -23.05,-0.586l0,4.004c11.14,0.292 17.68,2.734 17.68,10.644c0,4.102 -1.76,9.668 -5.47,17.188l-25.49,50.781l-33.3,-63.77c-1.46,-2.832 -2.05,-5.078 -2.05,-6.933c0,-5.957 6.45,-7.715 14.06,-7.715l0,-4.199c-8.59,0.586 -19.24,0.586 -28.02,0.586c-6.84,0 -12.41,-0.196 -17.58,-0.586l0,4.199c2.83,0 6.15,1.367 11.62,11.23l40.53,74.805l0,30.176c0,14.551 -2.54,16.601 -16.21,17.187l0,4.004c5.66,-0.39 15.23,-0.586 25.68,-0.586c9.18,0 19.14,0.196 25.39,0.586l0,-4.004c-13.67,-0.586 -16.21,-2.636 -16.21,-17.187l0,-36.426l31.35,-62.207c6.05,-11.816 10.84,-16.602 16.01,-17.773l0,-4.004c-4,0.39 -8.2,0.586 -14.94,0.586Z" style="fill:#fff;fill-rule:nonzero;"/><path d="M2456.73,559.505c-19.73,0 -37.6,11.035 -37.6,34.667c0,22.559 16.6,33.399 35.65,44.825c18.55,11.133 31.15,20.312 31.15,36.523c0,18.848 -12.99,26.66 -25.98,26.66c-25.58,0 -34.76,-21.191 -36.42,-45.41l-4.59,0c0,28.223 -0.2,39.746 -0.78,47.949l4.59,0c0.78,-5.761 1.85,-8.789 4.39,-8.789c1.66,0 3.61,0.782 6.84,2.832c5.76,3.614 13.18,7.422 27.34,7.422c23.24,0 42.48,-12.597 42.48,-37.988c0,-21.484 -15.23,-32.031 -36.03,-45.02c-17.97,-11.23 -33.6,-18.457 -33.6,-36.621c0,-13.769 10.16,-23.242 24.41,-23.242c22.17,0 31.35,19.434 32.82,38.477l4.59,0c0,-25.196 0.39,-33.789 0.97,-40.821l-4.59,0c-0.78,5.762 -1.85,8.789 -4.39,8.789c-1.86,0 -3.61,-0.781 -6.84,-2.832c-5.37,-3.613 -11.23,-7.421 -24.41,-7.421Z" style="fill:#fff;fill-rule:nonzero;"/></g><g><g transform="matrix(1.18799,0,0,1.18799,-133.723,-75.0491)"><text x="217.101px" y="924.902px" style="font-family:'PlayfairDisplay-Regular', 'Playfair Display';font-size:144px;fill:#fff;">N<tspan x="346.588px 480.083px 599.587px 716.066px 870.304px 987.838px 1104.32px 1224.66px 1289.32px " y="924.902px 924.902px 924.902px 924.902px 924.902px 924.902px 924.902px 924.902px 924.902px ">OVEMBER 7</tspan></text><text x="1376.55px" y="924.902px" style="font-family:'PlayfairDisplay-Regular', 'Playfair Display';font-size:144px;fill:#fff;">t<tspan x="1456.33px 1569.79px 1634.45px 1735.11px 1799.77px 1881.86px 1997.08px 2076.85px " y="924.902px 924.902px 924.902px 924.902px 924.902px 924.902px 924.902px 924.902px ">h - 10th</tspan></text></g></g><g><g><path d="M242.919,1308.21c-5.014,0.236 -11.963,0.236 -16.898,0.236c-4.857,0 -15.516,0 -23.452,-0.236l0,1.618c5.487,0.237 6.554,1.066 6.554,6.949l0,40.114c0,5.883 -1.067,6.712 -6.554,6.949l0,1.619c2.25,-0.158 6.159,-0.238 10.343,-0.238c4.383,0 9.081,0.08 11.884,0.238l0,-1.619c-6.79,-0.237 -8.172,-1.066 -8.172,-6.949l0,-18.596l5.922,0c7.029,0 7.107,5.488 7.739,10.661l1.896,0c-0.435,-6.121 -0.515,-8.805 -0.515,-11.49c0,-1.185 -0.038,-2.369 -0.038,-3.83c0,-1.895 0.038,-4.225 0.276,-7.62l-1.856,0c-0.632,3.87 -0.473,10.66 -7.502,10.66l-5.922,0l0,-19.899c0,-5.883 1.067,-6.712 6.554,-6.712l5.093,0c10.108,0 11.331,3.87 12.476,15.122l1.856,0c-0.158,-1.698 -0.236,-4.028 -0.236,-6.634c0,-2.012 0.157,-6.238 0.552,-10.343Z" style="fill:#fff;fill-rule:nonzero;"/><path d="M306.73,1307.07c-15.042,0 -25.703,12.16 -25.703,30.242c0,18.518 10.266,29.297 25.624,29.297c15.043,0 25.704,-12.161 25.704,-30.244c0,-18.517 -10.266,-29.295 -25.625,-29.295Zm-0.316,1.461c9.95,0 17.846,10.936 17.846,28.15c0,16.741 -6.791,28.467 -17.293,28.467c-9.949,0 -17.885,-10.937 -17.885,-28.151c0,-16.741 6.791,-28.466 17.332,-28.466Z" style="fill:#fff;fill-rule:nonzero;"/><path d="M420.527,1360.53c-1.501,1.894 -2.449,3.079 -4.423,3.079c-2.25,0 -3.158,-1.934 -4.145,-6.633l-2.014,-8.252c-1.54,-6.712 -4.146,-9.475 -11.331,-10.66l-0.987,-0.158c12.199,-1.895 15.714,-9.95 15.714,-15.556c0,-7.896 -6.475,-14.055 -19.505,-14.055c-1.935,0 -7.107,0.157 -12.2,0.157c-3.553,0 -7.62,-0.079 -9.87,-0.236l0,1.618c5.488,0.237 6.554,1.066 6.554,6.949l0,40.114c0,5.883 -1.066,6.712 -6.554,6.949l0,1.619c2.25,-0.158 6.159,-0.238 10.344,-0.238c3.712,0 7.778,0.08 10.266,0.238l0,-1.619c-5.488,-0.237 -6.554,-1.066 -6.554,-6.949l0,-18.596l7.699,0c6.396,0 7.58,4.62 9.119,11.49l1.777,8.053c1.541,6.91 4.62,8.766 8.687,8.766c4.342,0 6.356,-1.856 8.646,-5.172l-1.223,-0.908Zm-28.704,-50.696c9.791,0 13.423,4.936 13.423,13.424c0,7.423 -2.526,13.424 -13.975,13.424l-5.449,0l0,-19.899c0,-5.567 1.066,-6.949 6.001,-6.949Z" style="fill:#fff;fill-rule:nonzero;"/><path d="M500.407,1308.21c-6.712,0.236 -16.069,0.236 -22.703,0.236c-6.632,0 -16.108,0 -22.821,-0.236c0.435,4.105 0.593,8.331 0.593,10.343c0,2.606 -0.078,4.936 -0.237,6.634l1.856,0c1.106,-11.252 2.33,-15.122 12.437,-15.122l4.383,0l0,45.997c0,6.554 -1.383,7.541 -8.174,7.778l0,1.619c2.567,-0.158 7.107,-0.238 11.963,-0.238c4.383,0 9.042,0.08 11.884,0.238l0,-1.619c-6.79,-0.237 -8.172,-1.224 -8.172,-7.778l0,-45.997l4.383,0c10.107,0 11.291,3.87 12.436,15.122l1.857,0c-0.159,-1.698 -0.238,-4.028 -0.238,-6.634c0,-2.012 0.158,-6.238 0.553,-10.343Z" style="fill:#fff;fill-rule:nonzero;"/><path d="M631.582,1308.21c-6.711,0.236 -16.068,0.236 -22.702,0.236c-6.632,0 -16.108,0 -22.82,-0.236c0.434,4.105 0.592,8.331 0.592,10.343c0,2.606 -0.079,4.936 -0.237,6.634l1.856,0c1.106,-11.252 2.33,-15.122 12.437,-15.122l4.383,0l0,45.997c0,6.554 -1.382,7.541 -8.174,7.778l0,1.619c2.567,-0.158 7.107,-0.238 11.963,-0.238c4.383,0 9.043,0.08 11.885,0.238l0,-1.619c-6.792,-0.237 -8.173,-1.224 -8.173,-7.778l0,-45.997l4.383,0c10.107,0 11.291,3.87 12.436,15.122l1.857,0c-0.159,-1.698 -0.238,-4.028 -0.238,-6.634c0,-2.012 0.158,-6.238 0.552,-10.343Z" style="fill:#fff;fill-rule:nonzero;"/><path d="M696.303,1307.07c-15.044,0 -25.704,12.16 -25.704,30.242c0,18.518 10.266,29.297 25.625,29.297c15.042,0 25.703,-12.161 25.703,-30.244c0,-18.517 -10.266,-29.295 -25.624,-29.295Zm-0.316,1.461c9.949,0 17.846,10.936 17.846,28.15c0,16.741 -6.791,28.467 -17.293,28.467c-9.95,0 -17.886,-10.937 -17.886,-28.151c0,-16.741 6.791,-28.466 17.333,-28.466Z" style="fill:#fff;fill-rule:nonzero;"/><path d="M811.046,1308.21c-1.777,0.157 -4.739,0.236 -7.502,0.236c-2.763,0 -6.317,-0.079 -8.252,-0.236l0,1.618c5.489,0.237 7.344,1.856 7.344,7.778l0,25.229c0,12.043 -3.316,20.925 -15.516,20.925c-11.49,0 -12.753,-9.119 -12.753,-20.214l0,-26.769c0,-5.883 1.026,-6.712 6.554,-6.949l0,-1.618c-2.527,0.157 -6.554,0.236 -10.305,0.236c-4.185,0 -8.055,-0.079 -10.345,-0.236l0,1.618c5.528,0.237 6.554,1.066 6.554,6.949l0,25.387c0,11.016 1.225,15.596 6.002,20.057c3.554,3.316 8.41,4.383 13.581,4.383c6.634,0 12.122,-3.001 14.806,-7.541c2.409,-4.107 3.318,-9.634 3.318,-17.136l0,-24.321c0,-5.922 1.026,-7.541 6.514,-7.778l0,-1.618Z" style="fill:#fff;fill-rule:nonzero;"/><path d="M869.606,1308.21c-2.488,0.157 -6.554,0.236 -10.265,0.236c-4.186,0 -8.094,-0.079 -10.345,-0.236l0,1.618c5.489,0.237 6.554,1.066 6.554,6.949l0,40.114c0,5.883 -1.065,6.712 -6.554,6.949l0,1.619c7.936,-0.238 18.597,-0.238 23.453,-0.238c5.409,0 13.029,0 18.516,0.238c-0.394,-4.106 -0.552,-8.331 -0.552,-10.345c0,-2.606 0.079,-4.935 0.237,-6.633l-1.856,0c-1.145,11.253 -3.158,15.122 -13.265,15.122l-5.923,0c-5.488,0 -6.554,-0.829 -6.554,-6.712l0,-40.114c0,-5.883 1.066,-6.712 6.554,-6.949l0,-1.618Z" style="fill:#fff;fill-rule:nonzero;"/><path d="M955.488,1307.07c-15.043,0 -25.703,12.16 -25.703,30.242c0,18.518 10.266,29.297 25.624,29.297c15.043,0 25.703,-12.161 25.703,-30.244c0,-18.517 -10.266,-29.295 -25.624,-29.295Zm-0.316,1.461c9.949,0 17.846,10.936 17.846,28.15c0,16.741 -6.79,28.467 -17.294,28.467c-9.949,0 -17.885,-10.937 -17.885,-28.151c0,-16.741 6.791,-28.466 17.333,-28.466Z" style="fill:#fff;fill-rule:nonzero;"/><path d="M1070.23,1308.21c-1.777,0.157 -4.739,0.236 -7.502,0.236c-2.764,0 -6.318,-0.079 -8.252,-0.236l0,1.618c5.488,0.237 7.344,1.856 7.344,7.778l0,25.229c0,12.043 -3.317,20.925 -15.517,20.925c-11.489,0 -12.753,-9.119 -12.753,-20.214l0,-26.769c0,-5.883 1.027,-6.712 6.554,-6.949l0,-1.618c-2.527,0.157 -6.554,0.236 -10.304,0.236c-4.186,0 -8.055,-0.079 -10.345,-0.236l0,1.618c5.528,0.237 6.554,1.066 6.554,6.949l0,25.387c0,11.016 1.224,15.596 6.002,20.057c3.553,3.316 8.409,4.383 13.581,4.383c6.634,0 12.122,-3.001 14.806,-7.541c2.409,-4.107 3.316,-9.634 3.316,-17.136l0,-24.321c0,-5.922 1.028,-7.541 6.516,-7.778l0,-1.618Z" style="fill:#fff;fill-rule:nonzero;"/><path d="M1125.48,1307.31c-7.975,0 -15.201,4.461 -15.201,14.017c0,9.12 6.713,13.502 14.412,18.122c7.501,4.501 12.594,8.212 12.594,14.766c0,7.62 -5.251,10.779 -10.502,10.779c-10.344,0 -14.056,-8.568 -14.727,-18.359l-1.855,0c0,11.41 -0.08,16.069 -0.316,19.386l1.855,0c0.316,-2.33 0.751,-3.554 1.777,-3.554c0.671,0 1.461,0.316 2.763,1.145c2.33,1.461 5.331,3.001 11.055,3.001c9.397,0 17.175,-5.094 17.175,-15.358c0,-8.687 -6.158,-12.951 -14.569,-18.203c-7.264,-4.54 -13.581,-7.461 -13.581,-14.805c0,-5.567 4.106,-9.396 9.87,-9.396c8.963,0 12.674,7.856 13.267,15.555l1.855,0c0,-10.186 0.158,-13.661 0.395,-16.503l-1.856,0c-0.316,2.329 -0.75,3.553 -1.776,3.553c-0.751,0 -1.461,-0.315 -2.765,-1.146c-2.171,-1.459 -4.54,-3 -9.87,-3Z" style="fill:#fff;fill-rule:nonzero;"/><path d="M1225.61,1355.12c0,-2.25 0.08,-4.383 0.238,-5.843l-1.856,0c-1.145,10.7 -3.159,14.332 -13.266,14.332l-5.922,0c-5.488,0 -6.554,-0.829 -6.554,-6.712l0,-19.425l5.37,0c7.027,0 7.106,5.528 7.738,10.699l1.855,0c-0.395,-6.159 -0.473,-8.844 -0.473,-11.489c0,-1.184 -0.04,-2.369 -0.04,-3.869c0,-1.856 0.04,-4.185 0.277,-7.62l-1.856,0c-0.631,3.87 -0.474,10.66 -7.501,10.66l-5.37,0l0,-19.07c0,-5.883 1.066,-6.712 6.554,-6.712l6.712,0c8.568,0 9.792,3.158 10.858,12.714l1.855,0c-0.158,-1.224 -0.237,-3.081 -0.237,-5.015c0,-1.855 0.159,-5.765 0.553,-9.554c-5.014,0.236 -11.963,0.236 -16.898,0.236c-4.857,0 -15.517,0 -23.453,-0.236l0,1.618c5.488,0.237 6.554,1.066 6.554,6.949l0,40.114c0,5.883 -1.066,6.712 -6.554,6.949l0,1.619c7.936,-0.238 18.596,-0.238 23.453,-0.238c5.409,0 13.029,0 18.517,0.238c-0.395,-4.106 -0.554,-8.331 -0.554,-10.345Z" style="fill:#fff;fill-rule:nonzero;"/><rect x="1320.43" y="1341.38" width="29.217" height="4.659" style="fill:#fff;"/><path d="M1483.78,1308.21c-5.013,0.236 -11.967,0.236 -16.894,0.236c-4.862,0 -15.514,0 -23.449,-0.236l0,1.618c5.477,0.237 6.544,1.066 6.544,6.949l0,40.114c0,5.883 -1.067,6.712 -6.544,6.949l0,1.619c2.242,-0.158 6.156,-0.238 10.339,-0.238c4.377,0 9.078,0.08 11.881,0.238l0,-1.619c-6.792,-0.237 -8.172,-1.066 -8.172,-6.949l0,-18.596l5.919,0c7.029,0 7.115,5.488 7.741,10.661l1.897,0c-0.431,-6.121 -0.517,-8.805 -0.517,-11.49c0,-1.185 -0.033,-2.369 -0.033,-3.83c0,-1.895 0.033,-4.225 0.27,-7.62l-1.855,0c-0.625,3.87 -0.474,10.66 -7.503,10.66l-5.919,0l0,-19.899c0,-5.883 1.067,-6.712 6.555,-6.712l5.088,0c10.113,0 11.332,3.87 12.485,15.122l1.855,0c-0.162,-1.698 -0.238,-4.028 -0.238,-6.634c0,-2.012 0.151,-6.238 0.55,-10.343Z" style="fill:#fff;fill-rule:nonzero;"/><path d="M1547.59,1307.07c-15.04,0 -25.703,12.16 -25.703,30.242c0,18.518 10.264,29.297 25.617,29.297c15.05,0 25.713,-12.161 25.713,-30.244c0,-18.517 -10.275,-29.295 -25.627,-29.295Zm-0.313,1.461c9.94,0 17.843,10.936 17.843,28.15c0,16.741 -6.792,28.467 -17.293,28.467c-9.951,0 -17.886,-10.937 -17.886,-28.151c0,-16.741 6.792,-28.466 17.336,-28.466Z" style="fill:#fff;fill-rule:nonzero;"/><path d="M1661.39,1360.53c-1.498,1.894 -2.447,3.079 -4.42,3.079c-2.253,0 -3.159,-1.934 -4.151,-6.633l-2.016,-8.252c-1.531,-6.712 -4.14,-9.475 -11.331,-10.66l-0.981,-0.158c12.194,-1.895 15.708,-9.95 15.708,-15.556c0,-7.896 -6.469,-14.055 -19.503,-14.055c-1.93,0 -7.105,0.157 -12.194,0.157c-3.558,0 -7.622,-0.079 -9.875,-0.236l0,1.618c5.487,0.237 6.555,1.066 6.555,6.949l0,40.114c0,5.883 -1.068,6.712 -6.555,6.949l0,1.619c2.253,-0.158 6.156,-0.238 10.35,-0.238c3.708,0 7.773,0.08 10.263,0.238l0,-1.619c-5.487,-0.237 -6.555,-1.066 -6.555,-6.949l0,-18.596l7.698,0c6.394,0 7.579,4.62 9.121,11.49l1.779,8.053c1.542,6.91 4.615,8.766 8.679,8.766c4.345,0 6.361,-1.856 8.647,-5.172l-1.219,-0.908Zm-28.71,-50.696c9.8,0 13.433,4.936 13.433,13.424c0,7.423 -2.533,13.424 -13.983,13.424l-5.445,0l0,-19.899c0,-5.567 1.068,-6.949 5.995,-6.949Z" style="fill:#fff;fill-rule:nonzero;"/><path d="M1741.27,1308.21c-6.717,0.236 -16.075,0.236 -22.705,0.236c-6.631,0 -16.108,0 -22.814,-0.236c0.432,4.105 0.583,8.331 0.583,10.343c0,2.606 -0.076,4.936 -0.238,6.634l1.866,0c1.099,-11.252 2.328,-15.122 12.43,-15.122l4.388,0l0,45.997c0,6.554 -1.38,7.541 -8.172,7.778l0,1.619c2.566,-0.158 7.105,-0.238 11.957,-0.238c4.388,0 9.045,0.08 11.891,0.238l0,-1.619c-6.792,-0.237 -8.172,-1.224 -8.172,-7.778l0,-45.997l4.377,0c10.102,0 11.288,3.87 12.442,15.122l1.854,0c-0.161,-1.698 -0.237,-4.028 -0.237,-6.634c0,-2.012 0.151,-6.238 0.55,-10.343Z" style="fill:#fff;fill-rule:nonzero;"/><path d="M1850.06,1308.21c-2.533,0.157 -6.555,0.236 -10.274,0.236c-4.216,0 -8.086,-0.079 -10.34,-0.236l0,1.618c5.488,0.237 6.555,1.066 6.555,6.949l0,36.956c0,11.172 -0.28,15.122 -1.38,18.517c-1.466,4.304 -5.013,6.87 -9.714,6.87c-1.38,0 -4.107,-0.238 -5.175,-1.303c2.016,-0.396 3.396,-1.777 3.396,-4.106c0,-2.765 -1.929,-4.383 -4.463,-4.383c-2.49,0 -4.259,1.777 -4.259,4.304c0,2.25 1.219,4.185 3.871,5.566c1.455,0.751 3.784,1.461 6.781,1.461c9.24,0 15.288,-5.725 17.056,-13.187c1.305,-5.408 1.391,-14.371 1.391,-21.083l0,-29.612c0,-5.883 1.057,-6.712 6.555,-6.949l0,-1.618Z" style="fill:#fff;fill-rule:nonzero;"/><path d="M1910.67,1307.82l-1.305,0l-19.029,48.998c-1.865,4.857 -4.269,6.554 -6.361,7.028l0,1.619c1.617,-0.158 3.321,-0.238 6.038,-0.238c2.846,0 6.242,0.08 9.325,0.238l0,-1.619c-4.625,-0.118 -7.029,-1.342 -7.029,-4.857c0,-1.658 0.507,-3.829 1.617,-6.632l3.321,-8.568l19.503,0l4.97,13.266c0.637,1.618 0.949,2.843 0.949,3.79c0,2.251 -1.822,2.843 -5.725,3.001l0,1.619c2.286,-0.158 6.156,-0.238 10.34,-0.238c3.083,0 6.479,0.08 8.689,0.238l0,-1.619c-1.692,-0.08 -3.989,-1.066 -5.606,-5.173l-19.697,-50.853Zm5.487,34.35l-18.328,0l9.283,-24.124l9.045,24.124Z" style="fill:#fff;fill-rule:nonzero;"/><path d="M1997.02,1307.07c-15.04,0 -25.703,12.16 -25.703,30.242c0,18.518 10.275,29.297 25.628,29.297c6.954,0 10.975,-2.448 14.964,-5.251c0.668,-0.434 1.229,-0.672 1.66,-0.672c1.143,0 1.693,1.461 1.973,4.778l1.855,0c-0.237,-4.106 -0.313,-9.634 -0.313,-19.425l-1.854,0c-0.831,6.554 -1.391,9.633 -3.752,12.792c-3.041,4.382 -8.97,6.159 -13.822,6.159c-10.425,0 -18.285,-9.95 -18.285,-27.993c0,-17.53 6.954,-28.466 17.498,-28.466c5.563,0 10.9,1.934 14.285,6.316c2.297,2.922 2.922,5.094 4.076,11.963l1.854,0c0,-9.397 0.076,-14.647 0.313,-18.595l-1.855,0c-0.28,3.316 -0.948,4.816 -2.048,4.816c-0.485,0 -0.992,-0.236 -1.585,-0.711c-3.558,-2.724 -7.773,-5.25 -14.889,-5.25Z" style="fill:#fff;fill-rule:nonzero;"/><path d="M2082,1332.61l13.186,-16.898c3.083,-3.949 6.242,-5.41 9.552,-5.883l0,-1.618c-1.617,0.157 -4.14,0.236 -6.9,0.236c-2.803,0 -6.199,-0.079 -9.283,-0.236l0,1.618c3.429,0.079 5.014,1.066 5.014,2.922c0,1.777 -1.499,4.382 -4.151,7.739l-7.73,9.87c-1.973,2.527 -4.863,4.383 -9.24,4.54l0,-18.122c0,-5.883 1.067,-6.712 6.555,-6.949l0,-1.618c-2.49,0.157 -6.555,0.236 -10.264,0.236c-4.194,0 -8.097,-0.079 -10.35,-0.236l0,1.618c5.488,0.237 6.555,1.066 6.555,6.949l0,40.114c0,5.883 -1.067,6.712 -6.555,6.949l0,1.619c2.253,-0.158 6.156,-0.238 10.35,-0.238c3.709,0 7.774,0.08 10.264,0.238l0,-1.619c-5.488,-0.237 -6.555,-1.066 -6.555,-6.949l0,-20.373c3.752,0.198 5.251,0.987 8.485,5.883l11.805,17.807c0.55,0.789 0.831,1.421 0.831,1.934c0,1.105 -1.229,1.58 -3.709,1.698l0,1.619c3.946,-0.238 6.469,-0.238 8.323,-0.238c2.652,0 7.116,0.08 9.682,0.238l0,-1.619c-3.321,-0.79 -5.337,-2.251 -7.105,-4.935l-18.76,-26.296Z" style="fill:#fff;fill-rule:nonzero;"/><path d="M2160.97,1307.31c-7.978,0 -15.201,4.461 -15.201,14.017c0,9.12 6.716,13.502 14.414,18.122c7.493,4.501 12.593,8.212 12.593,14.766c0,7.62 -5.251,10.779 -10.501,10.779c-10.35,0 -14.059,-8.568 -14.727,-18.359l-1.855,0c0,11.41 -0.086,16.069 -0.323,19.386l1.854,0c0.324,-2.33 0.755,-3.554 1.779,-3.554c0.679,0 1.466,0.316 2.771,1.145c2.329,1.461 5.326,3.001 11.051,3.001c9.401,0 17.174,-5.094 17.174,-15.358c0,-8.687 -6.156,-12.951 -14.565,-18.203c-7.267,-4.54 -13.585,-7.461 -13.585,-14.805c0,-5.567 4.108,-9.396 9.876,-9.396c8.959,0 12.668,7.856 13.261,15.555l1.854,0c0,-10.186 0.162,-13.661 0.399,-16.503l-1.854,0c-0.324,2.329 -0.755,3.553 -1.779,3.553c-0.755,0 -1.466,-0.315 -2.771,-1.146c-2.167,-1.459 -4.539,-3 -9.865,-3Z" style="fill:#fff;fill-rule:nonzero;"/><path d="M2246.3,1307.07c-15.05,0 -25.713,12.16 -25.713,30.242c0,18.518 10.274,29.297 25.627,29.297c15.04,0 25.703,-12.161 25.703,-30.244c0,-18.517 -10.264,-29.295 -25.617,-29.295Zm-0.323,1.461c9.951,0 17.843,10.936 17.843,28.15c0,16.741 -6.782,28.467 -17.293,28.467c-9.941,0 -17.887,-10.937 -17.887,-28.151c0,-16.741 6.793,-28.466 17.337,-28.466Z" style="fill:#fff;fill-rule:nonzero;"/><path d="M2362.11,1308.21c-1.779,0.157 -4.776,0.236 -7.504,0.236c-2.76,0 -6.317,-0.079 -8.247,-0.236l0,1.618c6.318,0.237 7.342,1.856 7.342,7.778l0,34.586l-28.549,-43.982c-1.768,0.157 -3.946,0.236 -6.307,0.236c-2.728,0 -5.725,-0.079 -7.504,-0.236l0,1.618c5.488,0.237 6.555,1.066 6.555,6.949l0,39.285c0,5.923 -1.067,7.541 -6.555,7.778l0,1.619c1.779,-0.158 4.776,-0.238 7.504,-0.238c2.76,0 6.307,0.08 8.248,0.238l0,-1.619c-6.275,-0.237 -7.343,-1.855 -7.343,-7.778l0,-42.68l33.951,52.471l1.854,0l0,-48.247c0,-5.922 1.068,-7.541 6.555,-7.778l0,-1.618Z" style="fill:#fff;fill-rule:nonzero;"/></g><rect x="41.887" y="1221.17" width="2478.78" height="9.238" style="fill:#fff;stroke:#fff;stroke-width:0.41px;"/><rect x="41.887" y="1443.27" width="2478.78" height="9.238" style="fill:#fff;stroke:#fff;stroke-width:0.41px;"/></g></svg>